<svg width="310" height="231" viewBox="0 0 310 231" fill="none" xmlns="http://www.w3.org/2000/svg">
<path d="M278.938 212.964H258.404V213.119H278.938V212.964Z" fill="#EBEBEB"/>
<path d="M205.356 214.65H199.968V214.805H205.356V214.65Z" fill="#EBEBEB"/>
<path d="M257.784 207.21H245.886V207.365H257.784V207.21Z" fill="#EBEBEB"/>
<path d="M59.3032 208.252H32.5254V208.407H59.3032V208.252Z" fill="#EBEBEB"/>
<path d="M68.7517 208.252H64.8271V208.407H68.7517V208.252Z" fill="#EBEBEB"/>
<path d="M139.593 210.868H81.5115V211.023H139.593V210.868Z" fill="#EBEBEB"/>
<path d="M146.94 175.336H27.2242C26.2863 175.334 25.3875 174.961 24.7249 174.297C24.0623 173.633 23.6902 172.734 23.6902 171.796V3.5092C23.6983 2.57674 24.0741 1.68515 24.7358 1.0281C25.3975 0.371044 26.2917 0.00159736 27.2242 0H146.94C147.879 0 148.779 0.372984 149.443 1.0369C150.107 1.70082 150.48 2.60128 150.48 3.5402V171.796C150.48 172.735 150.107 173.635 149.443 174.299C148.779 174.963 147.879 175.336 146.94 175.336ZM27.2242 0.124C26.3274 0.125643 25.468 0.48302 24.8345 1.11769C24.201 1.75236 23.8452 2.61246 23.8452 3.5092V171.796C23.8452 172.693 24.201 173.553 24.8345 174.187C25.468 174.822 26.3274 175.179 27.2242 175.181H146.94C147.837 175.179 148.697 174.822 149.332 174.188C149.966 173.553 150.324 172.693 150.325 171.796V3.5092C150.324 2.61189 149.966 1.75181 149.332 1.11731C148.697 0.482819 147.837 0.125639 146.94 0.124H27.2242Z" fill="#EBEBEB"/>
<path d="M281.052 175.336H161.33C160.392 175.334 159.492 174.961 158.829 174.297C158.165 173.634 157.792 172.734 157.79 171.796V3.5092C157.8 2.57617 158.177 1.68459 158.84 1.02771C159.502 0.370827 160.397 0.00157994 161.33 0H281.052C281.984 0.00322679 282.876 0.373394 283.537 1.03027C284.197 1.68715 284.572 2.57781 284.58 3.5092V171.796C284.58 172.733 284.209 173.631 283.548 174.295C282.886 174.958 281.989 175.333 281.052 175.336ZM161.33 0.124C160.433 0.125639 159.573 0.482819 158.938 1.11731C158.304 1.75181 157.947 2.61189 157.945 3.5092V171.796C157.947 172.693 158.304 173.553 158.938 174.188C159.573 174.822 160.433 175.179 161.33 175.181H281.052C281.95 175.179 282.81 174.822 283.444 174.188C284.079 173.553 284.436 172.693 284.437 171.796V3.5092C284.436 2.61189 284.079 1.75181 283.444 1.11731C282.81 0.482819 281.95 0.125639 281.052 0.124H161.33Z" fill="#EBEBEB"/>
<path d="M310 202.988H0V203.143H310V202.988Z" fill="#EBEBEB"/>
<path d="M282.509 10.1494H238.334V160.01H282.509V10.1494Z" fill="#FAFAFA"/>
<path d="M283.631 63.1963H228.402V158.701H283.631V63.1963Z" fill="#E0E0E0"/>
<path d="M239.01 49.8545V73.8051H243.369H268.671H273.03V49.8545H239.01Z" fill="#E0E0E0"/>
<path d="M239.01 66.7363H231.942V73.8043H239.01V66.7363Z" fill="#FAFAFA"/>
<path d="M252.706 66.7363H245.638V73.8043H252.706V66.7363Z" fill="#FAFAFA"/>
<path d="M266.401 66.7363H259.333V73.8043H266.401V66.7363Z" fill="#FAFAFA"/>
<path d="M280.103 66.7363H273.029V73.8043H280.103V66.7363Z" fill="#F0F0F0"/>
<path d="M239.01 79.583H231.942V86.6572H239.01V79.583Z" fill="#F0F0F0"/>
<path d="M252.706 79.583H245.638V86.6572H252.706V79.583Z" fill="#F0F0F0"/>
<path d="M266.401 79.583H259.333V86.6572H266.401V79.583Z" fill="#FAFAFA"/>
<path d="M280.103 79.583H273.029V86.6572H280.103V79.583Z" fill="#FAFAFA"/>
<path d="M239.01 92.4297H231.942V99.4977H239.01V92.4297Z" fill="#F0F0F0"/>
<path d="M252.706 92.4297H245.638V99.4977H252.706V92.4297Z" fill="#FAFAFA"/>
<path d="M266.401 92.4297H259.333V99.4977H266.401V92.4297Z" fill="#FAFAFA"/>
<path d="M252.706 55.626H245.638V62.694H252.706V55.626Z" fill="#FAFAFA"/>
<path d="M266.401 55.626H259.333V62.694H266.401V55.626Z" fill="#F0F0F0"/>
<path d="M280.103 92.4297H273.029V99.4977H280.103V92.4297Z" fill="#F0F0F0"/>
<path d="M239.01 105.276H231.942V112.344H239.01V105.276Z" fill="#FAFAFA"/>
<path d="M252.706 105.276H245.638V112.344H252.706V105.276Z" fill="#F0F0F0"/>
<path d="M266.401 105.276H259.333V112.344H266.401V105.276Z" fill="#F0F0F0"/>
<path d="M280.103 105.276H273.029V112.344H280.103V105.276Z" fill="#FAFAFA"/>
<path d="M239.01 118.129H231.942V125.203H239.01V118.129Z" fill="#F0F0F0"/>
<path d="M252.706 118.129H245.638V125.203H252.706V118.129Z" fill="#FAFAFA"/>
<path d="M266.401 118.129H259.333V125.203H266.401V118.129Z" fill="#FAFAFA"/>
<path d="M280.103 118.129H273.029V125.203H280.103V118.129Z" fill="#F0F0F0"/>
<path d="M239.01 130.975H231.942V138.043H239.01V130.975Z" fill="#F0F0F0"/>
<path d="M252.706 130.975H245.638V138.043H252.706V130.975Z" fill="#FAFAFA"/>
<path d="M266.401 130.975H259.333V138.043H266.401V130.975Z" fill="#F0F0F0"/>
<path d="M280.103 130.975H273.029V138.043H280.103V130.975Z" fill="#FAFAFA"/>
<path d="M239.01 143.821H231.942V150.895H239.01V143.821Z" fill="#FAFAFA"/>
<path d="M252.706 143.821H245.638V150.895H252.706V143.821Z" fill="#FAFAFA"/>
<path d="M266.401 143.821H259.333V150.895H266.401V143.821Z" fill="#F0F0F0"/>
<path d="M280.103 143.821H273.029V150.895H280.103V143.821Z" fill="#F0F0F0"/>
<path opacity="0.1" d="M282.423 10.1494H238.248V160.01H282.423V10.1494Z" fill="white"/>
<g opacity="0.3">
<path d="M278.101 10.1494H264.015L248.608 160.01H262.688L278.101 10.1494Z" fill="white"/>
</g>
<path d="M282.881 8.25195H237.962V12.0526H282.881V8.25195Z" fill="#E0E0E0"/>
<path d="M282.881 158.701H237.962V162.502H282.881V158.701Z" fill="#EBEBEB"/>
<path d="M284.623 165.745H235.928V4.54492H284.623V165.745ZM239.642 162.025H280.915V8.26492H239.642V162.025Z" fill="#EBEBEB"/>
<path d="M234.323 10.1494H190.148V160.01H234.323V10.1494Z" fill="#FAFAFA"/>
<path d="M230.981 112.865H193.204V159.223H230.981V112.865Z" fill="#E6E6E6"/>
<path d="M227.695 118.005H218.903H216.485H214.067V122.841H216.485H218.903H227.695V118.005Z" fill="#E6E6E6"/>
<path d="M227.695 127.373H218.903H216.485H214.067V132.209H216.485H218.903H227.695V127.373Z" fill="#FAFAFA"/>
<path d="M227.695 136.741H218.903H216.485H214.067V141.577H216.485H218.903H227.695V136.741Z" fill="#E6E6E6"/>
<path d="M227.695 146.109H218.903H215.171H214.067V150.945H215.171H218.903H227.695V146.109Z" fill="#FAFAFA"/>
<path d="M210.118 118.005H201.332H198.914H196.496V122.841H198.914H201.332H210.118V118.005Z" fill="#FAFAFA"/>
<path d="M210.118 127.373H201.332H197.922H196.496V132.209H197.922H201.332H210.118V127.373Z" fill="#FAFAFA"/>
<path d="M210.118 136.741H201.332H198.914H196.496V141.577H198.914H201.332H210.118V136.741Z" fill="#E6E6E6"/>
<path d="M210.118 146.109H201.332H198.914H196.496V150.945H198.914H201.332H210.118V146.109Z" fill="#FAFAFA"/>
<path opacity="0.1" d="M234.18 10.1494H190.005V160.01H234.18V10.1494Z" fill="white"/>
<g opacity="0.3">
<path d="M229.914 10.1494H215.834L200.421 160.01H214.507L229.914 10.1494Z" fill="white"/>
</g>
<path d="M234.695 8.25195H189.776V12.0526H234.695V8.25195Z" fill="#E0E0E0"/>
<path d="M234.695 158.701H189.776V162.502H234.695V158.701Z" fill="#EBEBEB"/>
<path d="M236.443 165.745H187.748V4.54492H236.443V165.745ZM191.456 162.025H232.729V8.26492H191.456V162.025Z" fill="#EBEBEB"/>
<path d="M118.575 10.1494H74.4001V160.01H118.575V10.1494Z" fill="#FAFAFA"/>
<path opacity="0.1" d="M118.488 10.1494H74.3132V160.01H118.488V10.1494Z" fill="white"/>
<g opacity="0.3">
<path d="M114.173 10.1494H100.087L84.6797 160.01H98.7599L114.173 10.1494Z" fill="white"/>
</g>
<path d="M118.953 8.25195H74.0344V12.0526H118.953V8.25195Z" fill="#E0E0E0"/>
<path d="M118.953 158.701H74.0344V162.502H118.953V158.701Z" fill="#EBEBEB"/>
<path d="M120.695 165.745H72.0005V4.54492H120.695V165.745ZM75.7143 162.025H116.981V8.26492H75.7143V162.025Z" fill="#EBEBEB"/>
<path d="M70.4567 10.1494H26.2817V160.01H70.4567V10.1494Z" fill="#FAFAFA"/>
<path d="M63.798 73.6123H29.605V102.306H63.798V73.6123Z" fill="#E6E6E6"/>
<path d="M36.1707 77.1904H31.7935V81.5676H36.1707V77.1904Z" fill="#FAFAFA"/>
<path d="M44.6523 77.1904H40.2751V81.5676H44.6523V77.1904Z" fill="#FAFAFA"/>
<path d="M53.1343 77.1904H48.7571V81.5676H53.1343V77.1904Z" fill="#FAFAFA"/>
<path d="M61.6096 77.1904H57.2324V81.5676H61.6096V77.1904Z" fill="#FAFAFA"/>
<path d="M36.1707 85.1445H31.7935V89.5217H36.1707V85.1445Z" fill="#FAFAFA"/>
<path d="M44.6523 85.1445H40.2751V89.5217H44.6523V85.1445Z" fill="#FAFAFA"/>
<path d="M53.1343 85.1445H48.7571V89.5217H53.1343V85.1445Z" fill="#FAFAFA"/>
<path d="M61.6096 85.1445H57.2324V89.5217H61.6096V85.1445Z" fill="#E6E6E6"/>
<path d="M36.1707 93.0928H31.7935V97.47H36.1707V93.0928Z" fill="#E6E6E6"/>
<path d="M44.6523 93.0928H40.2751V97.47H44.6523V93.0928Z" fill="#E6E6E6"/>
<path d="M53.1343 93.0928H48.7571V97.47H53.1343V93.0928Z" fill="#FAFAFA"/>
<path d="M61.6096 93.0928H57.2324V97.47H61.6096V93.0928Z" fill="#E6E6E6"/>
<path d="M63.798 101.946H29.605V130.64H63.798V101.946Z" fill="#E6E6E6"/>
<path d="M36.1707 105.518H31.7935V109.895H36.1707V105.518Z" fill="#FAFAFA"/>
<path d="M44.6523 105.518H40.2751V109.895H44.6523V105.518Z" fill="#FAFAFA"/>
<path d="M53.1343 105.518H48.7571V109.895H53.1343V105.518Z" fill="#FAFAFA"/>
<path d="M61.6096 105.518H57.2324V109.895H61.6096V105.518Z" fill="#FAFAFA"/>
<path d="M36.1707 113.473H31.7935V117.85H36.1707V113.473Z" fill="#FAFAFA"/>
<path d="M44.6523 113.473H40.2751V117.85H44.6523V113.473Z" fill="#FAFAFA"/>
<path d="M53.1343 113.473H48.7571V117.85H53.1343V113.473Z" fill="#FAFAFA"/>
<path d="M61.6096 113.473H57.2324V117.85H61.6096V113.473Z" fill="#E6E6E6"/>
<path d="M36.1707 121.427H31.7935V125.804H36.1707V121.427Z" fill="#E6E6E6"/>
<path d="M44.6523 121.427H40.2751V125.804H44.6523V121.427Z" fill="#E6E6E6"/>
<path d="M53.1343 121.427H48.7571V125.804H53.1343V121.427Z" fill="#FAFAFA"/>
<path d="M61.6096 121.427H57.2324V125.804H61.6096V121.427Z" fill="#E6E6E6"/>
<path d="M63.798 130.274H29.605V158.968H63.798V130.274Z" fill="#E6E6E6"/>
<path d="M36.1707 133.852H31.7935V138.229H36.1707V133.852Z" fill="#FAFAFA"/>
<path d="M44.6523 133.852H40.2751V138.229H44.6523V133.852Z" fill="#FAFAFA"/>
<path d="M53.1343 133.852H48.7571V138.229H53.1343V133.852Z" fill="#FAFAFA"/>
<path d="M61.6096 133.852H57.2324V138.229H61.6096V133.852Z" fill="#FAFAFA"/>
<path d="M36.1707 141.807H31.7935V146.184H36.1707V141.807Z" fill="#FAFAFA"/>
<path d="M44.6523 141.807H40.2751V146.184H44.6523V141.807Z" fill="#FAFAFA"/>
<path d="M53.1343 141.807H48.7571V146.184H53.1343V141.807Z" fill="#FAFAFA"/>
<path d="M61.6096 141.807H57.2324V146.184H61.6096V141.807Z" fill="#E6E6E6"/>
<path d="M36.1707 149.761H31.7935V154.138H36.1707V149.761Z" fill="#E6E6E6"/>
<path d="M44.6523 149.761H40.2751V154.138H44.6523V149.761Z" fill="#E6E6E6"/>
<path d="M53.1343 149.761H48.7571V154.138H53.1343V149.761Z" fill="#FAFAFA"/>
<path d="M61.6096 149.761H57.2324V154.138H61.6096V149.761Z" fill="#E6E6E6"/>
<path opacity="0.1" d="M69.8737 10.1494H25.6987V160.01H69.8737V10.1494Z" fill="white"/>
<g opacity="0.3">
<path d="M66.0482 10.1494H51.968L36.561 160.01H50.6412L66.0482 10.1494Z" fill="white"/>
</g>
<path d="M70.835 8.25195H25.916V12.0526H70.835V8.25195Z" fill="#E0E0E0"/>
<path d="M70.835 158.701H25.916V162.502H70.835V158.701Z" fill="#EBEBEB"/>
<path d="M72.5774 165.745H23.8826V4.54492H72.5774V165.745ZM27.5964 162.025H68.8636V8.26492H27.5964V162.025Z" fill="#EBEBEB"/>
<path d="M150.982 185.758L150.486 185.82C150.455 185.566 147.442 160.344 153.661 139.735C159.861 119.275 155.583 106.193 155.521 106.069L155.998 105.908C156.041 106.038 160.338 119.244 154.138 139.878C147.95 160.388 150.951 185.51 150.982 185.758Z" fill="#E0E0E0"/>
<path d="M156.426 108.878C155.343 107.588 153.874 106.682 152.235 106.293L152.353 105.803C154.096 106.217 155.66 107.182 156.811 108.556L156.426 108.878Z" fill="#E0E0E0"/>
<path d="M158.552 110.965L157.122 111.773L157.369 112.211L158.799 111.402L158.552 110.965Z" fill="#E0E0E0"/>
<path d="M155.886 122.592C154.639 119.749 152.329 117.506 149.451 116.343L149.637 115.884C152.635 117.094 155.043 119.428 156.345 122.388L155.886 122.592Z" fill="#E0E0E0"/>
<path d="M154.548 138.347H154.045C154.029 137.332 153.788 136.334 153.34 135.424C152.892 134.514 152.248 133.715 151.454 133.083L151.764 132.692C152.616 133.371 153.308 134.23 153.789 135.208C154.271 136.185 154.53 137.257 154.548 138.347Z" fill="#E0E0E0"/>
<path d="M153.431 142.376L152.96 142.197C153.217 141.557 153.603 140.977 154.094 140.493C154.584 140.009 155.169 139.631 155.812 139.382L155.986 139.853C155.409 140.075 154.885 140.414 154.445 140.848C154.006 141.282 153.66 141.803 153.431 142.376Z" fill="#E0E0E0"/>
<path d="M150.182 167.939L149.798 167.623C150.418 166.885 150.871 164.089 151.119 162.589C151.174 162.229 151.224 161.925 151.267 161.702L151.757 161.795C151.72 162.012 151.67 162.316 151.608 162.669C151.243 164.92 150.827 167.164 150.182 167.939Z" fill="#E0E0E0"/>
<path d="M149.897 175.968C149.548 174.986 148.899 174.138 148.041 173.546C147.182 172.954 146.16 172.647 145.117 172.67V172.168C146.27 172.14 147.401 172.478 148.35 173.133C149.299 173.788 150.016 174.726 150.4 175.813L149.897 175.968Z" fill="#E0E0E0"/>
<path d="M153.724 181.212L150.195 185.16L150.57 185.495L154.098 181.547L153.724 181.212Z" fill="#E0E0E0"/>
<path d="M156.24 155.465C157.04 158.051 151.466 162.98 151.466 162.98C151.466 162.98 144.082 162.056 143.282 159.464C142.482 156.873 144.355 152.644 147.932 151.541C151.51 150.437 155.416 152.88 156.24 155.465Z" fill="#F0F0F0"/>
<path d="M162.403 124.068C161.696 126.815 156.414 128.768 156.414 128.768C156.414 128.768 152.731 124.509 153.438 121.762C154.145 119.015 157.065 115.984 159.539 116.622C162.012 117.261 163.11 121.322 162.403 124.068Z" fill="#EBEBEB"/>
<path d="M141.217 165.124C144.528 166.42 146.562 172.279 146.562 172.279C146.562 172.279 141.099 175.224 137.782 173.934C134.465 172.645 130.962 168.974 131.905 166.575C132.847 164.176 137.9 163.835 141.217 165.124Z" fill="#F5F5F5"/>
<path d="M148.484 132.866C149.153 133.43 149.92 133.865 150.747 134.149C151.164 134.283 151.609 134.3 152.035 134.2C152.461 134.099 152.851 133.885 153.165 133.579C153.878 132.761 153.686 131.496 153.239 130.51C152.353 128.557 149.085 125.246 146.574 126.17C142.953 127.565 146.866 131.669 148.484 132.866Z" fill="#E6E6E6"/>
<path d="M155.899 137.845C155.422 138.434 154.919 139.171 155.18 139.884C155.327 140.187 155.571 140.431 155.873 140.58C156.175 140.728 156.518 140.771 156.848 140.703C157.503 140.55 158.116 140.251 158.639 139.829C159.917 138.936 162.539 137.076 160.865 135.334C159.191 133.591 156.897 136.598 155.899 137.845Z" fill="#EBEBEB"/>
<path d="M145.198 113.045C144.922 113.06 144.658 113.161 144.443 113.335C144.228 113.509 144.074 113.746 144.001 114.012C143.896 114.632 144.423 115.202 144.931 115.593C146.202 116.573 150.015 119.214 150.871 116.666C151.677 114.26 146.884 112.84 145.198 113.045Z" fill="#E0E0E0"/>
<path d="M152.234 104.662C151.447 104.737 150.66 104.451 149.872 104.501C149.085 104.551 148.204 105.183 148.384 105.958C148.564 106.733 149.432 106.907 150.157 106.956C151.403 107.03 152.654 106.943 153.877 106.696C154.166 106.67 154.435 106.534 154.628 106.318C154.95 105.846 154.442 105.214 153.896 105.078C153.334 105.005 152.781 104.874 152.247 104.687L152.234 104.662Z" fill="#E6E6E6"/>
<path d="M159.96 110.081C160.753 110.081 161.516 109.765 162.31 109.765C163.103 109.765 164.015 110.335 163.891 111.116C163.767 111.897 162.905 112.139 162.179 112.232C160.945 112.396 159.694 112.396 158.459 112.232C158.167 112.226 157.887 112.108 157.678 111.904C157.331 111.451 157.796 110.794 158.298 110.589C158.856 110.481 159.401 110.313 159.923 110.087L159.96 110.081Z" fill="#F0F0F0"/>
<path d="M159.148 168.336C159.328 168.149 159.566 168.031 159.824 168.001C159.993 168.02 160.15 168.095 160.272 168.214C160.393 168.333 160.471 168.49 160.493 168.658C160.53 168.996 160.487 169.338 160.369 169.656C159.83 171.448 153.816 184.437 152.427 182.106C151.609 180.723 153.624 176.16 154.219 174.864C155.364 172.353 157.046 170.124 159.148 168.336Z" fill="#F0F0F0"/>
<path d="M155.552 105.152C155.94 104.052 156.604 103.07 157.48 102.3C158.429 101.612 159.96 101.562 160.642 102.511C161.417 103.571 160.642 105.183 159.458 105.747C158.274 106.311 156.891 106.138 155.589 105.958C155.589 105.766 155.589 105.574 155.558 105.381L155.552 105.152Z" fill="#E6E6E6"/>
<path d="M159.755 203.081C153.313 204.178 146.73 204.178 140.287 203.081L132.717 180.761H167.332L159.755 203.081Z" fill="#F0F0F0"/>
<path d="M155.366 35.9474C162.464 35.9474 168.219 30.1931 168.219 23.0948C168.219 15.9965 162.464 10.2422 155.366 10.2422C148.268 10.2422 142.513 15.9965 142.513 23.0948C142.513 30.1931 148.268 35.9474 155.366 35.9474Z" fill="#E0E0E0"/>
<path d="M167.194 24.6215C168.331 17.615 163.573 11.013 156.567 9.87567C149.56 8.73834 142.958 13.4963 141.821 20.5029C140.684 27.5095 145.442 34.1114 152.448 35.2488C159.455 36.3861 166.057 31.6281 167.194 24.6215Z" fill="#EBEBEB"/>
<path opacity="0.8" d="M164.815 22.642C164.815 24.6825 164.21 26.6771 163.076 28.3737C161.942 30.0703 160.331 31.3926 158.446 32.1735C156.561 32.9543 154.487 33.1586 152.485 32.7606C150.484 32.3625 148.646 31.3799 147.203 29.9371C145.76 28.4942 144.777 26.656 144.379 24.6547C143.981 22.6534 144.186 20.5791 144.966 18.6939C145.747 16.8088 147.07 15.1975 148.766 14.0639C150.463 12.9303 152.457 12.3252 154.498 12.3252C157.234 12.3252 159.858 13.4121 161.793 15.3469C163.728 17.2817 164.815 19.9058 164.815 22.642Z" fill="white"/>
<path d="M153.94 23.6157C153.744 23.4189 153.635 23.1528 153.636 22.8757C153.636 22.5985 153.747 22.3329 153.943 22.137C154.139 21.941 154.404 21.8307 154.681 21.8301C154.958 21.8295 155.225 21.9387 155.421 22.1339C155.519 22.231 155.597 22.3466 155.65 22.4739C155.704 22.6012 155.731 22.7377 155.731 22.8757C155.732 23.0137 155.705 23.1503 155.652 23.2778C155.599 23.4054 155.522 23.5212 155.424 23.6188C155.327 23.7163 155.211 23.7937 155.084 23.8463C154.956 23.899 154.819 23.926 154.681 23.9257C154.543 23.9254 154.407 23.8979 154.28 23.8447C154.152 23.7915 154.037 23.7136 153.94 23.6157Z" fill="#E0E0E0"/>
<path d="M154.498 22.518L160.586 22.332L160.605 22.9644L155.087 23.1318L154.491 32.7294L153.865 32.6922L154.498 22.518Z" fill="#E0E0E0"/>
<path d="M155 230.646C221.392 230.646 275.212 227.504 275.212 223.628C275.212 219.752 221.392 216.609 155 216.609C88.6092 216.609 34.7886 219.752 34.7886 223.628C34.7886 227.504 88.6092 230.646 155 230.646Z" fill="#F5F5F5"/>
<path d="M266.817 190.904L269.966 140.771C270.243 136.362 269.614 131.943 268.117 127.786C266.62 123.63 264.288 119.824 261.264 116.604C258.239 113.384 254.587 110.817 250.532 109.063C246.478 107.309 242.107 106.404 237.689 106.404C229.429 106.405 221.482 109.568 215.479 115.242C209.476 120.917 205.871 128.673 205.406 136.921L202.12 195.474H261.95C263.19 195.473 264.383 195 265.287 194.151C266.191 193.303 266.738 192.142 266.817 190.904Z" fill="#407BFF"/>
<path opacity="0.1" d="M266.928 189.099L269.966 140.783C270.243 136.374 269.614 131.955 268.117 127.798C266.62 123.642 264.288 119.836 261.264 116.616C258.239 113.396 254.587 110.829 250.532 109.075C246.478 107.321 242.107 106.416 237.689 106.416C229.429 106.417 221.482 109.579 215.479 115.254C209.476 120.928 205.871 128.685 205.406 136.932L202.12 195.473H260.146C261.873 195.467 263.534 194.806 264.793 193.623C266.052 192.44 266.815 190.823 266.928 189.099Z" fill="black"/>
<path d="M257.108 195.474L260.543 140.771C260.819 136.362 260.189 131.943 258.692 127.787C257.195 123.631 254.862 119.826 251.838 116.606C248.814 113.386 245.162 110.82 241.108 109.065C237.054 107.311 232.683 106.405 228.266 106.404C220.005 106.404 212.057 109.566 206.053 115.24C200.05 120.915 196.446 128.673 195.982 136.921L192.678 195.474H257.108Z" fill="#407BFF"/>
<path d="M258.137 204.891H258.962C259.184 204.879 259.395 204.788 259.556 204.635C259.718 204.481 259.819 204.275 259.842 204.054L261.082 195.479H256.06L257.3 204.054C257.323 204.268 257.419 204.468 257.571 204.62C257.723 204.773 257.923 204.868 258.137 204.891Z" fill="#407BFF"/>
<path opacity="0.7" d="M258.137 204.891H258.962C259.184 204.879 259.395 204.788 259.556 204.635C259.718 204.481 259.819 204.275 259.842 204.054L261.082 195.479H256.06L257.3 204.054C257.323 204.268 257.419 204.468 257.571 204.62C257.723 204.773 257.923 204.868 258.137 204.891Z" fill="white"/>
<path d="M177.134 204.891H177.878C178.089 204.869 178.286 204.773 178.432 204.62C178.579 204.466 178.666 204.266 178.678 204.054L179.8 195.479H175.237L176.347 204.054C176.359 204.264 176.444 204.463 176.588 204.616C176.732 204.769 176.925 204.867 177.134 204.891Z" fill="#407BFF"/>
<path opacity="0.5" d="M177.134 204.891H177.878C178.089 204.869 178.286 204.773 178.432 204.62C178.579 204.466 178.666 204.266 178.678 204.054L179.8 195.479H175.237L176.347 204.054C176.359 204.264 176.444 204.463 176.588 204.616C176.732 204.769 176.925 204.867 177.134 204.891Z" fill="white"/>
<path d="M200.453 204.891H201.203C201.414 204.869 201.61 204.773 201.757 204.62C201.903 204.466 201.991 204.266 202.003 204.054L203.106 195.479H198.549L199.641 204.054C199.653 204.268 199.742 204.47 199.891 204.624C200.04 204.777 200.239 204.872 200.453 204.891Z" fill="#407BFF"/>
<path opacity="0.7" d="M200.453 204.891H201.203C201.414 204.869 201.61 204.773 201.757 204.62C201.903 204.466 201.991 204.266 202.003 204.054L203.106 195.479H198.549L199.641 204.054C199.653 204.268 199.742 204.47 199.891 204.624C200.04 204.777 200.239 204.872 200.453 204.891Z" fill="white"/>
<path d="M233.027 204.891H233.852C234.075 204.878 234.285 204.787 234.448 204.634C234.61 204.481 234.713 204.276 234.739 204.054L235.979 195.479H230.95L232.19 204.054C232.212 204.269 232.307 204.469 232.46 204.622C232.612 204.774 232.813 204.869 233.027 204.891Z" fill="#407BFF"/>
<path opacity="0.5" d="M233.027 204.891H233.852C234.075 204.878 234.285 204.787 234.448 204.634C234.61 204.481 234.713 204.276 234.739 204.054L235.979 195.479H230.95L232.19 204.054C232.212 204.269 232.307 204.469 232.46 204.622C232.612 204.774 232.813 204.869 233.027 204.891Z" fill="white"/>
<path d="M205.728 174.84H183.681L182.224 153.586L181.908 149.023L181.765 146.921C181.726 146.37 181.653 145.821 181.548 145.278C181.548 145.16 181.499 145.03 181.474 144.912C181.461 144.823 181.438 144.736 181.406 144.652C180.812 142.486 179.654 140.516 178.052 138.942C176.202 137.115 173.757 136.015 171.163 135.842H191.902C192.126 135.842 192.355 135.842 192.584 135.842C195.396 135.854 198.091 136.967 200.093 138.942C201.697 140.515 202.857 142.485 203.453 144.652C203.485 144.736 203.508 144.823 203.521 144.912C203.667 145.574 203.764 146.245 203.813 146.921L203.955 149.023L205.728 174.84Z" fill="#407BFF"/>
<path opacity="0.1" d="M205.728 174.84H183.681L182.224 153.586L181.908 149.023L181.765 146.921C181.726 146.37 181.653 145.821 181.548 145.278C181.548 145.16 181.499 145.03 181.474 144.912C181.461 144.823 181.438 144.736 181.406 144.652C180.812 142.486 179.654 140.516 178.052 138.942C176.202 137.115 173.757 136.015 171.163 135.842H191.902C192.126 135.842 192.355 135.842 192.584 135.842C195.396 135.854 198.091 136.967 200.093 138.942C201.697 140.515 202.857 142.485 203.453 144.652C203.485 144.736 203.508 144.823 203.521 144.912C203.667 145.574 203.764 146.245 203.813 146.921L203.955 149.023L205.728 174.84Z" fill="black"/>
<g opacity="0.1">
<path d="M223.2 163.493H232.054C234.211 163.493 235.953 164.857 235.953 166.537V171.77C235.953 173.457 234.211 174.814 232.054 174.814H223.2V163.493Z" fill="black"/>
</g>
<path d="M187.048 174.814H226.046C227.902 174.814 229.406 173.31 229.406 171.454V166.847C229.406 164.992 227.902 163.487 226.046 163.487H187.048C185.192 163.487 183.688 164.992 183.688 166.847V171.454C183.688 173.31 185.192 174.814 187.048 174.814Z" fill="#407BFF"/>
<path d="M279 148.347C279.005 151.311 277.962 154.182 276.055 156.451C274.147 158.72 271.499 160.242 268.578 160.747L266.315 190.959C266.117 193.526 264.25 195.492 262.018 195.492H237.702C239.934 195.492 241.794 193.526 241.992 190.959L243.232 174.839L244.28 160.728C246.191 160.4 248 159.632 249.563 158.485C251.127 157.338 252.402 155.843 253.289 154.119C253.411 153.9 253.52 153.674 253.617 153.443C254.334 151.84 254.701 150.103 254.696 148.347C254.695 147.487 254.608 146.629 254.436 145.786C254.367 145.451 254.281 145.117 254.188 144.788C253.746 143.311 253.04 141.927 252.104 140.702C250.931 139.174 249.423 137.936 247.695 137.082C245.968 136.229 244.068 135.783 242.141 135.779H266.457C268.406 135.772 270.329 136.227 272.069 137.106C273.769 137.953 275.253 139.176 276.409 140.684C278.096 142.881 279.007 145.576 279 148.347Z" fill="#407BFF"/>
<path opacity="0.1" d="M279 148.347C279.005 151.311 277.962 154.182 276.055 156.451C274.147 158.72 271.499 160.242 268.578 160.747L266.315 190.959C266.117 193.526 264.25 195.492 262.018 195.492H237.702C239.934 195.492 241.794 193.526 241.992 190.959L243.232 174.839L244.28 160.728C246.191 160.4 248 159.632 249.563 158.485C251.127 157.338 252.402 155.843 253.289 154.119C253.411 153.9 253.52 153.674 253.617 153.443C254.334 151.84 254.701 150.103 254.696 148.347C254.695 147.487 254.608 146.629 254.436 145.786C254.367 145.451 254.281 145.117 254.188 144.788C253.746 143.311 253.04 141.927 252.104 140.702C250.931 139.174 249.423 137.936 247.695 137.082C245.968 136.229 244.068 135.783 242.141 135.779H266.457C268.406 135.772 270.329 136.227 272.069 137.106C273.769 137.953 275.253 139.176 276.409 140.684C278.096 142.881 279.007 145.576 279 148.347Z" fill="black"/>
<path d="M254.703 148.353C254.703 154.553 250.617 159.718 245.254 160.753L243.183 190.96C243.003 193.527 241.323 195.498 239.289 195.498H174.35C172.329 195.498 170.63 193.527 170.457 190.96L168.38 160.698C163.122 159.594 159.148 154.498 159.148 148.372C159.136 145.8 159.865 143.279 161.25 141.112C162.297 139.459 163.74 138.093 165.447 137.138C167.001 136.264 168.754 135.805 170.538 135.805C173.35 135.821 176.046 136.933 178.052 138.905C179.654 140.476 180.812 142.444 181.406 144.609C181.438 144.697 181.461 144.788 181.474 144.881C181.621 145.541 181.718 146.21 181.766 146.884L181.915 148.986L183.682 174.84H229.958L231.874 146.94C232.147 142.997 234.069 139.711 236.735 138.154C238.42 136.806 240.478 136.008 242.631 135.867C242.858 135.844 243.085 135.833 243.313 135.836C245.044 135.826 246.75 136.252 248.273 137.076C248.321 137.097 248.366 137.122 248.41 137.15C249.982 138.023 251.331 139.247 252.353 140.727C253.892 142.972 254.711 145.632 254.703 148.353Z" fill="#407BFF"/>
<path opacity="0.1" d="M228.886 195.48H174.326C172.305 195.48 170.606 193.508 170.432 190.941L168.355 160.679C163.098 159.576 159.123 154.479 159.123 148.354C159.111 145.782 159.841 143.261 161.225 141.093C162.273 139.441 163.715 138.075 165.423 137.119C166.977 136.245 168.73 135.786 170.513 135.786C173.326 135.803 176.021 136.915 178.027 138.886C179.63 140.458 180.787 142.426 181.381 144.59C181.414 144.678 181.436 144.77 181.45 144.863C181.596 145.522 181.694 146.192 181.741 146.866L181.89 148.967L183.682 174.84H229.958L228.886 195.48Z" fill="white"/>
<path d="M221.811 109.566C220.732 110.186 219.746 110.701 218.711 111.228C217.676 111.755 216.659 112.239 215.611 112.722C213.528 113.671 211.42 114.582 209.25 115.37C207.063 116.183 204.836 116.887 202.579 117.478C200.23 118.109 197.833 118.538 195.411 118.761L194.897 118.811H194.655C192.466 118.556 190.526 118.191 188.579 117.757C186.632 117.323 184.704 116.895 182.794 116.405C180.885 115.915 178.988 115.413 177.09 114.867C175.193 114.322 173.315 113.758 171.436 113.119L172.298 108.816C176.198 109.064 180.091 109.436 183.948 109.839L189.707 110.416C191.605 110.602 193.545 110.763 195.244 110.825H194.494C196.44 110.478 198.358 109.993 200.235 109.374C202.176 108.754 204.116 108.047 206.057 107.217C207.997 106.386 209.919 105.53 211.829 104.619C212.809 104.172 213.757 103.701 214.687 103.236C215.617 102.771 216.609 102.275 217.459 101.835L221.811 109.566Z" fill="#263238"/>
<path opacity="0.1" d="M221.811 109.566C220.732 110.186 219.746 110.701 218.711 111.228C217.676 111.755 216.659 112.239 215.611 112.722C213.528 113.671 211.42 114.582 209.25 115.37C207.063 116.183 204.836 116.887 202.579 117.478C200.23 118.109 197.833 118.538 195.411 118.761L194.897 118.811H194.655C192.466 118.556 190.526 118.191 188.579 117.757C186.632 117.323 184.704 116.895 182.794 116.405C180.885 115.915 178.988 115.413 177.09 114.867C175.193 114.322 173.315 113.758 171.436 113.119L172.298 108.816C176.198 109.064 180.091 109.436 183.948 109.839L189.707 110.416C191.605 110.602 193.545 110.763 195.244 110.825H194.494C196.44 110.478 198.358 109.993 200.235 109.374C202.176 108.754 204.116 108.047 206.057 107.217C207.997 106.386 209.919 105.53 211.829 104.619C212.809 104.172 213.757 103.701 214.687 103.236C215.617 102.771 216.609 102.275 217.459 101.835L221.811 109.566Z" fill="black"/>
<path d="M171.511 106.453C170.594 105.81 169.581 105.316 168.51 104.99L166.904 111.258L171.715 113.28L172.261 112.61C172.631 112.163 172.906 111.645 173.069 111.088C173.232 110.531 173.28 109.947 173.21 109.37C173.14 108.794 172.953 108.238 172.661 107.737C172.369 107.235 171.977 106.799 171.511 106.453Z" fill="#C58773"/>
<path d="M166.904 111.258L168.51 104.99L164.021 102.541L162.67 106.955L166.904 111.258Z" fill="#C58773"/>
<path opacity="0.2" d="M206.714 115.94H206.888H206.962C209.331 115.685 216.293 114.514 221.328 109.547C220.578 108.097 219.548 106.974 218.29 106.72C214.818 106.063 210.565 108.549 206.714 115.94Z" fill="black"/>
<path d="M210.8 148.347C216.74 132.307 212.834 117.557 213.578 109.392C213.76 107.379 214.594 105.481 215.952 103.984C217.31 102.487 219.119 101.473 221.104 101.096C225.159 100.315 230.175 99.4348 234.955 98.79C236.291 98.6056 237.651 98.7123 238.942 99.1029C240.232 99.4934 241.423 100.159 242.432 101.053C243.442 101.947 244.246 103.048 244.79 104.282C245.333 105.516 245.604 106.853 245.582 108.202C245.167 132.382 237.417 148.347 237.417 148.347L224.893 148.291L210.8 148.347Z" fill="#407BFF"/>
<path opacity="0.8" d="M210.8 148.347C216.74 132.307 212.834 117.557 213.578 109.392C213.76 107.379 214.594 105.481 215.952 103.984C217.31 102.487 219.119 101.473 221.104 101.096C225.159 100.315 230.175 99.4348 234.955 98.79C236.291 98.6056 237.651 98.7123 238.942 99.1029C240.232 99.4934 241.423 100.159 242.432 101.053C243.442 101.947 244.246 103.048 244.79 104.282C245.333 105.516 245.604 106.853 245.582 108.202C245.167 132.382 237.417 148.347 237.417 148.347L224.893 148.291L210.8 148.347Z" fill="white"/>
<path d="M163.283 203.075L161.696 213.51H166.737L170.048 203.075H163.283Z" fill="#C58773"/>
<path d="M161.051 211.184L167.791 211.023C167.843 211.017 167.897 211.022 167.947 211.038C167.998 211.054 168.045 211.08 168.084 211.115C168.124 211.15 168.156 211.193 168.178 211.241C168.2 211.29 168.212 211.342 168.212 211.395V216.355C168.182 216.63 168.053 216.884 167.848 217.07C167.644 217.256 167.379 217.361 167.102 217.366C164.759 217.366 163.643 217.279 160.679 217.366C157.524 217.356 154.372 217.149 151.243 216.746C148.843 216.336 149.494 214.086 150.579 214.049C155.477 213.869 158.218 212.846 159.979 211.569C160.285 211.328 160.662 211.194 161.051 211.184Z" fill="#263238"/>
<path opacity="0.2" d="M162.645 207.26L163.283 203.075H170.048L168.423 208.296L162.645 207.26Z" fill="black"/>
<path d="M207.7 144.59C207.7 144.59 166.687 144.999 166.048 157.988C165.143 176.663 161.987 205.108 161.987 205.108L169.719 207.235C169.719 207.235 180.755 179.006 181.183 164.418C192.721 162.124 222.375 164.418 225.86 156.841C227.563 152.985 228.022 148.695 227.174 144.565L207.7 144.59Z" fill="#407BFF"/>
<path opacity="0.6" d="M207.7 144.59C207.7 144.59 166.687 144.999 166.048 157.988C165.143 176.663 161.987 205.108 161.987 205.108L169.719 207.235C169.719 207.235 180.755 179.006 181.183 164.418C192.721 162.124 222.375 164.418 225.86 156.841C227.563 152.985 228.022 148.695 227.174 144.565L207.7 144.59Z" fill="black"/>
<path d="M199.367 207.111L202.101 214.191H207.632L205.728 206.745L199.367 207.111Z" fill="#C58773"/>
<path opacity="0.2" d="M206.243 208.754L205.17 203.305L198.183 204.173L199.975 208.909L206.243 208.754Z" fill="black"/>
<path d="M200.601 211.848H207.663C207.777 211.839 207.89 211.876 207.977 211.951C208.065 212.025 208.119 212.131 208.128 212.245L208.469 217.533C208.463 217.819 208.344 218.092 208.139 218.291C207.933 218.491 207.658 218.601 207.372 218.6C204.892 218.556 203.739 218.42 200.632 218.42C198.729 218.42 194.873 218.606 192.238 218.606C189.603 218.606 189.677 216.126 190.787 215.934C195.809 214.929 197.749 213.547 199.516 212.214C199.831 211.981 200.21 211.853 200.601 211.848Z" fill="#263238"/>
<path d="M218.73 144.59C218.73 144.59 181.53 147.114 182.447 160.09C183.446 174.301 198.344 207.254 198.344 207.254H205.84C205.84 207.254 200.88 177.357 198.598 162.874C209.089 162.874 233.399 164.455 236.896 156.86C238.592 153.002 239.047 148.712 238.198 144.584L218.73 144.59Z" fill="#407BFF"/>
<path opacity="0.5" d="M218.73 144.59C218.73 144.59 181.53 147.114 182.447 160.09C183.446 174.301 198.344 207.254 198.344 207.254H205.84C205.84 207.254 200.88 177.357 198.598 162.874C209.089 162.874 233.399 164.455 236.896 156.86C238.592 153.002 239.047 148.712 238.198 144.584L218.73 144.59Z" fill="black"/>
<path d="M224.366 92.0203C225.222 95.3311 225.488 99.4603 220.863 101.165C219.58 103.211 218.953 105.369 223.895 104.6C227.828 104.092 231.408 102.067 233.871 98.9581C230.913 96.3665 231.453 88.4181 232.203 83.9355L224.366 92.0203Z" fill="#C58773"/>
<path d="M223.82 98.0459C219.573 98.7713 216.082 102.057 214.21 105.932C212.338 109.807 211.885 114.222 211.922 118.531C211.959 122.84 212.449 127.13 212.331 131.433C212.201 136.393 211.005 139.908 209.293 144.583C209.293 145.693 210.974 146.319 212.393 146.611C215.357 140.144 217.304 133.956 217.099 126.851C216.944 121.693 216.876 115.815 217.719 110.731C218.562 105.647 224.645 99.0069 224.353 98.0893L223.82 98.0459Z" fill="#263238"/>
<path opacity="0.3" d="M227.974 94.4502C227.529 94.7807 227.022 95.0181 226.483 95.148C225.944 95.278 225.384 95.2979 224.837 95.2066C224.847 94.4012 224.789 93.5965 224.663 92.801L229.797 88.585C229.909 89.1329 229.982 89.6882 230.014 90.2466C230.069 91.0642 229.91 91.8821 229.553 92.6194C229.195 93.3567 228.651 93.9878 227.974 94.4502Z" fill="black"/>
<path d="M220.299 72.44C214.874 75.509 214.818 84.1828 216.492 89.18C216.914 90.4913 217.689 91.6612 218.731 92.562C219.773 93.4627 221.043 94.0596 222.402 94.2875C223.76 94.5153 225.156 94.3652 226.435 93.8538C227.714 93.3423 228.828 92.489 229.655 91.3872C232.308 88.033 231.924 84.6478 231.794 78.8198C231.663 72.9918 225.73 69.3772 220.299 72.44Z" fill="#C58773"/>
<path opacity="0.2" d="M222.047 88.0396C220.299 88.7898 218.383 89.7632 216.616 89.5524C217.091 90.809 217.895 91.9149 218.944 92.7549C219.992 93.595 221.247 94.1383 222.577 94.3283C223.907 94.5183 225.263 94.348 226.505 93.8351C227.746 93.3222 228.828 92.4856 229.636 91.4124C231.825 88.6596 232.5 86.7996 231.88 81.79C228.483 85.7704 225.786 86.4276 222.047 88.0396Z" fill="black"/>
<path d="M227.292 74.3997C226.729 75.3149 226.478 76.3884 226.578 77.4585C226.677 78.5285 227.122 79.5374 227.844 80.3331C228.334 80.8477 228.935 81.2445 229.406 81.7715C230.141 82.5983 230.524 83.6796 230.473 84.7847C230.583 84.0737 230.937 83.4232 231.474 82.9447C232.012 82.4662 232.699 82.1895 233.418 82.1621C232.682 84.4395 231.946 86.7129 231.211 88.9821C232.667 88.3028 233.926 87.2628 234.867 85.9608C235.809 84.6588 236.403 83.1378 236.592 81.5421C237.063 77.1401 231.632 67.7099 227.292 74.3997Z" fill="#263238"/>
<path d="M214.632 74.7034C214.217 75.1643 213.921 75.7199 213.77 76.3216C213.698 76.6196 213.718 76.9327 213.829 77.2187C213.94 77.5047 214.136 77.7499 214.39 77.9211C214.86 78.1103 215.379 78.1365 215.866 77.9956L220.826 77.1338C223.665 76.6378 226.505 76.148 229.307 75.4722C230.547 75.1746 231.98 74.6972 232.476 73.5068C234.081 69.6318 227.224 69.1296 224.93 69.235C221.024 69.4396 217.075 71.684 214.632 74.7034Z" fill="#263238"/>
<path d="M232.674 81.1696C231.049 81.5354 230.355 83.8728 230.398 85.3732C230.398 87.0782 231.638 88.188 233.077 87.1588C234.145 86.3647 234.872 85.1947 235.11 83.8852C235.402 82.2794 234.304 80.8038 232.674 81.1696Z" fill="#C58773"/>
<path d="M221.197 87.0905C220.951 87.2545 220.672 87.3623 220.38 87.4063C220.087 87.4502 219.788 87.4292 219.505 87.3447C220.125 85.9435 220.05 86.2597 220.243 83.8789L221.197 87.0905Z" fill="#AC635F"/>
<path d="M224.056 79.3596C223.591 78.8388 222.32 78.6404 221.631 78.7396C221.562 78.7487 221.491 78.7305 221.435 78.6889C221.378 78.6474 221.34 78.5856 221.328 78.5164C221.318 78.442 221.337 78.3669 221.381 78.306C221.425 78.245 221.49 78.2029 221.563 78.1878C222.431 78.0576 223.876 78.318 224.465 78.969C224.516 79.0212 224.544 79.0913 224.544 79.1643C224.544 79.2374 224.516 79.3075 224.465 79.3596C224.43 79.3956 224.388 79.4231 224.341 79.4402C224.29 79.4557 224.237 79.4563 224.186 79.442C224.136 79.4277 224.09 79.3991 224.056 79.3596Z" fill="#263238"/>
<path d="M216.033 80.5185C215.975 80.4783 215.934 80.417 215.921 80.3476C215.907 80.2782 215.92 80.2061 215.959 80.1465C216.176 79.7553 216.481 79.42 216.85 79.1671C217.219 78.9142 217.642 78.7507 218.085 78.6895C218.119 78.6887 218.153 78.6947 218.184 78.7071C218.216 78.7195 218.245 78.7381 218.269 78.7618C218.293 78.7854 218.313 78.8137 218.326 78.845C218.339 78.8763 218.346 78.9098 218.346 78.9437C218.349 79.019 218.323 79.0927 218.274 79.1494C218.224 79.206 218.154 79.2412 218.079 79.2475C217.729 79.3034 217.397 79.4378 217.107 79.6408C216.817 79.8438 216.577 80.11 216.405 80.4193C216.383 80.4597 216.35 80.4939 216.311 80.5188C216.272 80.5437 216.228 80.5585 216.182 80.5619C216.129 80.5663 216.076 80.5508 216.033 80.5185Z" fill="#263238"/>
<path d="M220.72 89.6144C221.316 90.3734 221.865 91.1685 222.363 91.9952L222.747 91.834C224.496 91.0776 224.992 90.0236 225.017 89.0874C224.995 88.3426 224.766 87.6187 224.353 86.998C223.733 88.0706 222.165 88.9262 221.309 89.3416C220.943 89.5214 220.72 89.6144 220.72 89.6144Z" fill="#2E353A"/>
<path d="M221.297 89.3416L221.551 89.6888C221.621 89.782 221.72 89.8491 221.832 89.8795C221.945 89.9098 222.064 89.9016 222.171 89.8562C223.461 89.2362 224.316 88.6162 224.651 87.9156C224.682 87.8496 224.697 87.7776 224.697 87.7048C224.697 87.632 224.682 87.5601 224.651 87.494C224.568 87.322 224.473 87.1562 224.366 86.998C223.715 88.0706 222.152 88.9262 221.297 89.3416Z" fill="white"/>
<path d="M222.735 91.8335C224.484 91.0771 224.98 90.0231 225.005 89.0869C224.34 89.3933 223.75 89.8396 223.275 90.3951C222.947 90.8054 222.758 91.309 222.735 91.8335Z" fill="#DE5753"/>
<path d="M218.023 82.46C217.719 82.5158 217.552 82.9498 217.639 83.4148C217.726 83.8798 218.054 84.2146 218.358 84.1526C218.662 84.0906 218.829 83.669 218.742 83.204C218.656 82.739 218.327 82.46 218.023 82.46Z" fill="#263238"/>
<path d="M223.343 81.6038C223.039 81.6596 222.872 82.0874 222.958 82.5586C223.045 83.0298 223.374 83.3584 223.678 83.2964C223.981 83.2344 224.149 82.8066 224.062 82.3416C223.975 81.8766 223.647 81.548 223.343 81.6038Z" fill="#263238"/>
<path opacity="0.9" d="M215.68 84.9771L219.592 84.0967L219.66 85.7583L216.021 86.6263L215.68 84.9771Z" fill="white"/>
<g opacity="0.8">
<path opacity="0.9" d="M220.782 83.8359L221.247 85.3611L226.269 84.2823L225.971 82.5215L220.782 83.8359Z" fill="white"/>
</g>
<path d="M219.617 84.7101L219.592 84.0963L220.782 83.8359L220.956 84.4125L219.617 84.7101Z" fill="#263238"/>
<path d="M218.191 147.634C218.191 147.634 225.252 150.368 226.871 150.901C228.731 151.629 230.688 152.078 232.68 152.234C233.69 152.302 234.703 152.154 235.651 151.8C236.599 151.446 237.461 150.895 238.179 150.182C239.866 148.384 240.393 145.656 240.833 143.095C242.123 135.577 243.416 128.058 244.714 120.54C245.334 116.82 246.965 111.24 246.828 109.138C246.574 105.232 244.088 100.619 237.758 98.0832C235.278 97.0974 232.866 97.4632 230.795 99.9432C229.555 101.419 225.947 104.978 225.06 111.246C224.353 116.268 223.25 122.772 223.318 127.874C223.399 134.583 220.72 143.039 218.191 147.634Z" fill="#263238"/>
<path d="M246.481 107.073C247.2 113.608 243.586 130.082 242.891 131.074C239.928 140.628 231.787 135.476 230.609 135.035C228.557 134.279 226.468 132.797 224.515 131.811C220.726 129.951 217.137 128.414 213.615 126.076L215.599 122.158C219.462 123.472 230.392 126.3 232.196 126.74C232.978 126.944 236.022 128.538 235.991 126.436C236.419 125.735 237.014 112.089 238.322 107.266C238.471 106.724 238.731 106.22 239.085 105.784L239.202 105.635C239.68 105.037 240.313 104.581 241.032 104.317C241.75 104.054 242.528 103.993 243.279 104.142C244.03 104.29 244.726 104.642 245.291 105.159C245.855 105.676 246.267 106.338 246.481 107.073Z" fill="#263238"/>
<path opacity="0.1" d="M246.481 107.073C247.2 113.608 243.586 130.082 242.891 131.074C239.928 140.628 231.787 135.476 230.609 135.035C228.557 134.279 226.468 132.797 224.515 131.811C220.726 129.951 217.137 128.414 213.615 126.076L215.599 122.158C219.462 123.472 230.392 126.3 232.196 126.74C232.978 126.944 236.022 128.538 235.991 126.436C236.419 125.735 237.014 112.089 238.322 107.266C238.471 106.724 238.731 106.22 239.085 105.784L239.202 105.635C239.68 105.037 240.313 104.581 241.032 104.317C241.75 104.054 242.528 103.993 243.279 104.142C244.03 104.29 244.726 104.642 245.291 105.159C245.855 105.676 246.267 106.338 246.481 107.073Z" fill="white"/>
<path d="M214.049 131.749H195.697L193.602 107.805H211.954L214.049 131.749Z" fill="#263238"/>
<path opacity="0.5" d="M214.049 131.749H195.697L193.602 107.805H211.954L214.049 131.749Z" fill="white"/>
<path d="M213.398 131.632H195.046L192.95 107.688H211.302L213.398 131.632Z" fill="#407BFF"/>
<path opacity="0.8" d="M213.398 131.632H195.046L192.95 107.688H211.302L213.398 131.632Z" fill="white"/>
<path d="M206.119 109.181H198.4L198.14 106.187H205.852L206.119 109.181Z" fill="#407BFF"/>
<path d="M198.14 106.187L198.896 105.927H206.888L206.999 107.198L206.404 107.886L206.367 108.928L206.119 109.182L205.852 106.187H198.14Z" fill="#407BFF"/>
<path opacity="0.5" d="M198.14 106.187L198.896 105.927H206.888L206.999 107.198L206.404 107.886L206.367 108.928L206.119 109.182L205.852 106.187H198.14Z" fill="black"/>
<path d="M217.062 123.454L217.477 125.692C216.485 128.278 210.8 127.596 210.8 127.596V120.98L215.816 122.146C216.127 122.222 216.41 122.386 216.631 122.618C216.851 122.849 217.001 123.14 217.062 123.454Z" fill="#C58773"/>
<path d="M210.788 120.98L210.813 127.608L205.778 127.732L204.625 121.904L210.788 120.98Z" fill="#C58773"/>
<path d="M229.958 174.839L231.874 146.939C232.147 142.996 234.069 139.71 236.735 138.154C238.42 136.806 240.478 136.007 242.631 135.866C242.858 135.843 243.085 135.833 243.313 135.835C245.044 135.826 246.75 136.252 248.273 137.075C248.321 137.096 248.366 137.121 248.41 137.15C249.982 138.023 251.331 139.247 252.353 140.727C253.899 142.978 254.721 145.647 254.709 148.378C254.709 154.578 250.623 159.742 245.26 160.778L243.183 190.959C243.003 193.526 241.323 195.498 239.289 195.498H228.886L229.958 174.839Z" fill="#407BFF"/>
<path opacity="0.1" d="M229.958 174.839L231.874 146.939C232.147 142.996 234.069 139.71 236.735 138.154C238.42 136.806 240.478 136.007 242.631 135.866C242.858 135.843 243.085 135.833 243.313 135.835C245.044 135.826 246.75 136.252 248.273 137.075C248.321 137.096 248.366 137.121 248.41 137.15C249.982 138.023 251.331 139.247 252.353 140.727C253.899 142.978 254.721 145.647 254.709 148.378C254.709 154.578 250.623 159.742 245.26 160.778L243.183 190.959C243.003 193.526 241.323 195.498 239.289 195.498H228.886L229.958 174.839Z" fill="white"/>
<path d="M135.346 45.0121V70.9343C135.346 71.592 135.085 72.2228 134.619 72.6879C134.154 73.153 133.524 73.4143 132.866 73.4143H106.317L96.8314 80.7489C96.5623 80.9522 96.2417 81.0762 95.9059 81.1071C95.57 81.138 95.2322 81.0744 94.9306 80.9236C94.6289 80.7727 94.3754 80.5406 94.1986 80.2534C94.0217 79.9662 93.9287 79.6353 93.9298 79.2981V73.4143H92.448C91.7903 73.4143 91.1595 73.153 90.6944 72.6879C90.2293 72.2228 89.968 71.592 89.968 70.9343V45.0059C89.9696 44.683 90.0352 44.3636 90.161 44.0662C90.2869 43.7688 90.4704 43.4993 90.701 43.2733C90.9316 43.0473 91.2048 42.8693 91.5046 42.7495C91.8045 42.6297 92.1251 42.5706 92.448 42.5755H132.909C133.555 42.5755 134.175 42.8322 134.632 43.2891C135.089 43.7461 135.346 44.3659 135.346 45.0121V45.0121Z" stroke="#407BFF" stroke-miterlimit="10"/>
<path d="M110.484 38.9238H105.419V39.5438H110.484V38.9238Z" fill="#407BFF"/>
<path d="M86.8002 46.2268H86.1802V43.1702C86.1818 42.0416 86.6313 40.9598 87.4299 40.1624C88.2285 39.3649 89.311 38.917 90.4396 38.917H101.742V39.537H90.4272C89.4635 39.5386 88.5397 39.9217 87.8577 40.6026C87.1757 41.2834 86.791 42.2065 86.7878 43.1702L86.8002 46.2268Z" fill="#407BFF"/>
<path d="M122.618 61.5658C122.348 61.5674 122.081 61.5132 121.834 61.4066C121.586 61.3 121.363 61.1434 121.179 60.9466C120.995 60.7498 120.854 60.517 120.764 60.2629C120.675 60.0088 120.639 59.7389 120.658 59.4702C121.322 51.9124 127.311 51.218 128.061 42.6248C128.278 40.1448 127.373 39.2148 125.643 39.2148C123.913 39.2148 122.847 40.151 122.63 42.6248L122.506 44.0384C122.45 44.677 122.157 45.2715 121.684 45.7043C121.211 46.1371 120.593 46.3767 119.952 46.3758C119.597 46.3754 119.246 46.3013 118.921 46.1581C118.596 46.015 118.305 45.8059 118.065 45.5441C117.826 45.2824 117.643 44.9737 117.529 44.6376C117.415 44.3016 117.372 43.9455 117.403 43.592L117.459 42.972C117.943 37.4416 120.937 34.292 126.226 34.292C131.514 34.292 133.951 37.454 133.468 42.972C132.68 51.931 126.139 53.3198 125.581 59.6376C125.584 59.6685 125.584 59.6997 125.581 59.7306C125.553 60.2318 125.334 60.7033 124.97 61.0489C124.606 61.3945 124.124 61.5882 123.622 61.5906L122.618 61.5658ZM125.302 66.8234C125.246 67.4736 124.948 68.079 124.467 68.5199C123.986 68.9608 123.357 69.205 122.704 69.2042C122.343 69.2047 121.985 69.13 121.654 68.9846C121.323 68.8393 121.025 68.6265 120.781 68.36C120.537 68.0934 120.35 67.7789 120.234 67.4364C120.118 67.0939 120.075 66.731 120.107 66.3708C120.163 65.7196 120.461 65.1132 120.944 64.6722C121.426 64.2311 122.057 63.9876 122.71 63.99C123.071 63.9912 123.428 64.0673 123.758 64.2133C124.088 64.3594 124.384 64.5723 124.628 64.8385C124.871 65.1048 125.057 65.4186 125.173 65.7602C125.289 66.1019 125.333 66.4639 125.302 66.8234Z" fill="#407BFF"/>
<path d="M115.63 55.4956H101.37C101.041 55.4956 100.726 55.365 100.493 55.1324C100.261 54.8999 100.13 54.5845 100.13 54.2556C100.13 53.9268 100.261 53.6114 100.493 53.3788C100.726 53.1463 101.041 53.0156 101.37 53.0156H115.63C115.959 53.0156 116.274 53.1463 116.507 53.3788C116.739 53.6114 116.87 53.9268 116.87 54.2556C116.87 54.5845 116.739 54.8999 116.507 55.1324C116.274 55.365 115.959 55.4956 115.63 55.4956Z" fill="#407BFF"/>
<path d="M113.658 60.4068H101.395C101.066 60.4068 100.751 60.2761 100.518 60.0436C100.285 59.811 100.155 59.4956 100.155 59.1668C100.155 58.8379 100.285 58.5225 100.518 58.29C100.751 58.0574 101.066 57.9268 101.395 57.9268H113.658C113.987 57.9268 114.303 58.0574 114.535 58.29C114.768 58.5225 114.898 58.8379 114.898 59.1668C114.898 59.4956 114.768 59.811 114.535 60.0436C114.303 60.2761 113.987 60.4068 113.658 60.4068Z" fill="#407BFF"/>
<path d="M111.687 65.3111H101.395C101.066 65.3111 100.751 65.1804 100.518 64.9479C100.285 64.7153 100.155 64.3999 100.155 64.0711C100.155 63.7422 100.285 63.4268 100.518 63.1942C100.751 62.9617 101.066 62.8311 101.395 62.8311H111.687C112.016 62.8311 112.331 62.9617 112.564 63.1942C112.796 63.4268 112.927 63.7422 112.927 64.0711C112.927 64.3999 112.796 64.7153 112.564 64.9479C112.331 65.1804 112.016 65.3111 111.687 65.3111Z" fill="#407BFF"/>
<path d="M82.5102 166.476H73.452C71.2448 166.476 69.4592 167.871 69.4592 169.576V174.932C69.4592 176.656 71.2448 178.032 73.452 178.032H82.5102V166.476Z" fill="#407BFF"/>
<path d="M40.412 191.704L37.2624 141.57C36.9854 137.162 37.6146 132.744 39.1111 128.588C40.6076 124.432 42.9397 120.627 45.9635 117.408C48.9873 114.188 52.6387 111.622 56.6925 109.868C60.7463 108.115 65.1164 107.21 69.5334 107.21C77.795 107.209 85.7436 110.371 91.748 116.046C97.7524 121.72 101.357 129.478 101.823 137.726L105.121 196.279H45.2604C44.0226 196.274 42.8331 195.798 41.9329 194.948C41.0327 194.099 40.489 192.939 40.412 191.704Z" fill="#407BFF"/>
<path opacity="0.1" d="M40.3004 189.887L37.2624 141.57C36.9854 137.162 37.6146 132.744 39.1111 128.588C40.6076 124.432 42.9397 120.627 45.9635 117.408C48.9873 114.188 52.6387 111.622 56.6925 109.868C60.7463 108.115 65.1164 107.21 69.5334 107.21C77.795 107.209 85.7436 110.371 91.748 116.046C97.7524 121.72 101.357 129.478 101.823 137.726L105.121 196.279H47.1204C45.3833 196.283 43.7104 195.623 42.4431 194.435C41.1757 193.247 40.4093 191.621 40.3004 189.887Z" fill="black"/>
<path d="M50.1212 196.279L46.6864 141.57C46.4094 137.162 47.0388 132.743 48.5357 128.587C50.0326 124.431 52.3652 120.625 55.3897 117.406C58.4142 114.186 62.0664 111.62 66.1208 109.867C70.1753 108.113 74.5462 107.209 78.9636 107.21C87.2242 107.211 95.1712 110.373 101.174 116.048C107.177 121.722 110.781 129.479 111.247 137.726L114.552 196.279H50.1212Z" fill="#407BFF"/>
<path d="M49.0923 205.697H48.2677C48.0446 205.683 47.8336 205.59 47.6716 205.436C47.5096 205.282 47.4068 205.076 47.3811 204.854L46.1411 196.279H51.1693L49.9293 204.854C49.9078 205.069 49.8128 205.27 49.6604 205.424C49.508 205.578 49.3074 205.674 49.0923 205.697Z" fill="#407BFF"/>
<path opacity="0.7" d="M49.0923 205.697H48.2677C48.0446 205.683 47.8336 205.59 47.6716 205.436C47.5096 205.282 47.4068 205.076 47.3811 204.854L46.1411 196.279H51.1693L49.9293 204.854C49.9078 205.069 49.8128 205.27 49.6604 205.424C49.508 205.578 49.3074 205.674 49.0923 205.697Z" fill="white"/>
<path d="M130.095 205.697H129.345C129.133 205.674 128.937 205.577 128.79 205.422C128.644 205.268 128.557 205.066 128.545 204.854L127.441 196.279H131.998L130.895 204.854C130.883 205.066 130.796 205.268 130.649 205.422C130.503 205.577 130.306 205.674 130.095 205.697Z" fill="#407BFF"/>
<path opacity="0.5" d="M130.095 205.697H129.345C129.133 205.674 128.937 205.577 128.79 205.422C128.644 205.268 128.557 205.066 128.545 204.854L127.441 196.279H131.998L130.895 204.854C130.883 205.066 130.796 205.268 130.649 205.422C130.503 205.577 130.306 205.674 130.095 205.697Z" fill="white"/>
<path d="M106.777 205.697H106.02C105.809 205.674 105.612 205.577 105.466 205.422C105.32 205.268 105.233 205.066 105.221 204.854L104.111 196.279H108.674L107.57 204.854C107.558 205.065 107.471 205.265 107.326 205.419C107.181 205.573 106.987 205.671 106.777 205.697Z" fill="#407BFF"/>
<path opacity="0.7" d="M106.777 205.697H106.02C105.809 205.674 105.612 205.577 105.466 205.422C105.32 205.268 105.233 205.066 105.221 204.854L104.111 196.279H108.674L107.57 204.854C107.558 205.065 107.471 205.265 107.326 205.419C107.181 205.573 106.987 205.671 106.777 205.697Z" fill="white"/>
<path d="M74.2022 205.697H73.3776C73.154 205.684 72.9424 205.592 72.7802 205.438C72.6179 205.283 72.5155 205.076 72.491 204.854L71.251 196.279H76.2792L75.0392 204.854C75.0176 205.069 74.9227 205.27 74.7703 205.424C74.6179 205.578 74.4173 205.674 74.2022 205.697Z" fill="#407BFF"/>
<path opacity="0.5" d="M74.2022 205.697H73.3776C73.154 205.684 72.9424 205.592 72.7802 205.438C72.6179 205.283 72.5155 205.076 72.491 204.854L71.251 196.279H76.2792L75.0392 204.854C75.0176 205.069 74.9227 205.27 74.7703 205.424C74.6179 205.578 74.4173 205.674 74.2022 205.697Z" fill="white"/>
<path d="M101.5 175.615H123.548L125.005 154.38L125.315 149.817L125.463 147.715C125.502 147.163 125.572 146.615 125.674 146.072C125.674 145.954 125.73 145.83 125.755 145.712C125.768 145.621 125.791 145.532 125.823 145.446C126.417 143.281 127.575 141.313 129.177 139.742C131.025 137.916 133.468 136.815 136.059 136.642H115.32C115.091 136.642 114.868 136.642 114.638 136.642C111.825 136.656 109.129 137.768 107.124 139.742C105.521 141.313 104.364 143.281 103.77 145.446C103.738 145.532 103.715 145.621 103.701 145.712C103.556 146.372 103.458 147.041 103.41 147.715L103.267 149.817L101.5 175.615Z" fill="#407BFF"/>
<path opacity="0.1" d="M101.5 175.615H123.548L125.005 154.38L125.315 149.817L125.463 147.715C125.502 147.163 125.572 146.615 125.674 146.072C125.674 145.954 125.73 145.83 125.755 145.712C125.768 145.621 125.791 145.532 125.823 145.446C126.417 143.281 127.575 141.313 129.177 139.742C131.025 137.916 133.468 136.815 136.059 136.642H115.32C115.091 136.642 114.868 136.642 114.638 136.642C111.825 136.656 109.129 137.768 107.124 139.742C105.521 141.313 104.364 143.281 103.77 145.446C103.738 145.532 103.715 145.621 103.701 145.712C103.556 146.372 103.458 147.041 103.41 147.715L103.267 149.817L101.5 175.615Z" fill="black"/>
<g opacity="0.1">
<path d="M84.0295 164.3H75.1697C73.0183 164.3 71.2761 165.664 71.2761 167.344V172.583C71.2761 174.263 73.0183 175.627 75.1697 175.627H84.0295V164.3Z" fill="black"/>
</g>
<path d="M120.181 164.293H81.1829C79.327 164.293 77.8225 165.797 77.8225 167.653V172.26C77.8225 174.116 79.327 175.62 81.1829 175.62H120.181C122.037 175.62 123.541 174.116 123.541 172.26V167.653C123.541 165.797 122.037 164.293 120.181 164.293Z" fill="#407BFF"/>
<path d="M28.2105 149.153C28.2052 152.117 29.2485 154.988 31.1558 157.257C33.0632 159.526 35.7116 161.048 38.6327 161.553L40.9205 191.74C41.1189 194.307 42.9789 196.279 45.2109 196.279H69.5335C67.3015 196.279 65.4415 194.307 65.2431 191.74L64.0031 175.62L62.9367 161.54C61.0284 161.206 59.2233 160.435 57.6626 159.288C56.1019 158.14 54.828 156.647 53.9405 154.925C53.8227 154.702 53.7173 154.472 53.6181 154.243C52.8988 152.643 52.5289 150.907 52.5331 149.153C52.5333 148.29 52.6226 147.43 52.7997 146.586C52.8679 146.251 52.9547 145.916 53.0415 145.594C53.4864 144.115 54.1942 142.729 55.1309 141.502C56.2896 139.998 57.7732 138.775 59.4709 137.924C61.2023 137.054 63.113 136.6 65.0509 136.598H40.7717C39.5103 136.597 38.2561 136.787 37.0517 137.162C34.5712 137.927 32.3896 139.443 30.8083 141.502C29.1213 143.695 28.2079 146.386 28.2105 149.153Z" fill="#407BFF"/>
<path opacity="0.1" d="M28.2105 149.153C28.2052 152.117 29.2485 154.988 31.1558 157.257C33.0632 159.526 35.7116 161.048 38.6327 161.553L40.9205 191.74C41.1189 194.307 42.9789 196.279 45.2109 196.279H69.5335C67.3015 196.279 65.4415 194.307 65.2431 191.74L64.0031 175.62L62.9367 161.54C61.0284 161.206 59.2233 160.435 57.6626 159.288C56.1019 158.14 54.828 156.647 53.9405 154.925C53.8227 154.702 53.7173 154.472 53.6181 154.243C52.8988 152.643 52.5289 150.907 52.5331 149.153C52.5333 148.29 52.6226 147.43 52.7997 146.586C52.8679 146.251 52.9547 145.916 53.0415 145.594C53.4864 144.115 54.1942 142.729 55.1309 141.502C56.2896 139.998 57.7732 138.775 59.4709 137.924C61.2023 137.054 63.113 136.6 65.0509 136.598H40.7717C39.5103 136.597 38.2561 136.787 37.0517 137.162C34.5712 137.927 32.3896 139.443 30.8083 141.502C29.1213 143.695 28.2079 146.386 28.2105 149.153Z" fill="black"/>
<path d="M52.527 149.153C52.527 155.353 56.6128 160.523 61.9758 161.553L64.0466 191.765C64.2264 194.338 65.9066 196.304 67.9402 196.304H132.879C134.9 196.304 136.599 194.338 136.773 191.765L138.85 161.509C144.101 160.406 148.075 155.309 148.075 149.177C148.09 146.606 147.362 144.085 145.98 141.917C144.929 140.265 143.485 138.899 141.776 137.943C140.222 137.075 138.472 136.618 136.692 136.616C133.879 136.629 131.182 137.742 129.178 139.716C127.574 141.288 126.415 143.256 125.817 145.42C125.79 145.507 125.769 145.597 125.755 145.687C125.607 146.346 125.509 147.015 125.464 147.689L125.315 149.791L123.548 175.608H77.2712L75.3554 147.708C75.0764 143.765 73.1606 140.479 70.4946 138.923C68.807 137.579 66.7505 136.781 64.5984 136.635C64.369 136.635 64.1458 136.635 63.9164 136.635C62.1852 136.625 60.4795 137.052 58.9564 137.875C58.9066 137.892 58.8588 137.915 58.8138 137.943C57.2453 138.821 55.897 140.045 54.8706 141.52C53.3302 143.766 52.5125 146.429 52.527 149.153Z" fill="#407BFF"/>
<path opacity="0.1" d="M78.3374 196.279H132.897C134.919 196.279 136.617 194.314 136.791 191.741L138.868 161.485C144.119 160.381 148.094 155.285 148.094 149.153C148.108 146.582 147.38 144.061 145.998 141.893C144.948 140.24 143.503 138.875 141.794 137.919C140.241 137.05 138.49 136.593 136.71 136.592C133.897 136.605 131.2 137.717 129.196 139.692C127.592 141.263 126.433 143.231 125.836 145.396C125.808 145.483 125.788 145.572 125.774 145.662C125.625 146.321 125.528 146.991 125.482 147.665L125.333 149.767L123.566 175.584H77.271L78.3374 196.279Z" fill="white"/>
<path d="M94.9414 206.95L100.23 208.413L104.979 195.982L99.6906 194.519L94.9414 206.95Z" fill="#C58773"/>
<path d="M102.598 206.764C102.181 206.223 101.577 205.856 100.905 205.734L95.4803 204.674C95.3537 204.637 95.2177 204.652 95.1017 204.715C94.9857 204.777 94.899 204.883 94.8603 205.009L93.1801 209.969C93.132 210.104 93.111 210.247 93.1184 210.389C93.1257 210.532 93.1612 210.672 93.2229 210.801C93.2846 210.93 93.3711 211.046 93.4776 211.142C93.5841 211.237 93.7085 211.311 93.8435 211.358H93.8807C95.8895 212.151 97.2473 211.879 100.384 212.486C102.325 212.858 106.386 214.148 109.102 214.036C111.817 213.925 111.811 211.24 110.67 211.042C106.64 210.422 103.54 207.991 102.598 206.764Z" fill="#263238"/>
<g opacity="0.2">
<path d="M104.979 195.988L102.53 202.399L97.2415 200.923L99.6843 194.519L104.979 195.988Z" fill="black"/>
</g>
<path d="M87.3275 148.8C87.3275 148.8 119.171 148.626 118.179 159.29C117.509 166.495 114.049 174.065 111.359 181.375C107.446 191.97 104.055 201.215 104.055 201.215L96.8011 198.704C96.8011 198.704 103.317 168.063 107.707 164.926H80.7802C71.8708 164.926 68.0206 155.142 76.6944 143.734C81.9954 143.753 87.3275 148.8 87.3275 148.8Z" fill="#407BFF"/>
<path opacity="0.6" d="M87.3275 148.799C87.3275 148.799 119.171 148.626 118.179 159.29C118.668 165.918 104.049 201.202 104.049 201.202L96.7948 198.691C96.7948 198.691 103.311 168.05 107.701 164.913H80.7802C71.8708 164.913 68.0206 155.13 76.6944 143.722C81.9954 143.753 87.3275 148.799 87.3275 148.799Z" fill="black"/>
<path d="M109.784 129.437C105.866 133.014 98.1713 124.545 96.9313 123.541C94.2777 121.371 86.4781 114.092 86.8873 111.562C88.1273 104.122 100.329 114.662 103.857 121.929L109.784 129.437Z" fill="#263238"/>
<path d="M75.4917 107.049C73.5263 107.464 71.3997 106.758 70.0171 108.215C68.6345 109.672 68.0579 111.718 67.8595 113.714C67.685 116.503 67.8306 119.303 68.2935 122.059C68.7069 125.42 69.1388 128.778 69.5893 132.134C69.8689 134.899 69.7624 137.689 69.2731 140.424C69.2215 140.714 69.2678 141.014 69.4047 141.275C69.5416 141.537 69.7613 141.745 70.0295 141.868C70.0295 141.868 85.2753 142.389 89.7083 142.222C92.0643 142.135 90.4461 135.935 91.1715 132.302C91.3327 131.496 92.9075 128.185 93.1431 127.342C94.2343 123.343 93.5089 120.59 92.5231 116.572C91.7853 113.652 91.4815 109.442 89.9935 109.132C87.3151 108.58 80.9601 105.883 75.4917 107.049Z" fill="#407BFF"/>
<path opacity="0.8" d="M75.4917 107.049C73.5263 107.464 71.3997 106.758 70.0171 108.215C68.6345 109.672 68.0579 111.718 67.8595 113.714C67.685 116.503 67.8306 119.303 68.2935 122.059C68.7069 125.42 69.1388 128.778 69.5893 132.134C69.8689 134.899 69.7624 137.689 69.2731 140.424C69.2215 140.714 69.2678 141.014 69.4047 141.275C69.5416 141.537 69.7613 141.745 70.0295 141.868C70.0295 141.868 85.2753 142.389 89.7083 142.222C92.0643 142.135 90.4461 135.935 91.1715 132.302C91.3327 131.496 92.9075 128.185 93.1431 127.342C94.2343 123.343 93.5089 120.59 92.5231 116.572C91.7853 113.652 91.4815 109.442 89.9935 109.132C87.3151 108.58 80.9601 105.883 75.4917 107.049Z" fill="white"/>
<path d="M73.3156 109.913C73.111 109.603 67.7356 105.09 66.7746 110.304C65.4168 117.564 68.2254 124.706 68.2254 124.706C68.2254 124.706 68.8454 132.562 71.1518 133.349C73.4582 134.137 75.6034 134.329 76.3722 132.983C76.8693 131.935 77.1317 130.79 77.141 129.629C77.141 129.629 76.8806 115.32 73.3156 109.913Z" fill="#263238"/>
<path d="M77.0294 97.085C77.5812 100.427 78.0462 106.534 75.6592 108.685C75.6592 108.685 81.4934 111.742 85.325 117.074C86.1757 116.439 86.8049 115.552 87.1232 114.539C87.4415 113.527 87.4327 112.439 87.0982 111.432C86.9061 110.796 86.5873 110.206 86.1611 109.696C85.7349 109.187 85.2101 108.769 84.6182 108.468C82.3552 107.228 82.5722 104.885 83.1922 102.69L77.0294 97.085Z" fill="#C58773"/>
<path opacity="0.2" d="M77.7917 102.759L79.9679 103.596C80.8997 103.956 81.8967 104.116 82.8943 104.067C82.7391 104.749 82.7391 105.456 82.8943 106.138C82.1141 106.351 81.2888 106.334 80.5184 106.087C79.748 105.84 79.0657 105.376 78.5543 104.749C78.2026 104.127 77.9456 103.456 77.7917 102.759Z" fill="black"/>
<path d="M131.812 196.261H137.74L131.533 181.399L127.516 188.219L131.812 196.261Z" fill="#C58773"/>
<path d="M137.25 194.854L130.3 193.273C130.181 193.243 130.055 193.259 129.947 193.317C129.839 193.376 129.757 193.473 129.717 193.589L127.777 198.933C127.738 199.068 127.726 199.209 127.742 199.348C127.757 199.488 127.8 199.623 127.868 199.745C127.936 199.868 128.028 199.976 128.138 200.063C128.247 200.151 128.373 200.215 128.508 200.254C130.945 200.762 132.141 200.874 135.198 201.574C137.058 202.002 141.844 203.255 144.442 203.844C147.04 204.433 147.722 201.891 146.687 201.407C142.049 199.262 139.538 197.21 138.193 195.461C137.958 195.156 137.625 194.942 137.25 194.854Z" fill="#263238"/>
<g opacity="0.2">
<path d="M131.533 181.399L134.175 187.73L128.843 190.706L127.516 188.226L131.533 181.399Z" fill="black"/>
</g>
<path d="M69.1553 141.936L68.5353 143.957C68.4547 144.112 68.6345 144.273 68.8949 144.286L91.8349 144.98C92.0457 144.98 92.2131 144.893 92.2317 144.763L92.4983 142.729C92.4983 142.593 92.3371 142.469 92.1201 142.457L69.5521 141.775C69.4776 141.763 69.4012 141.772 69.3313 141.8C69.2614 141.828 69.2006 141.875 69.1553 141.936Z" fill="#263238"/>
<path d="M97.849 158.522C90.3036 161.739 82.1196 164.951 77.668 164.951C68.7524 164.951 60.835 158.515 69.2732 143.871C74.5804 143.871 83.7998 144.02 83.7998 144.02C83.7998 144.02 101.16 139.06 113.795 140.523C116.79 140.872 119.596 142.162 121.812 144.206C124.027 146.25 125.538 148.944 126.127 151.9C129.326 168.02 134.255 185.454 134.255 185.454L127.913 189.794C127.913 189.794 118.024 169.006 112.332 152.52C109.319 153.469 103.782 155.992 97.849 158.522Z" fill="#407BFF"/>
<path opacity="0.5" d="M126.127 151.899C125.54 148.941 124.03 146.244 121.814 144.198C119.599 142.151 116.791 140.86 113.795 140.51C101.184 139.071 83.7994 144.007 83.7994 144.007C83.7994 144.007 74.58 143.839 69.2728 143.858C60.6982 158.44 68.752 164.938 77.6676 164.938C82.1192 164.938 90.3032 161.726 97.8486 158.508C103.782 155.979 109.319 153.455 112.332 152.488C118.023 168.993 127.912 189.787 127.912 189.787L134.255 185.447C134.255 185.447 129.326 168.019 126.127 151.899Z" fill="black"/>
<path d="M118.179 159.339C117.977 161.41 117.667 163.47 117.249 165.508C117.218 165.44 117.193 165.378 117.168 165.31C117.144 165.242 117.168 165.279 117.168 165.26C117.148 165.192 117.121 165.125 117.088 165.062C115.401 160.871 113.752 156.574 112.357 152.525H112.401C116.009 154.057 118.47 156.239 118.179 159.339Z" fill="#407BFF"/>
<path opacity="0.6" d="M118.179 159.339C117.977 161.41 117.667 163.47 117.249 165.508C117.218 165.44 117.193 165.378 117.168 165.31C117.144 165.242 117.168 165.279 117.168 165.26C117.148 165.192 117.121 165.125 117.088 165.062C115.401 160.871 113.752 156.574 112.357 152.525H112.401C116.009 154.057 118.47 156.239 118.179 159.339Z" fill="black"/>
<path d="M72.9619 93.8738C74.8219 99.1128 75.5039 101.37 78.9883 103.335C84.2397 106.299 90.2537 102.851 89.9933 97.135C89.7577 92.02 86.7507 84.3072 80.9227 83.6872C79.637 83.5425 78.3356 83.7293 77.1424 84.2297C75.9492 84.7301 74.9039 85.5275 74.106 86.5461C73.3081 87.5646 72.7841 88.7704 72.5838 90.0487C72.3835 91.327 72.5137 92.6352 72.9619 93.849V93.8738Z" fill="#C58773"/>
<path d="M82.3797 93.1916C82.5099 93.6442 82.8385 93.9108 83.1237 93.8116C83.4089 93.7124 83.5205 93.3156 83.4089 92.8754C83.2973 92.4352 82.9563 92.1562 82.6649 92.2554C82.3735 92.3546 82.2557 92.7576 82.3797 93.1916Z" fill="#263238"/>
<path d="M87.2469 91.6545C87.3771 92.1133 87.7057 92.3799 87.9909 92.2745C88.2761 92.1691 88.3877 91.7785 88.2761 91.3383C88.1645 90.8981 87.8173 90.6191 87.5383 90.7183C87.2593 90.8175 87.1229 91.2267 87.2469 91.6545Z" fill="#263238"/>
<path d="M87.4204 90.786L88.3752 90.166C88.3752 90.166 88.0714 91.1394 87.4204 90.786Z" fill="#263238"/>
<path d="M85.5049 92.6465C86.1757 93.5271 86.9643 94.3115 87.8485 94.9777C87.6709 95.1971 87.4472 95.3748 87.1933 95.498C86.9393 95.6213 86.6613 95.687 86.3791 95.6907L85.5049 92.6465Z" fill="#AC635F"/>
<path d="M69.5399 97.3393C69.9208 98.2826 70.2094 99.2606 70.4017 100.26C70.4545 101.264 70.1313 102.253 69.4952 103.032C68.8591 103.811 67.9555 104.326 66.9607 104.476C67.8271 104.706 68.7466 104.631 69.5635 104.261C70.3804 103.892 71.0445 103.251 71.4433 102.448C70.9693 103.71 70.0312 104.744 68.8207 105.337C69.6859 105.347 70.5416 105.156 71.3213 104.781C72.1009 104.406 72.7834 103.856 73.3157 103.174C73.0243 103.93 72.6957 104.68 72.4353 105.437C73.9075 104.545 75.1164 103.278 75.9383 101.766C76.2669 101.146 76.5149 100.34 76.0809 99.7945C75.6469 99.2489 74.9587 99.2861 74.3263 99.2737C73.6939 99.2613 72.9313 99.1125 72.7019 98.5235C72.4725 97.9345 72.8941 97.3455 73.3529 96.9425C73.8117 96.5395 74.3635 96.1675 74.5309 95.5785C74.6103 95.1523 74.5804 94.7129 74.4441 94.3013C74.1589 93.1605 73.8778 92.0177 73.6009 90.8727C73.5256 90.4686 73.3809 90.0805 73.1731 89.7257C71.9331 87.8657 70.5505 90.5937 70.0731 91.5175C69.1795 93.3249 68.9894 95.3998 69.5399 97.3393Z" fill="#263238"/>
<path d="M72.5965 99.0072C73.2987 99.92 74.3323 100.519 75.4733 100.675C76.9923 100.861 77.5255 99.435 76.9179 98.1392C76.3661 96.9488 74.9153 95.4298 73.4831 95.8328C72.0509 96.2358 71.7409 97.8664 72.5965 99.0072Z" fill="#C58773"/>
<path d="M82.4603 89.4465C82.4502 89.5043 82.4229 89.5577 82.382 89.5997C82.3411 89.6418 82.2884 89.6704 82.2309 89.6821C80.9909 89.9177 80.2717 91.4119 80.2717 91.4243C80.2405 91.4919 80.1842 91.5446 80.1147 91.5713C80.0452 91.5979 79.968 91.5963 79.8997 91.5669C79.8336 91.5358 79.7823 91.4802 79.7568 91.4118C79.7313 91.3434 79.7337 91.2678 79.7633 91.2011C79.8191 91.1453 80.5879 89.4279 82.1255 89.1303C82.1976 89.1192 82.2712 89.1362 82.3311 89.1777C82.3911 89.2192 82.4329 89.2821 82.4479 89.3535C82.4611 89.3825 82.4655 89.4149 82.4603 89.4465Z" fill="#263238"/>
<path d="M85.7714 88.2068C85.73 88.2003 85.6877 88.2025 85.6471 88.2131C85.6066 88.2238 85.5687 88.2427 85.5358 88.2688C85.4676 88.3432 85.2382 88.4734 85.3684 88.5416C86.1248 88.926 87.1726 89.5584 87.9786 89.4282C88.115 89.4282 88.4374 89.2856 88.3692 89.1864C88.3226 89.1364 88.2638 89.0992 88.1987 89.0786C88.1335 89.0579 88.0641 89.0545 87.9972 89.0686C87.3772 89.1554 86.503 88.554 85.9078 88.244C85.8641 88.2258 85.8182 88.2133 85.7714 88.2068Z" fill="#263238"/>
<path d="M82.5474 92.3173L83.5084 91.6973C83.5084 91.6973 83.2046 92.6831 82.5474 92.3173Z" fill="#263238"/>
<path d="M82.4606 81.3933C80.3464 81.0089 80.0736 80.8663 77.9284 81.0027C75.7617 81.0706 73.6666 81.7949 71.9206 83.0797C70.2895 84.428 69.1388 86.2682 68.6408 88.3249C68.1534 90.3743 68.0985 92.5027 68.4796 94.5745C68.548 95.5641 68.9758 96.4947 69.6824 97.1909C69.7544 96.0768 69.9435 94.9733 70.2466 93.8987C70.5627 92.814 71.2138 91.857 72.1066 91.1645C72.5007 90.9514 72.8402 90.6501 73.0986 90.2841C73.2328 89.9223 73.3081 89.5414 73.3218 89.1557C73.5162 88.2877 74.0353 87.5268 74.7726 87.0291C75.5049 86.5431 76.2888 86.1397 77.11 85.8263C79.7202 84.7041 82.566 84.0593 84.9716 82.5465C84.1845 82.0616 83.3413 81.6744 82.4606 81.3933Z" fill="#263238"/>
<path d="M71.6418 89.6888C72.2095 90.3782 72.9866 90.8636 73.8552 91.0714C74.8844 91.307 77.4574 91.245 77.6124 90.9784C77.7674 90.7118 76.8498 87.8226 75.8082 87.649C76.5267 88.3426 77.3849 88.8753 78.3254 89.2114C79.3895 89.4241 80.4852 89.4241 81.5494 89.2114C82.095 89.0874 80.8736 86.8306 79.987 86.1858C82.6592 86.7438 85.4864 87.3824 87.427 89.2858C89.3676 91.1892 90.2046 94.2024 90.1054 97.011C90.5601 96.6447 90.9254 96.1796 91.1736 95.6511C91.4217 95.1225 91.5462 94.5444 91.5376 93.9606C92.0057 95.4128 92.1772 96.9443 92.0419 98.4642C91.9067 99.984 91.4674 101.461 90.7502 102.808C93.5898 100.477 94.65 96.4034 93.906 92.8074C93.162 89.2114 90.806 86.0804 87.9478 83.7802C85.4678 81.8148 82.5166 80.3454 79.3732 80.271C75.2502 80.147 67.6118 84.8342 71.6418 89.6888Z" fill="#263238"/>
<path d="M74.9833 106.267C74.9833 106.062 75.0329 105.79 75.0577 105.504C75.1118 104.85 74.9212 104.198 74.5226 103.676C74.124 103.154 73.5459 102.798 72.9001 102.677C72.7084 102.643 72.5292 102.558 72.381 102.432C72.2328 102.306 72.121 102.142 72.0569 101.958C71.5795 100.569 71.3935 100.148 70.9347 98.7837C69.6947 98.4799 68.2005 98.9449 66.9047 99.0813C66.5454 100.637 66.52 102.252 66.8303 103.818C66.88 104.168 67.0164 104.501 67.2271 104.785C68.4037 105.749 69.7051 106.55 71.0959 107.166C72.2119 107.507 73.7805 106.372 74.9833 106.267Z" fill="#C58773"/>
<path d="M71.2261 107.198C71.2261 107.198 67.8099 129.239 71.3315 132.618C73.3961 134.589 75.1817 133.498 76.2915 132.264C76.6983 131.804 77.0044 131.265 77.1902 130.68C77.376 130.094 77.4373 129.477 77.3703 128.867L74.9709 106.286C74.9709 106.286 72.6149 104.891 71.2261 107.198Z" fill="#C58773"/>
<path d="M107.93 127.1C109.333 125.875 110.339 124.261 110.819 122.462C110.929 121.828 110.97 121.183 110.943 120.54C110.912 116.547 109.784 109.225 109.784 109.225L106.541 108.152C106.541 108.152 105.531 113.732 105.301 116.783C105.258 117.403 105.19 118.091 105.115 118.841C104.973 120.205 104.799 121.706 104.644 122.952L107.93 127.1Z" fill="#C58773"/>
<path d="M109.784 129.437C110.782 128.525 110.95 127.422 111.464 125.097C111.954 122.877 111.402 120.137 110.944 120.552C110.886 120.604 110.843 120.671 110.82 120.744C110.032 122.604 106.969 120.974 106.101 120.044C105.728 119.688 105.399 119.289 105.122 118.853C105.008 118.687 104.947 118.491 104.947 118.289C104.947 118.088 105.008 117.891 105.122 117.725C104.179 117.334 103.423 121.042 103.882 121.953L104.117 122.642C104.491 123.758 105.067 124.796 105.816 125.704L107.521 127.757L109.784 129.437Z" fill="#263238"/>
<path d="M106.454 108.617L106.07 102.95C107.073 103.427 108.109 103.831 109.17 104.159C110.745 104.699 112.89 103.75 112.394 104.779C111.603 106.31 110.721 107.793 109.753 109.218L106.454 108.617Z" fill="#C58773"/>
<path d="M106.07 102.95L108.5 97.2773L111.675 99.2179C112.549 101.115 112.444 104.798 112.444 104.798C112.444 104.798 108.029 104.972 106.07 102.95Z" fill="#C58773"/>
<path d="M85.1327 98.5792C85.2133 98.9822 85.5047 99.2674 85.7527 99.1992C86.0007 99.131 86.1557 98.7714 86.0689 98.3684C85.9821 97.9654 85.6969 97.6802 85.4489 97.7484C85.2009 97.8166 85.0459 98.201 85.1327 98.5792Z" fill="#263238"/>
<path d="M77.2712 175.615L75.3554 147.715C75.0764 143.772 73.1606 140.486 70.4946 138.93C68.8069 137.586 66.7504 136.788 64.5984 136.642C64.369 136.642 64.1458 136.642 63.9164 136.642C62.1852 136.632 60.4794 137.059 58.9564 137.882C58.9066 137.899 58.8588 137.922 58.8138 137.95C57.2453 138.828 55.8969 140.051 54.8706 141.527C53.3221 143.777 52.4999 146.447 52.5146 149.178C52.5146 155.378 56.6004 160.549 61.9634 161.578L64.0342 191.791C64.214 194.364 65.8942 196.329 67.9278 196.329H78.3252L77.2712 175.615Z" fill="#407BFF"/>
<path opacity="0.1" d="M77.2712 175.615L75.3554 147.715C75.0764 143.772 73.1606 140.486 70.4946 138.93C68.8069 137.586 66.7504 136.788 64.5984 136.642C64.369 136.642 64.1458 136.642 63.9164 136.642C62.1852 136.632 60.4794 137.059 58.9564 137.882C58.9066 137.899 58.8588 137.922 58.8138 137.95C57.2453 138.828 55.8969 140.051 54.8706 141.527C53.3221 143.777 52.4999 146.447 52.5146 149.178C52.5146 155.378 56.6004 160.549 61.9634 161.578L64.0342 191.791C64.214 194.364 65.8942 196.329 67.9278 196.329H78.3252L77.2712 175.615Z" fill="white"/>
<path d="M151.379 226.591C162.864 226.591 172.174 224.21 172.174 221.272C172.174 218.334 162.864 215.952 151.379 215.952C139.895 215.952 130.584 218.334 130.584 221.272C130.584 224.21 139.895 226.591 151.379 226.591Z" fill="#263238"/>
<path opacity="0.3" d="M151.379 224.818C162.864 224.818 172.174 222.833 172.174 220.385C172.174 217.937 162.864 215.952 151.379 215.952C139.895 215.952 130.584 217.937 130.584 220.385C130.584 222.833 139.895 224.818 151.379 224.818Z" fill="white"/>
<path d="M153.096 220.379H149.662L145.694 177.587H157.064L153.096 220.379Z" fill="#263238"/>
<path d="M157.064 177.587C157.064 178.827 154.522 179.844 151.379 179.844C148.236 179.844 145.694 178.833 145.694 177.587C145.694 176.341 148.242 175.33 151.379 175.33C154.516 175.33 157.064 176.341 157.064 177.587Z" fill="#263238"/>
<path opacity="0.7" d="M157.064 177.587C157.064 178.827 154.522 179.844 151.379 179.844C148.236 179.844 145.694 178.833 145.694 177.587C145.694 176.341 148.242 175.33 151.379 175.33C154.516 175.33 157.064 176.341 157.064 177.587Z" fill="white"/>
<path opacity="0.7" d="M81.8398 178.256C81.8554 178 81.9221 177.749 82.036 177.519C82.15 177.289 82.3088 177.085 82.5032 176.917C87.3082 181.753 117.794 185.479 154.684 185.479C191.574 185.479 222.059 181.759 226.87 176.917C227.065 177.085 227.223 177.289 227.337 177.519C227.451 177.749 227.518 178 227.534 178.256C227.534 183.718 194.915 188.176 154.684 188.176C114.452 188.176 81.8398 183.718 81.8398 178.256Z" fill="white"/>
<path opacity="0.7" d="M82.5281 179.49C87.3331 174.654 117.818 170.934 154.708 170.934C191.598 170.934 222.084 174.654 226.895 179.49C222.084 184.326 191.598 188.052 154.708 188.052C117.818 188.052 87.3331 184.326 82.5281 179.49Z" fill="white"/>
<path opacity="0.7" d="M81.8398 178.064C81.8398 172.595 114.452 168.144 154.684 168.144C194.915 168.144 227.534 172.57 227.534 178.064C227.519 178.319 227.452 178.569 227.338 178.798C227.224 179.027 227.065 179.231 226.87 179.397C222.059 174.561 191.574 170.841 154.684 170.841C117.794 170.841 87.3082 174.561 82.5032 179.397C82.3085 179.231 82.1493 179.027 82.0353 178.798C81.9213 178.569 81.8548 178.319 81.8398 178.064Z" fill="white"/>
<path d="M182.807 173.246L152.328 172.67C152.245 172.661 152.166 172.636 152.093 172.597C152.021 172.557 151.957 172.503 151.906 172.439C151.854 172.374 151.816 172.3 151.794 172.22C151.772 172.14 151.766 172.057 151.776 171.975C151.769 171.893 151.779 171.81 151.805 171.731C151.831 171.653 151.872 171.58 151.926 171.518C151.98 171.455 152.047 171.404 152.121 171.368C152.195 171.332 152.276 171.31 152.359 171.306L182.838 171.882C182.921 171.89 183.001 171.914 183.074 171.953C183.147 171.993 183.212 172.046 183.264 172.111C183.316 172.176 183.355 172.251 183.377 172.331C183.4 172.411 183.406 172.494 183.396 172.577C183.403 172.66 183.393 172.743 183.366 172.822C183.34 172.901 183.298 172.974 183.243 173.036C183.188 173.099 183.121 173.15 183.046 173.186C182.971 173.222 182.89 173.242 182.807 173.246Z" fill="#263238"/>
<path opacity="0.2" d="M182.807 173.246L152.328 172.67C152.245 172.661 152.166 172.636 152.093 172.597C152.021 172.557 151.957 172.503 151.906 172.439C151.854 172.374 151.816 172.3 151.794 172.22C151.772 172.14 151.766 172.057 151.776 171.975C151.769 171.893 151.779 171.81 151.805 171.731C151.831 171.653 151.872 171.58 151.926 171.518C151.98 171.455 152.047 171.404 152.121 171.368C152.195 171.332 152.276 171.31 152.359 171.306L182.838 171.882C182.921 171.89 183.001 171.914 183.074 171.953C183.147 171.993 183.212 172.046 183.264 172.111C183.316 172.176 183.355 172.251 183.377 172.331C183.4 172.411 183.406 172.494 183.396 172.577C183.403 172.66 183.393 172.743 183.366 172.822C183.34 172.901 183.298 172.974 183.243 173.036C183.188 173.099 183.121 173.15 183.046 173.186C182.971 173.222 182.89 173.242 182.807 173.246Z" fill="white"/>
<path d="M197.606 171.021L183.036 173.222C182.877 173.222 182.724 173.161 182.609 173.051C182.493 172.941 182.424 172.792 182.416 172.633C182.391 172.466 182.428 172.296 182.521 172.155C182.614 172.014 182.755 171.912 182.919 171.87L197.489 169.669C197.648 169.669 197.801 169.73 197.916 169.839C198.032 169.949 198.101 170.099 198.109 170.258C198.134 170.425 198.097 170.595 198.004 170.736C197.911 170.877 197.77 170.978 197.606 171.021Z" fill="#263238"/>
<path d="M197.476 169.669H166.674L152.359 171.306L182.007 171.864L197.476 169.669Z" fill="#263238"/>
<path opacity="0.6" d="M197.476 169.669H166.674L152.359 171.306L182.007 171.864L197.476 169.669Z" fill="white"/>
<path opacity="0.5" d="M197.606 171.021L183.036 173.222C182.877 173.222 182.724 173.161 182.609 173.051C182.493 172.941 182.424 172.792 182.416 172.633C182.391 172.466 182.428 172.296 182.521 172.155C182.614 172.014 182.755 171.912 182.919 171.87L197.489 169.669C197.648 169.669 197.801 169.73 197.916 169.839C198.032 169.949 198.101 170.099 198.109 170.258C198.134 170.425 198.097 170.595 198.004 170.736C197.911 170.877 197.77 170.978 197.606 171.021Z" fill="white"/>
<path d="M182.007 171.864L153.586 171.33C153.05 171.262 152.558 171 152.203 170.593C151.847 170.186 151.654 169.663 151.658 169.123L150.802 151.962C150.74 150.765 151.515 149.804 152.514 149.823L180.934 150.362C181.471 150.428 181.965 150.689 182.321 151.097C182.677 151.504 182.87 152.028 182.863 152.569L183.724 169.725C183.78 170.921 183.011 171.882 182.007 171.864Z" fill="#407BFF"/>
<path opacity="0.2" d="M182.007 171.864L153.586 171.33C153.05 171.262 152.558 171 152.203 170.593C151.847 170.186 151.654 169.663 151.658 169.123L150.802 151.962C150.74 150.765 151.515 149.804 152.514 149.823L180.934 150.362C181.471 150.428 181.965 150.689 182.321 151.097C182.677 151.504 182.87 152.028 182.863 152.569L183.724 169.725C183.78 170.921 183.011 171.882 182.007 171.864Z" fill="white"/>
<path d="M181.176 171.777L152.755 171.238C152.218 171.171 151.725 170.909 151.368 170.502C151.012 170.095 150.817 169.572 150.821 169.031L149.965 151.9C149.903 150.703 150.678 149.742 151.683 149.761L180.097 150.294C180.634 150.361 181.128 150.623 181.485 151.03C181.841 151.437 182.036 151.96 182.032 152.501L182.9 169.638C182.949 170.835 182.174 171.796 181.176 171.777Z" fill="#407BFF"/>
<path opacity="0.6" d="M181.176 171.777L152.755 171.238C152.218 171.171 151.725 170.909 151.368 170.502C151.012 170.095 150.817 169.572 150.821 169.031L149.965 151.9C149.903 150.703 150.678 149.742 151.683 149.761L180.097 150.294C180.634 150.361 181.128 150.623 181.485 151.03C181.841 151.437 182.036 151.96 182.032 152.501L182.9 169.638C182.949 170.835 182.174 171.796 181.176 171.777Z" fill="white"/>
<path d="M162.663 160.474C162.747 161.291 163.127 162.049 163.731 162.604C164.335 163.159 165.123 163.474 165.943 163.488C166.329 163.494 166.712 163.419 167.067 163.266C167.421 163.113 167.739 162.887 167.999 162.602C168.26 162.317 168.456 161.98 168.577 161.613C168.697 161.246 168.737 160.858 168.696 160.474C168.606 159.662 168.223 158.911 167.62 158.36C167.016 157.809 166.233 157.496 165.416 157.48C165.032 157.474 164.651 157.549 164.298 157.7C163.945 157.852 163.628 158.076 163.368 158.359C163.108 158.642 162.91 158.977 162.789 159.341C162.668 159.706 162.625 160.092 162.663 160.474Z" fill="white"/>
</svg>
