<svg width="107" height="107" viewBox="0 0 107 107" fill="none" xmlns="http://www.w3.org/2000/svg">
<circle cx="53.5" cy="53.5" r="53.5" fill="#EFEBE9"/>
<path d="M104.421 82.4387H3V82.4894H104.421V82.4387Z" fill="#EBEBEB"/>
<path d="M18.8217 84.3699H13.6411V84.4206H18.8217V84.3699Z" fill="#EBEBEB"/>
<path d="M56.5504 83.8201H34.25V83.8708H56.5504V83.8201Z" fill="#EBEBEB"/>
<path d="M37.4832 85.0312H22.7427V85.082H37.4832V85.0312Z" fill="#EBEBEB"/>
<path d="M94.2603 85.9136H74.7368V85.9643H94.2603V85.9136Z" fill="#EBEBEB"/>
<path d="M72.9295 85.9136H71.6455V85.9643H72.9295V85.9136Z" fill="#EBEBEB"/>
<path d="M78.2321 85.0576H64.1001V85.1083H78.2321V85.0576Z" fill="#EBEBEB"/>
<path d="M51.0734 73.3922H11.9067C11.5999 73.3916 11.3058 73.2694 11.089 73.0522C10.8722 72.8351 10.7505 72.5408 10.7505 72.2339V17.1766C10.7532 16.8716 10.8761 16.5799 11.0926 16.3649C11.3091 16.15 11.6016 16.0291 11.9067 16.0286H51.0734C51.3805 16.0286 51.6751 16.1506 51.8924 16.3678C52.1096 16.585 52.2316 16.8796 52.2316 17.1868V72.2339C52.2316 72.5411 52.1096 72.8357 51.8924 73.0529C51.6751 73.2701 51.3805 73.3922 51.0734 73.3922V73.3922ZM11.9067 16.0691C11.6133 16.0697 11.3321 16.1866 11.1249 16.3942C10.9176 16.6019 10.8012 16.8833 10.8012 17.1766V72.2339C10.8012 72.5273 10.9176 72.8087 11.1249 73.0163C11.3321 73.224 11.6133 73.3409 11.9067 73.3414H51.0734C51.3669 73.3409 51.6483 73.2241 51.8559 73.0165C52.0635 72.8089 52.1803 72.5275 52.1809 72.2339V17.1766C52.1803 16.8831 52.0635 16.6017 51.8559 16.3941C51.6483 16.1865 51.3669 16.0697 51.0734 16.0691H11.9067Z" fill="#EBEBEB"/>
<path d="M94.95 73.3922H55.7813C55.4743 73.3916 55.18 73.2694 54.9629 73.0523C54.7458 72.8352 54.6236 72.5409 54.623 72.2339V17.1766C54.6262 16.8714 54.7496 16.5797 54.9664 16.3648C55.1832 16.1499 55.476 16.0291 55.7813 16.0286H94.95C95.2547 16.0296 95.5467 16.1507 95.7628 16.3656C95.9788 16.5805 96.1015 16.8719 96.1041 17.1766V72.2339C96.1042 72.5404 95.9827 72.8344 95.7663 73.0515C95.55 73.2686 95.2565 73.3911 94.95 73.3922V73.3922ZM55.7813 16.0691C55.4877 16.0697 55.2063 16.1865 54.9987 16.3941C54.7911 16.6017 54.6743 16.8831 54.6738 17.1766V72.2339C54.6743 72.5275 54.7911 72.8089 54.9987 73.0165C55.2063 73.2241 55.4877 73.3409 55.7813 73.3414H94.95C95.2435 73.3409 95.5249 73.2241 95.7325 73.0165C95.9401 72.8089 96.057 72.5275 96.0575 72.2339V17.1766C96.057 16.8831 95.9401 16.6017 95.7325 16.3941C95.5249 16.1865 95.2435 16.0697 94.95 16.0691H55.7813Z" fill="#EBEBEB"/>
<path d="M28.6108 44.5137L81.7979 44.5137V20.692L28.6108 20.692V44.5137Z" fill="#E6E6E6"/>
<path d="M27.4889 44.5137L81.2744 44.5137V20.692L27.4889 20.692V44.5137Z" fill="#F0F0F0"/>
<path d="M28.6108 45.3188L81.7979 45.3188V44.5115L28.6108 44.5115V45.3188Z" fill="#E6E6E6"/>
<path d="M25.6227 45.3188L79.4082 45.3188V44.5115L25.6227 44.5115V45.3188Z" fill="#F0F0F0"/>
<path d="M79.7065 42.9455V22.2598L29.059 22.2598V42.9455H79.7065Z" fill="#FAFAFA"/>
<path d="M66.0247 42.9455L56.8218 22.2598H47.4019L56.6068 42.9455H66.0247Z" fill="white"/>
<path d="M78.9802 39.4871C79.0098 39.4871 79.0382 39.4754 79.0591 39.4545C79.08 39.4335 79.0918 39.4052 79.0918 39.3756V23.2801C79.0918 23.2503 79.0801 23.2217 79.0593 23.2005C79.0384 23.1792 79.01 23.167 78.9802 23.1665C78.9654 23.1665 78.9507 23.1695 78.9371 23.1752C78.9234 23.1809 78.911 23.1893 78.9006 23.1999C78.8902 23.2105 78.8821 23.223 78.8766 23.2368C78.8711 23.2505 78.8684 23.2653 78.8687 23.2801V39.3756C78.8684 39.3903 78.8711 39.4049 78.8766 39.4186C78.8821 39.4322 78.8903 39.4447 78.9007 39.4551C78.9112 39.4655 78.9236 39.4737 78.9372 39.4792C78.9509 39.4847 78.9655 39.4874 78.9802 39.4871V39.4871Z" fill="#F0F0F0"/>
<path d="M53.0656 42.9455L43.8607 22.2598H40.603L49.8059 42.9455H53.0656Z" fill="white"/>
<path d="M29.2578 42.9436V22.2578H29.059V42.9436H29.2578Z" fill="#E6E6E6"/>
<g opacity="0.5">
<path opacity="0.5" d="M27.1177 24.4118H80.3068L80.4508 22.8682H27.2617L27.1177 24.4118Z" fill="#E6E6E6"/>
<path opacity="0.5" d="M27.1177 26.9636H80.3068L80.4508 25.418H27.2617L27.1177 26.9636Z" fill="#E6E6E6"/>
<path opacity="0.5" d="M27.1177 29.5134H80.3068L80.4508 27.9697H27.2617L27.1177 29.5134Z" fill="#E6E6E6"/>
<path opacity="0.5" d="M27.1177 32.0652H80.3068L80.4508 30.5195H27.2617L27.1177 32.0652Z" fill="#E6E6E6"/>
<path opacity="0.5" d="M27.1177 34.6147H80.3068L80.4508 33.0691H27.2617L27.1177 34.6147Z" fill="#E6E6E6"/>
<path opacity="0.5" d="M27.1177 37.1645H80.3068L80.4508 35.6208H27.2617L27.1177 37.1645Z" fill="#E6E6E6"/>
</g>
<path d="M83.1751 81.4551H88.4287V60.5989H83.1751V81.4551Z" fill="#F0F0F0"/>
<path d="M62.6292 82.4387H87.4185V81.4549H62.6292V82.4387Z" fill="#F0F0F0"/>
<path d="M83.175 60.5989H61.6211V81.455H83.175V60.5989Z" fill="#F5F5F5"/>
<path d="M81.1063 73.6578H63.6862C63.6751 73.6578 63.6641 73.6556 63.6539 73.6513C63.6437 73.647 63.6344 73.6406 63.6267 73.6327C63.6189 73.6248 63.6128 73.6154 63.6088 73.605C63.6047 73.5947 63.6028 73.5837 63.6031 73.5726V68.4792C63.6028 68.4681 63.6047 68.4571 63.6088 68.4468C63.6128 68.4365 63.6189 68.4271 63.6267 68.4191C63.6344 68.4112 63.6437 68.4049 63.6539 68.4006C63.6641 68.3963 63.6751 68.394 63.6862 68.394H70.4368C70.4528 68.394 70.4685 68.3985 70.482 68.407C70.4956 68.4155 70.5065 68.4276 70.5135 68.442C70.5204 68.4564 70.5232 68.4725 70.5215 68.4884C70.5198 68.5043 70.5136 68.5194 70.5037 68.532C70.4685 68.5764 70.4492 68.6314 70.449 68.6882C70.4497 68.7238 70.4576 68.7589 70.472 68.7914C70.4864 68.824 70.5071 68.8534 70.533 68.8779C70.5588 68.9024 70.5892 68.9216 70.6225 68.9343C70.6558 68.947 70.6913 68.9529 70.7269 68.9519H74.0676C74.1032 68.9529 74.1387 68.947 74.172 68.9343C74.2053 68.9216 74.2357 68.9024 74.2615 68.8779C74.2874 68.8534 74.3081 68.824 74.3225 68.7914C74.3369 68.7589 74.3448 68.7238 74.3455 68.6882C74.3453 68.6314 74.326 68.5764 74.2908 68.532C74.2809 68.5194 74.2747 68.5043 74.273 68.4884C74.2713 68.4725 74.2741 68.4564 74.281 68.442C74.288 68.4276 74.2989 68.4155 74.3125 68.407C74.326 68.3985 74.3417 68.394 74.3577 68.394H81.1063C81.1288 68.394 81.1505 68.403 81.1665 68.419C81.1825 68.435 81.1914 68.4566 81.1914 68.4792V73.5726C81.1914 73.5952 81.1825 73.6169 81.1665 73.6328C81.1505 73.6488 81.1288 73.6578 81.1063 73.6578ZM63.7714 73.4874H81.0129V68.5644H74.4977C74.5098 68.6046 74.516 68.6462 74.5159 68.6882C74.5138 68.8051 74.4654 68.9164 74.3814 68.9978C74.2974 69.0791 74.1846 69.1239 74.0676 69.1222H70.7269C70.6099 69.1239 70.4971 69.0791 70.4131 68.9978C70.3291 68.9164 70.2807 68.8051 70.2786 68.6882C70.2785 68.6462 70.2847 68.6046 70.2968 68.5644H63.7714V73.4874Z" fill="white"/>
<path d="M81.1063 79.6802H63.6862C63.6751 79.6802 63.6641 79.678 63.6539 79.6737C63.6437 79.6694 63.6344 79.6631 63.6267 79.6552C63.6189 79.6472 63.6128 79.6378 63.6088 79.6275C63.6047 79.6172 63.6028 79.6061 63.6031 79.595V74.5017C63.6028 74.4906 63.6047 74.4796 63.6088 74.4692C63.6128 74.4589 63.6189 74.4495 63.6267 74.4416C63.6344 74.4336 63.6437 74.4273 63.6539 74.423C63.6641 74.4187 63.6751 74.4165 63.6862 74.4165H70.4388C70.4549 74.4169 70.4705 74.4217 70.484 74.4303C70.4976 74.4388 70.5086 74.4509 70.5159 74.4652C70.5226 74.48 70.525 74.4964 70.5228 74.5126C70.5207 74.5287 70.5141 74.5439 70.5037 74.5565C70.4676 74.5996 70.4482 74.6543 70.449 74.7106C70.4497 74.7463 70.4576 74.7815 70.472 74.8142C70.4864 74.8469 70.507 74.8764 70.5329 74.9011C70.5587 74.9257 70.5891 74.9451 70.6224 74.958C70.6556 74.9709 70.6912 74.9772 70.7269 74.9763H74.0676C74.1033 74.9772 74.1389 74.9709 74.1721 74.958C74.2054 74.9451 74.2358 74.9257 74.2617 74.9011C74.2875 74.8764 74.3081 74.8469 74.3225 74.8142C74.3369 74.7815 74.3448 74.7463 74.3455 74.7106C74.3453 74.6545 74.326 74.6002 74.2908 74.5565C74.28 74.5441 74.2731 74.5289 74.2709 74.5127C74.2687 74.4964 74.2714 74.4799 74.2786 74.4652C74.2859 74.4509 74.2969 74.4388 74.3105 74.4303C74.324 74.4217 74.3396 74.4169 74.3557 74.4165H81.1063C81.1288 74.4165 81.1505 74.4255 81.1665 74.4415C81.1825 74.4574 81.1914 74.4791 81.1914 74.5017V79.595C81.1914 79.6176 81.1825 79.6393 81.1665 79.6553C81.1505 79.6713 81.1288 79.6802 81.1063 79.6802ZM63.7714 79.518H81.0129V74.5869H74.4977C74.5098 74.627 74.516 74.6687 74.5159 74.7106C74.5151 74.7687 74.5029 74.826 74.48 74.8794C74.457 74.9327 74.4238 74.981 74.3821 75.0215C74.3405 75.062 74.2913 75.0939 74.2373 75.1154C74.1834 75.1369 74.1257 75.1475 74.0676 75.1467H70.7269C70.6688 75.1475 70.6111 75.1369 70.5572 75.1154C70.5032 75.0939 70.454 75.062 70.4124 75.0215C70.3707 74.981 70.3375 74.9327 70.3145 74.8794C70.2916 74.826 70.2794 74.7687 70.2786 74.7106C70.2785 74.6687 70.2847 74.627 70.2968 74.5869H63.7714V79.518Z" fill="white"/>
<path d="M81.1063 67.6356H63.6862C63.6751 67.6356 63.6641 67.6333 63.6539 67.629C63.6437 67.6247 63.6344 67.6184 63.6267 67.6105C63.6189 67.6026 63.6128 67.5931 63.6088 67.5828C63.6047 67.5725 63.6028 67.5615 63.6031 67.5504V62.457C63.6028 62.4459 63.6047 62.4349 63.6088 62.4246C63.6128 62.4142 63.6189 62.4048 63.6267 62.3969C63.6344 62.389 63.6437 62.3827 63.6539 62.3783C63.6641 62.374 63.6751 62.3718 63.6862 62.3718H70.4368C70.4528 62.3723 70.4684 62.377 70.482 62.3856C70.4956 62.3941 70.5066 62.4062 70.5139 62.4205C70.5223 62.4342 70.5268 62.45 70.5268 62.4661C70.5268 62.4823 70.5223 62.4981 70.5139 62.5118C70.4778 62.555 70.4583 62.6097 70.4591 62.6659C70.4599 62.7016 70.4677 62.7366 70.4821 62.7692C70.4966 62.8018 70.5173 62.8312 70.5431 62.8557C70.5689 62.8802 70.5994 62.8994 70.6327 62.912C70.6659 62.9247 70.7014 62.9307 70.737 62.9296H74.0778C74.1134 62.9307 74.1488 62.9247 74.1821 62.912C74.2154 62.8994 74.2458 62.8802 74.2717 62.8557C74.2975 62.8312 74.3182 62.8018 74.3327 62.7692C74.3471 62.7366 74.3549 62.7016 74.3557 62.6659C74.3565 62.6097 74.337 62.555 74.3009 62.5118C74.2925 62.4981 74.288 62.4823 74.288 62.4661C74.288 62.45 74.2925 62.4342 74.3009 62.4205C74.3082 62.4062 74.3192 62.3941 74.3328 62.3856C74.3463 62.377 74.362 62.3723 74.378 62.3718H81.1265C81.1377 62.3718 81.1488 62.374 81.1591 62.3783C81.1695 62.3826 81.1789 62.3889 81.1868 62.3968C81.1947 62.4047 81.201 62.4141 81.2052 62.4244C81.2095 62.4348 81.2117 62.4458 81.2117 62.457V67.5504C81.2125 67.5636 81.2102 67.5769 81.2048 67.589C81.1995 67.6012 81.1913 67.6119 81.181 67.6202C81.1707 67.6285 81.1585 67.6343 81.1455 67.637C81.1325 67.6396 81.119 67.6392 81.1063 67.6356V67.6356ZM63.7714 67.4652H81.0129V62.5422H74.4977C74.5098 62.5823 74.516 62.624 74.5159 62.6659C74.5138 62.7829 74.4654 62.8942 74.3814 62.9755C74.2974 63.0569 74.1846 63.1017 74.0676 63.1H70.7269C70.6099 63.1017 70.4971 63.0569 70.4131 62.9755C70.3291 62.8942 70.2807 62.7829 70.2786 62.6659C70.2785 62.624 70.2847 62.5823 70.2968 62.5422H63.7714V67.4652Z" fill="white"/>
<path d="M60.9215 60.5989H83.1753V58.8869H60.9215V60.5989Z" fill="#F0F0F0"/>
<path d="M89.1612 58.887H83.1733V60.5989H89.1612V58.887Z" fill="#E6E6E6"/>
<path d="M12.8968 82.4368H21.3208L21.3208 54.1444H12.8968L12.8968 82.4368Z" fill="#F5F5F5"/>
<path d="M12.8986 82.4368H14.2881L14.2881 54.1444H12.8986L12.8986 82.4368Z" fill="#F0F0F0"/>
<path d="M52.0045 55.0796H20.0225V62.1588H52.0045V55.0796Z" fill="#E6E6E6"/>
<path d="M52.0045 64.2786H20.0225V65.9135H52.0045V64.2786Z" fill="#E6E6E6"/>
<path d="M50.1361 54.1465H12.8984V56.6049H50.1361V54.1465Z" fill="#F0F0F0"/>
<path d="M50.1361 82.4368H58.5581V54.1444H50.1361V82.4368Z" fill="#F5F5F5"/>
<path d="M50.1345 82.4368H51.5239V54.1444H50.1345V82.4368Z" fill="#F0F0F0"/>
<path d="M53.7103 91.5992C75.4311 91.5992 93.0393 90.5711 93.0393 89.303C93.0393 88.0349 75.4311 87.0068 53.7103 87.0068C31.9895 87.0068 14.3813 88.0349 14.3813 89.303C14.3813 90.5711 31.9895 91.5992 53.7103 91.5992Z" fill="#F5F5F5"/>
<path d="M40.9315 35.5013C40.5685 35.8463 40.1373 36.1116 39.6657 36.2802C39.6402 35.7634 39.5509 35.2518 39.4 34.7569C39.4 34.7569 39.4406 35.8623 39.1262 36.4709C38.6793 36.6126 38.2241 36.7264 37.7631 36.8116C37.7346 36.674 37.6967 36.5384 37.6495 36.406C37.6352 36.5562 37.6046 36.7045 37.5582 36.8482C36.0227 37.1281 33.9071 37.5845 31.9943 37.2538C30.8279 35.7528 32.049 34.6433 32.1687 33.7569C32.3249 32.5966 31.2377 32.3248 31.3695 31.3836C31.5014 30.4424 32.5541 31.0144 33.0835 29.9495C33.7854 28.5296 35.327 27.6878 36.6738 27.9536C38.4568 28.3085 37.8422 30.98 39.2195 31.838C40.5968 32.696 41.2804 34.1767 40.9315 35.5013Z" fill="#263238"/>
<path d="M40.9009 35.8521H40.8846C40.8785 35.8501 40.8727 35.8468 40.8678 35.8425C40.8629 35.8382 40.859 35.833 40.8561 35.8271C40.8533 35.8213 40.8517 35.8149 40.8513 35.8084C40.851 35.8019 40.852 35.7954 40.8542 35.7893C41.2295 34.698 41.4059 33.2943 39.412 32.1117C38.6757 31.6736 38.4708 30.8845 38.27 30.1219C38.0002 29.0894 37.7487 28.1158 36.1929 28.1381C36.1803 28.1371 36.1685 28.1317 36.1595 28.1228C36.1506 28.1138 36.1452 28.102 36.1442 28.0894C36.1436 28.0828 36.1445 28.0761 36.1467 28.0698C36.1489 28.0635 36.1524 28.0578 36.157 28.053C36.1617 28.0482 36.1672 28.0444 36.1734 28.0419C36.1796 28.0395 36.1863 28.0384 36.1929 28.0387C37.8156 28.0164 38.0996 29.0732 38.3674 30.0955C38.5601 30.8399 38.7629 31.6087 39.4627 32.0265C41.5418 33.2598 41.3045 34.7832 40.9475 35.8217C40.9436 35.8308 40.937 35.8385 40.9287 35.8439C40.9204 35.8493 40.9108 35.8522 40.9009 35.8521Z" fill="#263238"/>
<path d="M38.6999 48.9539C38.6999 48.9539 38.6188 58.8728 37.9981 67.021C36.6533 75.0859 35.4748 86.157 35.4748 86.157H34.1888C34.1888 86.157 32.8926 71.4652 34.3226 66.739C33.4748 60.6781 33.7384 49.1182 33.7384 49.1182L38.6999 48.9539Z" fill="#B55B52"/>
<path d="M40.3981 40.2091C40.3981 40.3025 40.3981 40.4404 40.3981 40.558L40.4143 40.9292C40.4285 41.1787 40.4508 41.4282 40.4792 41.6737C40.5318 42.1636 40.6172 42.6495 40.7348 43.128C40.8478 43.5846 41.0054 44.0289 41.2054 44.4546C41.3895 44.8476 41.6392 45.2063 41.9438 45.5155L42.0188 45.5905C41.9843 45.5554 41.9396 45.532 41.891 45.5236C41.8667 45.5236 41.891 45.5358 41.9539 45.5337C42.1215 45.5159 42.2855 45.4736 42.4407 45.408C42.8551 45.2398 43.2541 45.0362 43.6334 44.7994C44.0391 44.5581 44.4326 44.2903 44.8282 44.0144C45.2237 43.7386 45.6213 43.4505 46.0046 43.1666C46.0972 43.0977 46.2119 43.0654 46.3268 43.0758C46.4416 43.0862 46.5486 43.1387 46.6273 43.2231C46.7059 43.3075 46.7506 43.4179 46.7529 43.5332C46.7552 43.6486 46.7148 43.7607 46.6395 43.8481C46.3028 44.2416 45.9519 44.5966 45.5888 44.9536C45.2257 45.3106 44.8424 45.6453 44.4347 45.9678C44.013 46.308 43.5592 46.6062 43.0797 46.8583C42.7902 47.007 42.4807 47.113 42.1608 47.1727C41.9377 47.2129 41.7089 47.2088 41.4874 47.1605C41.1956 47.0959 40.9312 46.942 40.7308 46.7204L40.8078 46.7974C40.3196 46.3767 39.9126 45.87 39.607 45.3025C39.3176 44.7707 39.091 44.2071 38.9316 43.623C38.7742 43.0611 38.6596 42.4881 38.5888 41.909C38.5543 41.6229 38.5299 41.3349 38.5137 41.0469C38.5137 40.9029 38.4995 40.7588 38.4975 40.6128C38.4955 40.4668 38.4975 40.3308 38.4975 40.1564C38.5126 39.914 38.6207 39.6869 38.7994 39.5224C38.9781 39.358 39.2134 39.2689 39.4561 39.2739C39.6989 39.2789 39.9304 39.3775 40.1021 39.5491C40.2739 39.7208 40.3727 39.9522 40.3778 40.1949L40.3981 40.2091Z" fill="#B55B52"/>
<path d="M47.9778 43.1545L47.9271 42.3736C47.9229 42.312 47.9058 42.2519 47.8769 42.1973C47.8481 42.1426 47.8081 42.0947 47.7595 42.0564C47.711 42.0182 47.655 41.9906 47.5951 41.9753C47.5352 41.9601 47.4728 41.9576 47.4119 41.9679C47.0227 42.0336 46.6661 42.2261 46.3977 42.5156L45.5458 43.4284L45.3916 44.2803C46.0772 44.617 47.0366 43.9274 47.0366 43.9274L47.7364 43.5825C47.8145 43.5431 47.8791 43.4813 47.9221 43.4051C47.965 43.329 47.9844 43.2418 47.9778 43.1545Z" fill="#B55B52"/>
<path d="M39.7813 38.7751C41.1262 39.8563 40.9213 41.049 41.2195 41.9293C40.5968 42.9841 38.1343 43.481 38.1343 43.481C38.1343 43.481 38.331 37.6088 39.7813 38.7751Z" fill="#407BFF"/>
<path d="M40.3775 39.9637C40.5803 42.7325 38.8988 44.8319 38.7547 47.7508L31.7648 47.5805C31.9677 44.7407 31.8825 45.0206 30.8845 39.5216C30.8568 39.3698 30.8606 39.214 30.8956 39.0637C30.9305 38.9134 30.996 38.772 31.0878 38.648C31.1796 38.524 31.2959 38.4202 31.4294 38.343C31.563 38.2658 31.711 38.2168 31.8642 38.199C32.3835 38.1402 33.0265 38.0834 33.702 38.0712C34.834 38.0216 35.9681 38.0535 37.0955 38.1666C37.8237 38.2538 38.6006 38.3938 39.1929 38.5114C39.8886 38.6432 40.3227 39.2538 40.3775 39.9637Z" fill="#407BFF"/>
<path d="M37.2944 40.9435C37.3228 41.2295 37.1788 41.4608 36.9719 41.4608C36.765 41.4608 36.5662 41.2316 36.5459 40.9455C36.5257 40.6595 36.6616 40.4263 36.8685 40.4263C37.0754 40.4263 37.266 40.6575 37.2944 40.9435Z" fill="white"/>
<path d="M36.9189 39.6515C37.3895 39.7712 37.8926 40.0937 38.0934 40.9173C39.4971 38.8158 37.0995 38.1606 37.0995 38.1606L36.9189 39.6515Z" fill="white"/>
<path d="M36.0938 39.761C35.921 39.7385 35.7454 39.7505 35.5773 39.7961C35.4091 39.8417 35.2515 39.9201 35.1138 40.0268C34.976 40.1335 34.8606 40.2664 34.7743 40.4178C34.6881 40.5692 34.6326 40.7361 34.611 40.9091C33.0715 38.905 33.7064 38.0571 33.7064 38.0571L36.0938 39.761Z" fill="white"/>
<path d="M34.1503 34.2539C34.3328 35.3513 34.4911 37.3574 33.7061 38.0653C33.7061 38.0653 35.0894 39.5643 36.6655 39.9598C36.8958 39.7285 37.0581 39.4384 37.1346 39.1211C37.2112 38.8038 37.1991 38.4715 37.0996 38.1606C35.8825 37.8361 35.9475 36.9334 36.1827 36.0917L34.1503 34.2539Z" fill="#B55B52"/>
<path opacity="0.2" d="M34.978 35.0042L36.1829 36.0894C36.1234 36.2879 36.0826 36.4917 36.0612 36.6979C35.5967 36.6167 34.9719 36.0894 34.9374 35.6005C34.9139 35.4009 34.9277 35.1987 34.978 35.0042Z" fill="black"/>
<path d="M32.8621 33.0326C33.5761 34.7142 33.8438 35.4404 35.0244 36.0144C36.7993 36.8785 38.708 35.6331 38.5112 33.773C38.3327 32.0975 37.1948 29.631 35.2658 29.5417C34.8418 29.5212 34.4196 29.6093 34.0392 29.7976C33.6588 29.986 33.3327 30.2683 33.092 30.618C32.8513 30.9676 32.7038 31.3729 32.6636 31.7954C32.6233 32.218 32.6917 32.6439 32.8621 33.0326V33.0326Z" fill="#B55B52"/>
<path d="M32.645 31.6919C34.929 31.6736 38.1217 30.5316 37.1826 29.3369C36.7019 26.9596 32.6775 29.4343 32.645 31.6919Z" fill="#263238"/>
<path d="M32.9904 31.2984C34.5198 32.1544 34.1141 33.8116 33.1445 34.1382C32.1202 32.909 31.8646 31.0834 32.9904 31.2984Z" fill="#263238"/>
<path d="M35.7914 33.7142C35.7914 33.7142 36.3106 33.6188 37.7488 33.7C37.5459 34.1401 37.2194 34.491 36.4831 34.4424C36.3888 34.4434 36.2954 34.4249 36.2086 34.3882C36.1218 34.3515 36.0435 34.2973 35.9785 34.229C35.9136 34.1606 35.8635 34.0796 35.8313 33.9911C35.7991 33.9025 35.7855 33.8082 35.7914 33.7142Z" fill="#263238"/>
<path d="M36.7772 33.9719C36.4952 33.94 36.2105 34.0005 35.9658 34.1443C36.0949 34.2463 36.2537 34.3033 36.4182 34.3066C36.7004 34.3384 36.9853 34.2771 37.2295 34.1322C37.1005 34.0304 36.9415 33.9741 36.7772 33.9719V33.9719Z" fill="#A02724"/>
<path d="M35.8604 33.7041C35.8604 33.7893 35.9009 33.84 36.0328 33.8948C36.4178 33.9408 36.8062 33.9503 37.193 33.9232C37.3809 33.9157 37.5582 33.834 37.6859 33.696C37.0782 33.6502 36.4677 33.6529 35.8604 33.7041Z" fill="white"/>
<path d="M35.6167 32.5174C35.6654 32.6573 35.779 32.7445 35.8723 32.7202C35.9656 32.6959 35.996 32.5478 35.9473 32.4078C35.8987 32.2679 35.783 32.1806 35.6918 32.205C35.6005 32.2293 35.566 32.3774 35.6167 32.5174Z" fill="#263238"/>
<path d="M37.4098 31.8887C37.4584 32.0287 37.5741 32.1159 37.6653 32.0915C37.7566 32.0672 37.7911 31.9191 37.7404 31.7792C37.6897 31.6392 37.5761 31.552 37.4848 31.5763C37.3935 31.6007 37.3611 31.7487 37.4098 31.8887Z" fill="#263238"/>
<path d="M37.4487 31.5986L37.751 31.3816C37.751 31.3816 37.6698 31.7061 37.4487 31.5986Z" fill="#263238"/>
<path d="M36.8989 32.2356C37.1349 32.5107 37.4079 32.7517 37.7103 32.9516C37.6571 33.0282 37.5877 33.0923 37.5071 33.1392C37.4265 33.1862 37.3366 33.2149 37.2438 33.2234L36.8989 32.2356Z" fill="#A02724"/>
<path d="M32.8176 34.6596C32.9366 34.7904 33.0803 34.8962 33.2404 34.9711C33.4006 35.046 33.574 35.0883 33.7507 35.0957C34.2192 35.1119 34.343 34.6677 34.1198 34.2843C33.917 33.9395 33.4363 33.5155 33.0103 33.6758C32.9198 33.7151 32.8402 33.7757 32.7784 33.8526C32.7166 33.9295 32.6744 34.0202 32.6554 34.117C32.6364 34.2138 32.6413 34.3138 32.6695 34.4083C32.6978 34.5028 32.7486 34.5891 32.8176 34.6596Z" fill="#B55B52"/>
<path d="M34.7895 32.2679C34.8007 32.2653 34.8111 32.2603 34.8202 32.2533C34.8293 32.2463 34.8368 32.2375 34.8423 32.2274C34.8925 32.1298 34.9653 32.0457 35.0545 31.9819C35.1438 31.918 35.2469 31.8763 35.3554 31.8602C35.3782 31.8577 35.3992 31.8467 35.4142 31.8294C35.4292 31.8121 35.4372 31.7898 35.4366 31.7669C35.4358 31.7554 35.4328 31.7442 35.4277 31.734C35.4226 31.7237 35.4155 31.7145 35.4068 31.707C35.3981 31.6994 35.388 31.6937 35.3771 31.69C35.3662 31.6864 35.3547 31.6849 35.3433 31.6858C35.2057 31.7037 35.0745 31.7545 34.9608 31.834C34.8471 31.9134 34.7542 32.0192 34.6901 32.1422C34.6792 32.1624 34.6768 32.186 34.6832 32.2081C34.6897 32.2301 34.7045 32.2487 34.7246 32.2598C34.7343 32.2656 34.745 32.2693 34.7562 32.2707C34.7674 32.2721 34.7787 32.2712 34.7895 32.2679V32.2679Z" fill="#263238"/>
<path d="M37.5641 31.2253C37.5833 31.2138 37.5977 31.1958 37.6047 31.1746C37.6081 31.1637 37.6092 31.1522 37.6081 31.1408C37.607 31.1295 37.6036 31.1184 37.5981 31.1084C37.5926 31.0984 37.5851 31.0895 37.5762 31.0825C37.5672 31.0754 37.5569 31.0701 37.5458 31.0671C37.4144 31.0233 37.2743 31.0121 37.1376 31.0343C37.0009 31.0566 36.8716 31.1117 36.7608 31.1949C36.7443 31.2101 36.7342 31.231 36.7326 31.2534C36.7311 31.2758 36.7383 31.2979 36.7526 31.3152C36.767 31.3324 36.7875 31.3435 36.8098 31.346C36.8321 31.3485 36.8545 31.3424 36.8724 31.3288C36.961 31.2643 37.0638 31.222 37.1722 31.2054C37.2805 31.1888 37.3913 31.1984 37.4951 31.2335C37.5066 31.2368 37.5186 31.2378 37.5304 31.2364C37.5423 31.235 37.5537 31.2312 37.5641 31.2253V31.2253Z" fill="#263238"/>
<path d="M35.6572 32.2273L35.9574 32.0103C35.9574 32.0103 35.8763 32.3348 35.6572 32.2273Z" fill="#263238"/>
<path d="M36.8297 49.1931C36.8297 49.1931 35.5275 59.3352 33.426 67.3474C30.5578 73.4509 27.1805 78.165 23.718 83.1691L22.501 82.52C24.8763 77.1285 27.4179 70.743 29.8236 66.5401C31.5639 51.2418 31.3712 49.1992 31.3712 49.1992L36.8297 49.1931Z" fill="#B55B52"/>
<path d="M24.562 87.226C24.4849 86.8994 23.8277 86.0393 23.8277 86.0393C23.8277 86.0393 23.6249 84.873 24.2212 82.7229C24.2284 82.6978 24.2284 82.6712 24.2212 82.6461C24.214 82.621 24.2 82.5984 24.1807 82.5809L22.988 81.5018C22.9538 81.4731 22.91 81.4586 22.8655 81.4612C22.8209 81.4639 22.7791 81.4835 22.7486 81.516C22.6472 81.6215 22.3186 82.2056 22.2009 82.3841C22.0833 82.5626 21.9088 82.8223 21.7953 82.9927C21.3896 83.6336 20.5234 85.1002 20.5234 85.1002L20.6796 85.1834C20.9665 84.7488 21.2787 84.3316 21.6147 83.9339C21.9677 83.5586 21.9514 84.2199 21.8176 84.7858C21.6837 85.3517 22.0447 86.2341 23.0346 86.8142C24.2111 87.4694 24.6432 87.5607 24.562 87.226Z" fill="#263238"/>
<path d="M38.7589 47.7446C40.2396 52.4262 39.1138 57.1788 38.41 66.1525C35.1645 66.6413 32.2578 66.1525 28.917 65.1383C31.0631 54.838 28.416 52.27 31.7689 47.5742L38.7589 47.7446Z" fill="#00329B"/>
<path d="M31.6492 47.0632C31.6092 47.245 31.5821 47.4293 31.5681 47.6149C31.5613 47.6505 31.5676 47.6874 31.5859 47.7187C31.6041 47.7501 31.6331 47.7737 31.6675 47.7853C32.42 47.9009 36.8258 48.5419 38.7933 48.0551C38.8213 48.0437 38.8449 48.0235 38.8602 47.9975C38.8756 47.9715 38.8821 47.9411 38.8785 47.9111C38.8785 47.7427 38.8785 47.479 38.8785 47.3147C38.8785 47.2295 38.8278 47.1585 38.7649 47.1585C38.0773 47.1585 34.4485 47.1748 31.7507 46.9719C31.7256 46.9722 31.7014 46.9817 31.6828 46.9985C31.6641 47.0153 31.6522 47.0383 31.6492 47.0632Z" fill="#263238"/>
<path d="M35.2214 46.9924C35.5602 46.9031 37.548 46.9619 37.7286 47.0451C37.9091 47.1283 37.8219 48.2256 37.6616 48.2946C37.3432 48.4366 35.5318 48.4001 35.2052 48.3271C34.8786 48.254 34.9902 47.0634 35.2214 46.9924Z" fill="white"/>
<path opacity="0.2" d="M35.2417 59.0836L35.5155 54.5602L37.0774 52.4121L35.2417 59.0836Z" fill="black"/>
<path d="M32.189 40.7752C31.9193 41.1078 31.6231 41.475 31.3574 41.8381C31.0917 42.2012 30.8178 42.5703 30.5744 42.9476C30.0856 43.652 29.692 44.4179 29.404 45.2255C29.3797 45.3188 29.3513 45.4101 29.3351 45.4973L29.3209 45.5541C29.3209 45.5541 29.3209 45.5643 29.3209 45.5785C29.3407 45.7117 29.3847 45.8403 29.4507 45.9578C29.6551 46.3208 29.8978 46.6608 30.1748 46.972C30.781 47.6598 31.425 48.3133 32.1039 48.9294L32.116 48.9416C32.1996 49.0199 32.2515 49.126 32.2621 49.24C32.2728 49.354 32.2413 49.468 32.1736 49.5603C32.106 49.6527 32.0068 49.7171 31.895 49.7414C31.7831 49.7656 31.6662 49.7481 31.5663 49.6921C30.7006 49.2113 29.8887 48.6394 29.1444 47.9862C28.7389 47.6342 28.3791 47.2328 28.0734 46.7915C27.8781 46.5102 27.7402 46.1931 27.6677 45.8584C27.647 45.7494 27.6361 45.6387 27.6353 45.5278C27.6353 45.471 27.6353 45.4081 27.6353 45.3452C27.6353 45.2823 27.6454 45.2681 27.6515 45.2275C27.6697 45.0795 27.7002 44.9415 27.7286 44.8016C27.8558 44.2813 28.0366 43.7755 28.2681 43.2924C28.4852 42.8336 28.729 42.388 28.9983 41.9577C29.262 41.5318 29.5339 41.1159 29.83 40.7204C30.1262 40.3249 30.4203 39.9415 30.7671 39.55C30.9317 39.3709 31.1592 39.2625 31.4019 39.2474C31.6446 39.2323 31.8838 39.3118 32.0692 39.4692C32.2546 39.6266 32.3719 39.8496 32.3965 40.0915C32.4212 40.3335 32.3512 40.5756 32.2012 40.7671L32.189 40.7752Z" fill="#B55B52"/>
<path d="M31.9514 38.1828C30.6268 38.2619 30.1927 39.0144 29.7363 39.8238C30.142 40.9779 31.8256 42.8319 31.8256 42.8319C31.8256 42.8319 34.3571 38.0408 31.9514 38.1828Z" fill="#407BFF"/>
<path d="M46.4506 42.0854C44.197 40.5986 41.201 41.4383 39.7568 43.9576C37.5012 42.4708 34.5052 43.3105 33.063 45.8298C31.6208 48.3491 32.2801 51.5986 34.5336 53.0855L42.698 58.4669L47.9192 49.339C49.3654 46.8197 48.7062 43.5722 46.4506 42.0854Z" fill="#407BFF"/>
<path opacity="0.9" d="M46.4506 42.0854C44.197 40.5986 41.201 41.4383 39.7568 43.9576C37.5012 42.4708 34.5052 43.3105 33.063 45.8298C31.6208 48.3491 32.2801 51.5986 34.5336 53.0855L42.698 58.4669L47.9192 49.339C49.3654 46.8197 48.7062 43.5722 46.4506 42.0854Z" fill="white"/>
<path opacity="0.2" d="M35.0349 52.2194C34.5886 51.9176 34.2067 51.5302 33.9115 51.0796C33.6162 50.629 33.4133 50.1242 33.3148 49.5946C33.0909 48.4846 33.2783 47.3311 33.8422 46.3491C34.3691 45.3906 35.2547 44.6801 36.3047 44.3735C36.8017 44.2306 37.3238 44.1976 37.8349 44.2767C38.3459 44.3559 38.8336 44.5453 39.2641 44.8319L40.039 45.343L40.5339 44.4769C41.0617 43.5182 41.9479 42.8078 42.9984 42.5012C43.4951 42.3584 44.0169 42.3254 44.5277 42.4046C45.0384 42.4837 45.5257 42.6731 45.9559 42.9597C47.7814 44.1625 48.3149 46.7994 47.1486 48.8421L42.4244 57.1018L35.0349 52.2194Z" fill="#407BFF"/>
<path d="M42.848 53.1912L40.5458 53.8342L39.063 46.5258L41.3652 45.8828L42.848 53.1912Z" fill="#407BFF"/>
<path d="M37.8382 52.0491L37.3311 49.5542L44.0735 47.6677L44.5786 50.1627L37.8382 52.0491Z" fill="#407BFF"/>
<path d="M31.5257 48.6047L33.2742 48.6473L32.3553 50.053C32.3553 50.053 31.3127 49.7954 31.0449 49.0591L31.5257 48.6047Z" fill="#B55B52"/>
<path d="M33.998 49.6617L33.6674 50.402C33.6491 50.4457 33.6213 50.4848 33.5861 50.5165C33.5508 50.5482 33.509 50.5717 33.4636 50.5853C33.4182 50.5988 33.3704 50.6022 33.3235 50.5951C33.2767 50.5879 33.232 50.5705 33.1927 50.544L32.355 50.0532L33.2739 48.6475L33.8945 49.2195C33.9539 49.2745 33.9955 49.3459 34.0139 49.4247C34.0324 49.5035 34.0268 49.5861 33.998 49.6617Z" fill="#B55B52"/>
<path d="M38.4508 88.944C38.2053 88.6925 37.2702 88.3618 37.2702 88.3618C37.2702 88.3618 36.396 87.1874 35.7023 85.0129C35.694 84.9871 35.6792 84.9638 35.6593 84.9453C35.6394 84.9268 35.6151 84.9138 35.5887 84.9074L33.9943 84.5261C33.9727 84.5194 33.9499 84.5174 33.9275 84.5203C33.9051 84.5232 33.8835 84.5309 33.8643 84.5428C33.8451 84.5547 33.8286 84.5706 33.8161 84.5894C33.8035 84.6082 33.7951 84.6295 33.7915 84.6518C33.7651 84.7918 33.7915 85.591 33.7915 85.806C33.7915 86.021 33.7915 86.3293 33.7915 86.5342C33.8057 87.2908 33.8889 88.9927 33.8889 88.9927H34.0653C34.0661 88.4767 34.0979 87.9612 34.1607 87.449C34.2479 86.95 34.6008 87.5403 34.7976 88.1042C34.9944 88.6681 35.7875 89.2685 36.9396 89.2969C38.2946 89.3294 38.7003 89.2056 38.4508 88.944Z" fill="#263238"/>
<path d="M70.2158 84.4753L73.3193 84.5037L73.2016 88.1671L70.6093 88.1447L70.2158 84.4753Z" fill="#FFC3BD"/>
<path opacity="0.2" d="M70.2178 84.4753L73.3212 84.5058L73.2543 86.5565L70.4368 86.5322L70.2178 84.4753Z" fill="black"/>
<path d="M73.5097 69.8911C74.5929 65.0736 76.386 59.9864 74.4976 55.6638L65.8809 56.4164C65.8809 56.4164 66.7348 66.67 66.964 71.0027C67.2034 75.5078 70.1284 85.9014 70.1284 85.9014H73.6781C73.6781 85.9014 74.2258 74.879 73.5097 69.8911Z" fill="#263238"/>
<path d="M73.6986 89.299H72.8872L72.6843 89.0251L72.3456 89.303H67.7695C67.7245 88.9867 67.7665 88.6641 67.8912 88.37C67.8912 88.37 69.4794 88.1124 70.0941 87.6904C70.1462 87.6545 70.2051 87.6295 70.2671 87.617C70.3292 87.6044 70.3931 87.6046 70.4551 87.6174C71.0089 87.7229 72.4734 87.9602 73.2665 87.6519C73.2861 87.6461 73.3067 87.6447 73.3268 87.6479C73.347 87.651 73.3662 87.6586 73.383 87.67C73.3999 87.6815 73.414 87.6965 73.4244 87.7141C73.4348 87.7316 73.4411 87.7513 73.443 87.7716C73.4885 88.2866 73.574 88.7972 73.6986 89.299V89.299Z" fill="#263238"/>
<path d="M83.5972 82.3495L86.5871 81.5117L87.7392 84.9905L85.2422 85.6943L83.5972 82.3495Z" fill="#FFC3BD"/>
<path opacity="0.2" d="M83.5991 82.3515L86.589 81.5117L87.234 83.461L84.52 84.2237L83.5991 82.3515Z" fill="black"/>
<path d="M83.2095 69.0126C83.0351 64.3107 82.741 57.2782 80.9783 55.2681L71.3291 55.9232C71.3291 55.9232 74.9336 65.9274 76.3231 70.1546C77.7693 74.5502 84.0128 83.7146 84.0128 83.7146L87.238 82.7876C87.238 82.7876 84.9479 74.2439 83.2095 69.0126Z" fill="#263238"/>
<path d="M57.0512 49.2174L57.3169 50.4973C57.114 51.8543 55.4061 51.2763 55.4061 51.2763L54.4791 51.329C54.3147 51.328 54.1559 51.2685 54.0314 51.161C53.9069 51.0536 53.8247 50.9053 53.7996 50.7428L53.6069 49.8503C53.5556 49.669 53.5771 49.4749 53.6669 49.3093C53.7567 49.1437 53.9077 49.0197 54.0876 48.9639L54.8787 48.7874C55.1087 48.7366 55.3475 48.7428 55.5745 48.8056L57.0512 49.2174Z" fill="#FFC3BD"/>
<path d="M52.1871 51.7954C51.4734 51.7941 50.7806 51.5536 50.2195 51.1124C49.6584 50.6712 49.2614 50.0547 49.0918 49.3613C49.0727 49.2828 49.0856 49.1999 49.1276 49.1308C49.1696 49.0618 49.2374 49.0123 49.3159 48.9932C49.3945 48.9741 49.4774 48.9869 49.5464 49.029C49.6155 49.071 49.665 49.1387 49.6841 49.2173C49.8455 49.883 50.2647 50.4574 50.8496 50.814C51.4345 51.1706 52.137 51.2803 52.8028 51.1189C53.4685 50.9575 54.0429 50.5383 54.3995 49.9534C54.7561 49.3686 54.8658 48.666 54.7044 48.0002L46.2926 13.2068C46.2737 13.1283 46.2869 13.0455 46.3291 12.9766C46.3713 12.9078 46.4392 12.8585 46.5177 12.8397C46.5963 12.8209 46.6791 12.834 46.7479 12.8762C46.8168 12.9185 46.866 12.9863 46.8849 13.0648L55.2947 47.8522C55.3939 48.2596 55.4117 48.6826 55.3472 49.0969C55.2826 49.5113 55.137 49.9088 54.9186 50.2668C54.7003 50.6248 54.4134 50.9362 54.0746 51.1832C53.7357 51.4302 53.3514 51.6079 52.9437 51.7062C52.696 51.7658 52.442 51.7958 52.1871 51.7954V51.7954Z" fill="#263238"/>
<path d="M24.8298 28.7831C24.7365 27.9454 26.2152 26.9048 28.2193 26.42C30.2944 25.919 32.1362 26.2009 32.3431 27.0508C32.1402 26.2009 34.2133 24.9717 36.98 24.3023C39.7468 23.6329 42.1484 23.779 42.3513 24.6289C42.1484 23.779 44.9456 22.3753 48.6028 21.4909C52.2601 20.6066 55.398 20.5761 55.6029 21.426C55.4001 20.5761 57.4711 19.3469 60.2378 18.6775C63.0046 18.0082 65.4083 18.1542 65.6131 19.0041C65.4103 18.1542 66.9235 17.0609 68.9925 16.57C70.9966 16.0852 72.7937 16.3327 73.0919 17.1238C71.743 12.0101 59.9762 10.4624 46.7103 13.6755C33.4445 16.8885 23.6898 23.6187 24.8298 28.7831Z" fill="#00329B"/>
<path opacity="0.2" d="M32.3432 27.051C32.1404 26.2011 34.2134 24.9719 36.9802 24.3025C39.747 23.6331 42.1486 23.7792 42.3514 24.6291C42.1486 23.7792 44.9458 22.3755 48.603 21.4911C52.2603 20.6067 55.3982 20.5763 55.6031 21.4262C55.4002 20.5763 57.4713 19.3471 60.238 18.6777C63.0048 18.0083 65.4084 18.1544 65.6133 19.0043C64.3638 13.8318 55.9013 11.4383 46.7105 13.6614C37.5198 15.8846 31.0917 21.8765 32.3432 27.051Z" fill="black"/>
<path d="M42.3511 24.629C42.1483 23.7791 44.9455 22.3754 48.6027 21.491C52.2599 20.6066 55.3979 20.5762 55.6028 21.4261C54.3573 16.2516 50.3735 12.783 46.7163 13.6613C43.059 14.5396 41.1057 19.4545 42.3511 24.629Z" fill="#407BFF"/>
<path d="M57.3618 49.3656C56.808 48.3879 55.8019 48.4447 55.0088 48.2439C54.8749 48.2094 54.662 48.5137 54.8263 48.7044C54.9171 48.8295 55.0321 48.935 55.1645 49.0148C55.2969 49.0946 55.444 49.147 55.5971 49.1689C55.6356 49.5178 56.0819 50.4305 57.0677 50.3311C57.2806 50.0562 57.3853 49.7126 57.3618 49.3656Z" fill="#FFC3BD"/>
<path d="M71.469 41.331C71.047 41.9639 70.613 42.5765 70.1809 43.1952C69.7489 43.8138 69.3067 44.4244 68.8584 45.0329C67.9639 46.25 67.049 47.4569 66.0855 48.6597L65.6799 49.1729L65.3005 49.3372C65.0977 49.4244 64.8949 49.5157 64.7062 49.5908L64.1504 49.7936C63.7934 49.9112 63.4385 50.0269 63.0916 50.1263C62.3979 50.3291 61.7102 50.5035 61.0287 50.6658C60.3471 50.8281 59.6615 50.9701 58.98 51.0999C58.2985 51.2297 57.6169 51.3514 56.9151 51.4508L56.0854 48.2662L59.8258 46.8017C60.4445 46.5623 61.0429 46.3067 61.6413 46.0573C61.9374 45.9315 62.2174 45.8017 62.4952 45.6739L62.8806 45.471L63.2092 45.2885L62.4182 45.966C63.2194 44.7489 64.0186 43.4933 64.8218 42.2459L66.0389 40.3716C66.4446 39.7509 66.8503 39.1201 67.2559 38.5095L71.469 41.331Z" fill="#407BFF"/>
<g opacity="0.6">
<path opacity="0.6" d="M71.469 41.331C71.047 41.9639 70.613 42.5765 70.1809 43.1952C69.7489 43.8138 69.3067 44.4244 68.8584 45.0329C67.9639 46.25 67.049 47.4569 66.0855 48.6597L65.6799 49.1729L65.3005 49.3372C65.0977 49.4244 64.8949 49.5157 64.7062 49.5908L64.1504 49.7936C63.7934 49.9112 63.4385 50.0269 63.0916 50.1263C62.3979 50.3291 61.7102 50.5035 61.0287 50.6658C60.3471 50.8281 59.6615 50.9701 58.98 51.0999C58.2985 51.2297 57.6169 51.3514 56.9151 51.4508L56.0854 48.2662L59.8258 46.8017C60.4445 46.5623 61.0429 46.3067 61.6413 46.0573C61.9374 45.9315 62.2174 45.8017 62.4952 45.6739L62.8806 45.471L63.2092 45.2885L62.4182 45.966C63.2194 44.7489 64.0186 43.4933 64.8218 42.2459L66.0389 40.3716C66.4446 39.7509 66.8503 39.1201 67.2559 38.5095L71.469 41.331Z" fill="white"/>
</g>
<path d="M69.4265 36.8259C72.2622 36.2946 75.148 36.0796 78.0311 36.1849C78.4262 36.2075 78.8126 36.3104 79.1665 36.4875C79.5205 36.6646 79.8346 36.912 80.0896 37.2147C80.3447 37.5174 80.5352 37.8689 80.6497 38.2478C80.7641 38.6267 80.8 39.025 80.7552 39.4182C80.029 46.2661 81.4226 54.3149 81.4043 55.6577C81.4043 55.6577 68.8281 60.8362 65.463 56.9133C63.8403 48.7509 66.177 41.6434 67.2683 38.6717C67.4394 38.2047 67.7279 37.7897 68.1059 37.4664C68.4838 37.1431 68.9386 36.9225 69.4265 36.8259V36.8259Z" fill="#407BFF"/>
<path d="M80.8627 37.4122C80.3211 36.7185 79.3576 35.8057 76.1263 35.972C73.3231 38.4264 71.3697 41.8057 71.3697 41.8057C71.3697 41.8057 69.5887 39.2885 71.2784 36.4304C69.4183 36.4811 68.2013 37.0572 67.7632 37.3615C67.325 37.6657 65.1769 41.755 64.7023 48.246C64.2276 54.7369 65.2723 66.8749 65.6779 69.9845C71.7287 72.4186 81.7349 69.6802 83.8647 67.5504C83.5949 62.6153 81.7369 55.2115 81.3982 52.0675C81.0594 48.9234 81.741 38.7814 80.8627 37.4122Z" fill="#1090CB"/>
<path opacity="0.7" d="M80.8627 37.4122C80.3211 36.7185 79.3576 35.8057 76.1263 35.972C73.3231 38.4264 71.3697 41.8057 71.3697 41.8057C71.3697 41.8057 69.5887 39.2885 71.2784 36.4304C69.4183 36.4811 68.2013 37.0572 67.7632 37.3615C67.325 37.6657 65.1769 41.755 64.7023 48.246C64.2276 54.7369 65.2723 66.8749 65.6779 69.9845C71.7287 72.4186 81.7349 69.6802 83.8647 67.5504C83.5949 62.6153 81.7369 55.2115 81.3982 52.0675C81.0594 48.9234 81.741 38.7814 80.8627 37.4122Z" fill="white"/>
<path d="M70.8243 37.1992C70.9797 36.8182 71.2592 36.5009 71.6175 36.2986C71.7241 35.9242 71.6983 35.5244 71.5444 35.1668L75.656 33.4365C75.439 34.8666 75.2727 35.9964 75.8589 36.6292C75.0719 37.2114 73.6276 38.2621 71.9623 38.3656C70.297 38.469 70.6073 37.8098 70.8243 37.1992Z" fill="#FFC3BD"/>
<path opacity="0.2" d="M71.5889 35.2984L74.7491 34.8237C73.8526 35.9759 72.382 36.5114 71.6578 36.1422C71.7072 35.8596 71.6834 35.5692 71.5889 35.2984V35.2984Z" fill="black"/>
<path d="M71.8589 38.3696L72.4938 37.7327L73.4593 38.112C73.4593 38.112 72.9197 38.7205 71.8589 38.3696Z" fill="#407BFF"/>
<path opacity="0.3" d="M71.8589 38.3696L72.4938 37.7327L73.4593 38.112C73.4593 38.112 72.9197 38.7205 71.8589 38.3696Z" fill="black"/>
<path d="M71.4731 32.7994C70.6435 32.6675 70.2561 31.4687 70.7997 30.8034C71.3433 30.1381 70.0532 29.8825 70.4812 29.2415C70.9092 28.6006 72.1364 27.9576 72.8849 28.5478C73.6334 29.1381 71.9336 30.8846 72.3007 31.9191C72.0403 32.2266 71.764 32.5204 71.4731 32.7994V32.7994Z" fill="#263238"/>
<path d="M76.2846 31.2031C75.9682 33.2173 75.7105 34.5784 74.459 35.3228C71.9641 36.8015 70.6659 35.5642 70.3738 33.4972C70.1101 31.6331 70.6699 28.6534 72.7308 28.0529C73.1861 27.9206 73.6676 27.9058 74.1302 28.0098C74.5929 28.1139 75.0216 28.3334 75.3764 28.6479C75.7313 28.9625 76.0007 29.3618 76.1595 29.8086C76.3183 30.2554 76.3613 30.7351 76.2846 31.2031V31.2031Z" fill="#FFC3BD"/>
<path d="M75.3863 33.3369C74.6054 33.0306 74.4816 31.773 75.1611 31.2436C75.8407 30.7142 74.6317 30.1827 75.1895 29.6472C75.7474 29.1117 77.3863 28.5884 77.6845 29.491C78.1531 30.9109 76.2504 31.5681 76.3843 32.6574C76.0636 32.901 75.7305 33.1279 75.3863 33.3369Z" fill="#263238"/>
<path d="M75.585 29.5622C73.6317 30.2357 74.0962 28.8645 73.009 29.0551C71.9217 29.2458 70.8385 29.4324 70.6174 28.4466C70.4369 27.6515 70.9643 26.9253 72.011 26.9963C71.4694 27.3573 71.6053 27.7164 72.1388 27.5358C72.6722 27.3553 74.0191 26.051 74.723 27.0896C75.4268 28.1281 76.6378 27.331 77.2037 28.0085C77.7696 28.686 76.8629 29.8219 75.585 29.5622Z" fill="#263238"/>
<path d="M70.8364 34.9617C70.8933 34.864 70.9703 34.7795 71.0623 34.7138C71.1542 34.648 71.2591 34.6025 71.3699 34.5803C71.6436 34.6745 71.8944 34.8252 72.1062 35.0225C72.2076 35.5134 71.092 36.0083 70.9297 36.0753C70.8729 35.6371 70.8364 34.9617 70.8364 34.9617Z" fill="#263238"/>
<path opacity="0.2" d="M73.5889 31.345C73.7045 31.303 73.8272 31.2842 73.9501 31.2898C74.073 31.2953 74.1936 31.3252 74.3049 31.3775C74.0663 31.4126 73.8233 31.4016 73.5889 31.345Z" fill="black"/>
<path opacity="0.2" d="M73.5889 31.5154C73.7003 31.5005 73.8136 31.5099 73.9211 31.5428C74.0285 31.5757 74.1276 31.6314 74.2116 31.7061C73.9928 31.6878 73.7804 31.6228 73.5889 31.5154V31.5154Z" fill="black"/>
<path opacity="0.2" d="M70.7959 31.1099C70.7959 31.1099 70.6296 30.907 70.5059 31.0206C70.5874 31.0868 70.6913 31.1188 70.7959 31.1099Z" fill="black"/>
<path opacity="0.2" d="M70.7651 31.2681C70.7651 31.2681 70.6292 31.0896 70.542 31.2681C70.5751 31.2899 70.6139 31.3015 70.6536 31.3015C70.6932 31.3015 70.732 31.2899 70.7651 31.2681V31.2681Z" fill="black"/>
<path opacity="0.2" d="M71.4043 29.5499C71.9968 29.4403 72.6015 29.413 73.2015 29.4687C72.2055 29.562 71.4043 29.5499 71.4043 29.5499Z" fill="black"/>
<path opacity="0.2" d="M71.1729 29.8217C71.1729 29.8217 72.5461 29.7731 73.2337 30.0449C72.5419 30.0257 71.8527 29.9511 71.1729 29.8217V29.8217Z" fill="black"/>
<path d="M77.0574 33.2884C76.916 33.4979 76.7347 33.6775 76.5237 33.8167C76.3128 33.956 76.0764 34.0522 75.8282 34.0998C75.1608 34.2235 74.8809 33.613 75.1101 33.0125C75.3129 32.473 75.9215 31.759 76.5645 31.905C77.2075 32.0511 77.4002 32.763 77.0574 33.2884Z" fill="#FFC3BD"/>
<path d="M73.0412 31.4019C73.0249 31.5662 72.9255 31.6899 72.818 31.6798C72.7105 31.6696 72.6355 31.5256 72.6497 31.3613C72.6639 31.197 72.7653 31.0712 72.8748 31.0814C72.9844 31.0915 73.0574 31.2416 73.0412 31.4019Z" fill="#263238"/>
<path d="M71.2907 31.2598C71.2744 31.4241 71.1751 31.5478 71.0675 31.5377C70.96 31.5275 70.885 31.3835 70.8992 31.2192C70.9134 31.0549 71.0148 30.9292 71.1243 30.9393C71.2339 30.9494 71.3069 31.0935 71.2907 31.2598Z" fill="#263238"/>
<path d="M72.8302 33.2294C73.0898 33.4201 73.8281 33.2964 73.8788 33.0266C74.3555 33.3512 73.9661 33.8562 73.2703 34.0104C72.5746 34.1645 71.6719 33.8826 71.4731 33.6311L71.4975 32.7974C72.0249 32.698 72.3717 32.8968 72.8302 33.2294Z" fill="#263238"/>
<path d="M70.5037 33.0205C70.2217 33.2071 70.0392 33.0874 70.0493 32.8177C69.6071 33.0854 69.6436 33.5073 70.1609 33.7365C70.6781 33.9657 71.2765 33.8603 71.4814 33.6351L71.5301 32.8116C71.1325 32.6615 70.9297 32.7406 70.5037 33.0205Z" fill="#263238"/>
<path d="M71.8463 31.4446L71.7246 32.832C71.7246 32.832 71.1851 32.905 70.895 32.6413C71.0985 32.164 71.4272 31.7505 71.8463 31.4446V31.4446Z" fill="#ED847E"/>
<path d="M73.6356 30.9109C73.6529 30.911 73.6698 30.906 73.6843 30.8967C73.706 30.8829 73.7214 30.8611 73.7271 30.836C73.7328 30.8109 73.7284 30.7846 73.7147 30.7628C73.6371 30.6286 73.5284 30.5149 73.3979 30.4313C73.2673 30.3477 73.1186 30.2965 72.9642 30.2821C72.9515 30.2815 72.9389 30.2835 72.927 30.2879C72.9151 30.2924 72.9042 30.2991 72.8949 30.3078C72.8856 30.3165 72.8782 30.327 72.873 30.3386C72.8679 30.3502 72.8651 30.3627 72.8648 30.3754C72.8643 30.3882 72.8663 30.4009 72.8707 30.413C72.8751 30.425 72.8818 30.436 72.8905 30.4454C72.8991 30.4549 72.9096 30.4625 72.9212 30.4679C72.9328 30.4732 72.9454 30.4763 72.9581 30.4768V30.4768C73.0804 30.4902 73.1978 30.5322 73.3007 30.5996C73.4036 30.6669 73.4892 30.7576 73.5504 30.8642C73.5592 30.8789 73.5717 30.891 73.5867 30.8992C73.6016 30.9074 73.6186 30.9115 73.6356 30.9109V30.9109Z" fill="#263238"/>
<path d="M70.3878 30.6695C70.4041 30.6708 70.4204 30.6679 70.4353 30.6612C70.4502 30.6544 70.4632 30.6441 70.473 30.631C70.5449 30.5328 70.6394 30.4533 70.7485 30.3993C70.8576 30.3453 70.9781 30.3183 71.0998 30.3207C71.1126 30.3218 71.1254 30.3203 71.1377 30.3164C71.1499 30.3126 71.1613 30.3063 71.1711 30.298C71.1809 30.2897 71.1889 30.2795 71.1948 30.2681C71.2007 30.2567 71.2042 30.2442 71.2052 30.2314C71.2069 30.2057 71.1986 30.1803 71.1819 30.1606C71.1653 30.1409 71.1416 30.1285 71.116 30.1259C70.9619 30.1212 70.809 30.1538 70.6702 30.2209C70.5314 30.288 70.4109 30.3877 70.3188 30.5113C70.3031 30.5316 70.296 30.5572 70.299 30.5826C70.3021 30.6081 70.315 30.6313 70.335 30.6472C70.3503 30.6592 70.3685 30.6669 70.3878 30.6695V30.6695Z" fill="#263238"/>
<path d="M84.7977 53.7428L86.0147 53.2681C87.388 53.256 87.0999 55.0247 87.0999 55.0247L87.3028 55.9314C87.3289 56.0933 87.2965 56.2592 87.2114 56.3993C87.1262 56.5395 86.994 56.6447 86.8383 56.6962L85.9884 57.0349C85.8183 57.1152 85.6235 57.1258 85.4458 57.0644C85.268 57.003 85.1213 56.8745 85.037 56.7063L84.7308 55.9558C84.6421 55.7374 84.6087 55.5005 84.6334 55.2661L84.7977 53.7428Z" fill="#FFC3BD"/>
<path d="M80.6074 37.1401L80.8731 37.343L81.1125 37.5458C81.2687 37.6756 81.4188 37.8075 81.5689 37.9393C81.8691 38.2051 82.1632 38.4728 82.4512 38.7507C83.0273 39.3004 83.5811 39.8826 84.1166 40.4911C84.387 40.7953 84.6487 41.1091 84.9016 41.4323C85.1544 41.7555 85.4006 42.0935 85.6399 42.4465C86.139 43.171 86.5721 43.9388 86.934 44.7406L87.1146 45.1463L87.1369 45.4465C87.1917 46.1524 87.2342 46.8664 87.2789 47.5702L87.4148 49.694C87.4919 51.1139 87.5689 52.5338 87.6176 53.9537L84.0537 54.3492C83.7859 52.9577 83.5486 51.5622 83.3072 50.1686L82.9665 48.0774C82.8529 47.3796 82.7393 46.6818 82.6358 45.984L82.8387 46.6899C82.5504 46.1739 82.2178 45.6839 81.8448 45.2254C81.4512 44.7406 81.0172 44.2619 80.5547 43.7933C80.0922 43.3248 79.5993 42.8724 79.0922 42.4343C78.8393 42.2125 78.5817 41.9968 78.3194 41.7872L77.9299 41.4789L77.7372 41.3308L77.5688 41.2051L80.6074 37.1401Z" fill="#407BFF"/>
<g opacity="0.7">
<path opacity="0.7" d="M80.6074 37.1401L80.8731 37.343L81.1125 37.5458C81.2687 37.6756 81.4188 37.8075 81.5689 37.9393C81.8691 38.2051 82.1632 38.4728 82.4512 38.7507C83.0273 39.3004 83.5811 39.8826 84.1166 40.4911C84.387 40.7953 84.6487 41.1091 84.9016 41.4323C85.1544 41.7555 85.4006 42.0935 85.6399 42.4465C86.139 43.171 86.5721 43.9388 86.934 44.7406L87.1146 45.1463L87.1369 45.4465C87.1917 46.1524 87.2342 46.8664 87.2789 47.5702L87.4148 49.694C87.4919 51.1139 87.5689 52.5338 87.6176 53.9537L84.0537 54.3492C83.7859 52.9577 83.5486 51.5622 83.3072 50.1686L82.9665 48.0774C82.8529 47.3796 82.7393 46.6818 82.6358 45.984L82.8387 46.6899C82.5504 46.1739 82.2178 45.6839 81.8448 45.2254C81.4512 44.7406 81.0172 44.2619 80.5547 43.7933C80.0922 43.3248 79.5993 42.8724 79.0922 42.4343C78.8393 42.2125 78.5817 41.9968 78.3194 41.7872L77.9299 41.4789L77.7372 41.3308L77.5688 41.2051L80.6074 37.1401Z" fill="white"/>
</g>
<path d="M75.4815 35.7427C75.4815 35.7427 74.2645 37.4891 72.4937 37.7366C73.2092 38.0318 73.8481 38.4861 74.3618 39.0652C74.3618 39.0652 76.1874 37.6453 76.4369 36.2538C76.2604 35.7528 75.4815 35.7427 75.4815 35.7427Z" fill="#407BFF"/>
<path opacity="0.3" d="M72.4511 70.2217C72.4277 70.2221 72.4048 70.2142 72.3866 70.1993C72.3684 70.1845 72.356 70.1637 72.3517 70.1406C69.5525 56.3331 71.2118 42.189 71.228 42.047C71.2296 42.0337 71.2338 42.0208 71.2404 42.0091C71.2469 41.9974 71.2558 41.9871 71.2663 41.9789C71.2769 41.9706 71.2889 41.9644 71.3018 41.9608C71.3148 41.9572 71.3283 41.9562 71.3416 41.9578C71.3549 41.9594 71.3678 41.9636 71.3795 41.9701C71.3912 41.9767 71.4015 41.9855 71.4097 41.9961C71.418 42.0066 71.4242 42.0187 71.4278 42.0316C71.4314 42.0445 71.4324 42.058 71.4308 42.0714C71.4146 42.2133 69.7594 56.325 72.5526 70.1C72.5574 70.1263 72.5519 70.1535 72.5371 70.1758C72.5224 70.1981 72.4995 70.2138 72.4734 70.2197L72.4511 70.2217Z" fill="#407BFF"/>
<path d="M75.4428 45.5723H72.39C72.3375 45.5737 72.2854 45.5635 72.2374 45.5422C72.1894 45.5209 72.1467 45.4892 72.1125 45.4494C72.0783 45.4096 72.0534 45.3626 72.0397 45.3119C72.0259 45.2612 72.0236 45.2081 72.033 45.1565L72.2359 43.763C72.2583 43.6509 72.318 43.5498 72.4054 43.4761C72.4927 43.4025 72.6024 43.3606 72.7166 43.3573H75.7592C75.8107 43.3561 75.8618 43.3662 75.909 43.3869C75.9561 43.4076 75.9982 43.4383 76.0322 43.477C76.0662 43.5156 76.0914 43.5612 76.1059 43.6107C76.1204 43.6601 76.1239 43.712 76.1162 43.763L75.9134 45.1565C75.8934 45.2687 75.836 45.3709 75.7506 45.4464C75.6651 45.5219 75.5566 45.5663 75.4428 45.5723V45.5723Z" fill="white"/>
<path d="M74.3619 43.6878H74.0313C74.0179 43.6883 74.0045 43.6858 73.9922 43.6805C73.9799 43.6752 73.969 43.6671 73.9602 43.657C73.9515 43.6469 73.9451 43.6349 73.9416 43.622C73.9381 43.609 73.9375 43.5955 73.94 43.5823L74.0637 42.7547C74.0684 42.7257 74.0832 42.6992 74.1055 42.6799C74.1277 42.6607 74.156 42.6498 74.1854 42.6492H74.516C74.5294 42.6487 74.5428 42.6512 74.5551 42.6565C74.5674 42.6619 74.5783 42.6699 74.5871 42.68C74.5958 42.6901 74.6022 42.7021 74.6057 42.7151C74.6092 42.728 74.6098 42.7415 74.6073 42.7547L74.4836 43.5823C74.4789 43.6114 74.4641 43.6378 74.4418 43.6571C74.4196 43.6764 74.3913 43.6872 74.3619 43.6878V43.6878Z" fill="#407BFF"/>
<path d="M71.8585 38.3695L71.0167 37.7427L70.0532 38.126C70.0532 38.126 70.8788 38.905 71.8585 38.3695Z" fill="#407BFF"/>
<path opacity="0.3" d="M71.8585 38.3695L71.0167 37.7427L70.0532 38.126C70.0532 38.126 70.8788 38.905 71.8585 38.3695Z" fill="black"/>
<path d="M71.6174 36.2984C71.6174 36.2984 71.0089 37.1625 71.0089 37.7426C70.4004 38.0225 69.4795 38.7994 69.4795 38.7994C69.4795 38.7994 69.5992 37.5824 70.8182 36.5215C71.0561 36.3683 71.3346 36.2905 71.6174 36.2984V36.2984Z" fill="#407BFF"/>
<path d="M88.7026 85.2806L88.1447 85.6619L87.8405 85.5382L87.7025 85.9662L84.3394 88.2644C84.1373 88.0139 84.0051 87.7143 83.9561 87.3962C83.9561 87.3962 84.9013 86.6173 84.9439 85.8506C84.945 85.8219 84.9541 85.7942 84.9702 85.7705C84.9864 85.7468 85.0089 85.7281 85.0352 85.7167C85.4185 85.5585 86.9196 84.9053 87.4693 84.1366C87.4827 84.1173 87.5006 84.1016 87.5215 84.0907C87.5423 84.0799 87.5655 84.0742 87.5889 84.0742C87.6124 84.0742 87.6356 84.0799 87.6564 84.0907C87.6773 84.1016 87.6952 84.1173 87.7086 84.1366C88.0105 84.5425 88.3428 84.9249 88.7026 85.2806V85.2806Z" fill="#263238"/>
</svg>
