<svg width="108" height="108" viewBox="0 0 108 108" fill="none" xmlns="http://www.w3.org/2000/svg">
<circle cx="54" cy="54" r="54" fill="#EFEBE9"/>
<path d="M106.455 83.3105H0.605469V83.3635H106.455V83.3105Z" fill="#EBEBEB"/>
<path d="M18.7229 85.326H11.7114V85.379H18.7229V85.326Z" fill="#EBEBEB"/>
<path d="M46.7562 84.7522H36.8359V84.8051H46.7562V84.7522Z" fill="#EBEBEB"/>
<path d="M32.8008 87.2925H25.8677V87.3454H32.8008V87.2925Z" fill="#EBEBEB"/>
<path d="M95.849 86.9369H94.1787V86.9898H95.849V86.9369Z" fill="#EBEBEB"/>
<path d="M92.2947 86.9369H83.4795V86.9898H92.2947V86.9369Z" fill="#EBEBEB"/>
<path d="M68.4195 86.0435H59.291V86.0964H68.4195V86.0435Z" fill="#EBEBEB"/>
<path d="M50.7782 73.8687H9.90103C9.5808 73.8682 9.27388 73.7406 9.04764 73.5139C8.8214 73.2873 8.69434 72.9802 8.69434 72.6599V15.1982C8.69712 14.8798 8.82542 14.5754 9.05136 14.351C9.27729 14.1267 9.58262 14.0005 9.90103 14H50.7782C51.0988 14 51.4062 14.1274 51.6329 14.3541C51.8596 14.5807 51.987 14.8882 51.987 15.2088V72.6599C51.987 72.9805 51.8596 73.288 51.6329 73.5147C51.4062 73.7414 51.0988 73.8687 50.7782 73.8687V73.8687ZM9.90103 14.0423C9.59483 14.0429 9.30137 14.1649 9.08506 14.3816C8.86875 14.5983 8.74726 14.892 8.74726 15.1982V72.6599C8.74726 72.9661 8.86875 73.2598 9.08506 73.4765C9.30137 73.6932 9.59483 73.8152 9.90103 73.8158H50.7782C51.0845 73.8152 51.3782 73.6933 51.5949 73.4766C51.8115 73.26 51.9335 72.9663 51.934 72.6599V15.1982C51.9335 14.8918 51.8115 14.5982 51.5949 14.3815C51.3782 14.1649 51.0845 14.0429 50.7782 14.0423H9.90103Z" fill="#EBEBEB"/>
<path d="M96.571 73.8687H55.6917C55.3713 73.8682 55.0642 73.7406 54.8376 73.5141C54.611 73.2875 54.4835 72.9804 54.4829 72.6599V15.1982C54.4863 14.8796 54.615 14.5752 54.8413 14.3509C55.0676 14.1266 55.3731 14.0005 55.6917 14H96.571C96.889 14.0011 97.1938 14.1275 97.4193 14.3518C97.6448 14.5761 97.7728 14.8802 97.7755 15.1982V72.6599C97.7755 72.9798 97.6488 73.2866 97.423 73.5132C97.1972 73.7398 96.8908 73.8676 96.571 73.8687V73.8687ZM55.6917 14.0423C55.3853 14.0429 55.0917 14.1649 54.875 14.3815C54.6584 14.5982 54.5364 14.8918 54.5358 15.1982V72.6599C54.5364 72.9663 54.6584 73.26 54.875 73.4766C55.0917 73.6933 55.3853 73.8152 55.6917 73.8158H96.571C96.8774 73.8152 97.171 73.6933 97.3877 73.4766C97.6043 73.26 97.7263 72.9663 97.7269 72.6599V15.1982C97.7263 14.8918 97.6043 14.5982 97.3877 14.3815C97.171 14.1649 96.8774 14.0429 96.571 14.0423H55.6917Z" fill="#EBEBEB"/>
<path d="M81.7904 34.8737H93.2349V21.7059H81.7904V34.8737Z" fill="#EBEBEB"/>
<path d="M83.037 22.5463C83.049 22.5457 83.0606 22.5421 83.0708 22.5357C83.1026 22.5166 86.3014 20.6134 87.3196 20.6134C88.3379 20.6134 91.3885 22.5187 91.4203 22.5357C91.4276 22.5403 91.4358 22.5435 91.4444 22.5449C91.453 22.5464 91.4618 22.5461 91.4702 22.5441C91.4787 22.5422 91.4867 22.5385 91.4937 22.5334C91.5008 22.5283 91.5068 22.5219 91.5113 22.5145C91.5201 22.4995 91.5229 22.4817 91.5189 22.4647C91.515 22.4478 91.5047 22.433 91.4901 22.4235C91.3631 22.343 88.3739 20.4822 87.3196 20.4822C86.2654 20.4822 83.1343 22.343 83.0031 22.4235C82.9955 22.4278 82.9889 22.4337 82.9836 22.4407C82.9783 22.4476 82.9744 22.4556 82.9723 22.4641C82.9701 22.4726 82.9696 22.4814 82.9709 22.49C82.9722 22.4987 82.9752 22.507 82.9798 22.5145C82.986 22.5241 82.9945 22.5319 83.0044 22.5375C83.0144 22.543 83.0256 22.546 83.037 22.5463V22.5463Z" fill="#EBEBEB"/>
<path d="M80.4923 34.8737H92.8789V21.7059H80.4923V34.8737Z" fill="#F5F5F5"/>
<path d="M91.8418 33.8364V22.7455H81.532V33.8364H91.8418Z" fill="white"/>
<path d="M86.0834 30.1568C86.0834 29.9056 86.0089 29.66 85.8693 29.4511C85.7297 29.2422 85.5314 29.0794 85.2993 28.9833C85.0672 28.8871 84.8118 28.862 84.5654 28.911C84.319 28.96 84.0926 29.081 83.915 29.2586C83.7374 29.4363 83.6164 29.6626 83.5674 29.909C83.5184 30.1554 83.5435 30.4108 83.6397 30.6429C83.7358 30.875 83.8986 31.0734 84.1075 31.2129C84.3164 31.3525 84.5619 31.427 84.8132 31.427C85.15 31.427 85.4731 31.2932 85.7113 31.055C85.9495 30.8168 86.0834 30.4937 86.0834 30.1568V30.1568Z" fill="#F5F5F5"/>
<path d="M89.8138 26.4247C89.8138 26.1735 89.7393 25.9279 89.5998 25.7191C89.4602 25.5102 89.2618 25.3474 89.0297 25.2512C88.7976 25.1551 88.5422 25.1299 88.2958 25.1789C88.0494 25.228 87.8231 25.3489 87.6455 25.5266C87.4678 25.7042 87.3469 25.9305 87.2978 26.1769C87.2488 26.4233 87.274 26.6787 87.3701 26.9108C87.4663 27.1429 87.6291 27.3413 87.838 27.4809C88.0468 27.6204 88.2924 27.6949 88.5436 27.6949C88.8805 27.6949 89.2036 27.5611 89.4418 27.3229C89.68 27.0847 89.8138 26.7616 89.8138 26.4247V26.4247Z" fill="#F5F5F5"/>
<path d="M65.3919 45.6681H76.8364V32.5004H65.3919V45.6681Z" fill="#EBEBEB"/>
<path d="M66.6366 33.3409C66.6477 33.3438 66.6593 33.3438 66.6704 33.3409C66.7022 33.3218 69.901 31.4187 70.9193 31.4187C71.9375 31.4187 74.9881 33.324 75.0199 33.3388C75.0272 33.3434 75.0354 33.3466 75.044 33.348C75.0526 33.3495 75.0614 33.3492 75.0698 33.3472C75.0783 33.3453 75.0863 33.3416 75.0933 33.3365C75.1004 33.3314 75.1064 33.325 75.1109 33.3176C75.1198 33.3026 75.1225 33.2848 75.1185 33.2678C75.1146 33.2509 75.1043 33.2361 75.0898 33.2266C74.9627 33.1482 71.9735 31.2853 70.9193 31.2853C69.865 31.2853 66.734 33.1461 66.6027 33.2266C66.5951 33.2309 66.5885 33.2368 66.5832 33.2438C66.5779 33.2507 66.574 33.2587 66.5719 33.2672C66.5697 33.2757 66.5693 33.2845 66.5705 33.2931C66.5718 33.3018 66.5749 33.3101 66.5794 33.3176C66.5863 33.3259 66.5951 33.3323 66.6051 33.3364C66.6151 33.3404 66.6259 33.342 66.6366 33.3409V33.3409Z" fill="#EBEBEB"/>
<path d="M64.092 45.6681H76.4785V32.5004H64.092V45.6681Z" fill="#F5F5F5"/>
<path d="M75.4395 44.6309V33.5399H65.1297V44.6309H75.4395Z" fill="white"/>
<path d="M69.3065 41.3262C69.3065 41.075 69.232 40.8294 69.0924 40.6205C68.9529 40.4117 68.7545 40.2489 68.5224 40.1527C68.2903 40.0566 68.0349 40.0314 67.7885 40.0804C67.5421 40.1294 67.3158 40.2504 67.1382 40.4281C66.9605 40.6057 66.8395 40.832 66.7905 41.0784C66.7415 41.3248 66.7667 41.5802 66.8628 41.8123C66.9589 42.0444 67.1217 42.2428 67.3306 42.3824C67.5395 42.5219 67.7851 42.5964 68.0363 42.5964C68.3732 42.5964 68.6963 42.4626 68.9345 42.2244C69.1727 41.9862 69.3065 41.6631 69.3065 41.3262V41.3262Z" fill="#F5F5F5"/>
<path d="M73.788 36.8447C73.788 36.5934 73.7135 36.3479 73.5739 36.139C73.4343 35.9301 73.2359 35.7673 73.0038 35.6712C72.7717 35.575 72.5164 35.5499 72.27 35.5989C72.0236 35.6479 71.7972 35.7689 71.6196 35.9465C71.4419 36.1241 71.321 36.3505 71.272 36.5969C71.223 36.8433 71.2481 37.0986 71.3442 37.3307C71.4404 37.5628 71.6032 37.7612 71.8121 37.9008C72.021 38.0404 72.2665 38.1149 72.5178 38.1149C72.8546 38.1149 73.1777 37.981 73.4159 37.7428C73.6541 37.5046 73.788 37.1815 73.788 36.8447V36.8447Z" fill="#F5F5F5"/>
<path d="M71.2646 41.3262C71.2646 41.075 71.3391 40.8294 71.4787 40.6205C71.6183 40.4117 71.8167 40.2489 72.0488 40.1527C72.2809 40.0566 72.5363 40.0314 72.7827 40.0804C73.0291 40.1294 73.2554 40.2504 73.433 40.4281C73.6107 40.6057 73.7316 40.832 73.7806 41.0784C73.8297 41.3248 73.8045 41.5802 73.7084 41.8123C73.6122 42.0444 73.4494 42.2428 73.2405 42.3824C73.0317 42.5219 72.7861 42.5964 72.5348 42.5964C72.198 42.5964 71.8749 42.4626 71.6367 42.2244C71.3985 41.9862 71.2646 41.6631 71.2646 41.3262V41.3262Z" fill="#F5F5F5"/>
<path d="M66.7808 36.8447C66.7808 36.5934 66.8553 36.3479 66.9948 36.139C67.1344 35.9301 67.3328 35.7673 67.5649 35.6712C67.797 35.575 68.0524 35.5499 68.2988 35.5989C68.5452 35.6479 68.7715 35.7689 68.9491 35.9465C69.1268 36.1241 69.2477 36.3505 69.2968 36.5969C69.3458 36.8433 69.3206 37.0986 69.2245 37.3307C69.1283 37.5628 68.9655 37.7612 68.7566 37.9008C68.5478 38.0404 68.3022 38.1149 68.051 38.1149C67.7141 38.1149 67.391 37.981 67.1528 37.7428C66.9146 37.5046 66.7808 37.1815 66.7808 36.8447V36.8447Z" fill="#F5F5F5"/>
<path d="M17.1116 54.2272L58.355 54.2272L58.355 19.14L17.1116 19.14L17.1116 54.2272Z" fill="#E6E6E6"/>
<path d="M16.5188 54.2272L57.7622 54.2272L57.7622 19.14L16.5188 19.14L16.5188 54.2272Z" fill="#F5F5F5"/>
<path d="M56.6997 53.0331V20.334L17.5839 20.334V53.0331H56.6997Z" fill="white"/>
<path d="M18.0303 53.0332L18.0303 20.334H17.5815L17.5815 53.0332H18.0303Z" fill="#E6E6E6"/>
<path d="M16.9591 49.4132L57.3218 49.4132V47.8085L16.9591 47.8085V49.4132Z" fill="#F5F5F5"/>
<path d="M15.3609 17.1627H59.5131C59.5347 17.1625 59.5561 17.1665 59.5761 17.1745C59.5961 17.1826 59.6143 17.1946 59.6297 17.2097C59.6451 17.2249 59.6573 17.243 59.6656 17.2629C59.6739 17.2828 59.6782 17.3042 59.6782 17.3257C59.6782 17.3473 59.6739 17.3687 59.6656 17.3886C59.6573 17.4085 59.6451 17.4266 59.6297 17.4418C59.6143 17.4569 59.5961 17.4689 59.5761 17.477C59.5561 17.485 59.5347 17.489 59.5131 17.4888H15.3609C15.3393 17.489 15.3179 17.485 15.2979 17.477C15.2779 17.4689 15.2597 17.4569 15.2443 17.4418C15.2289 17.4266 15.2167 17.4085 15.2084 17.3886C15.2001 17.3687 15.1958 17.3473 15.1958 17.3257V17.3257C15.1958 17.3042 15.2001 17.2828 15.2084 17.2629C15.2167 17.243 15.2289 17.2249 15.2443 17.2097C15.2597 17.1946 15.2779 17.1826 15.2979 17.1745C15.3179 17.1665 15.3393 17.1625 15.3609 17.1627V17.1627Z" fill="#E6E6E6"/>
<path d="M14.3789 17.3258C14.3789 17.4879 14.427 17.6464 14.5171 17.7811C14.6072 17.9159 14.7353 18.0209 14.8852 18.0829C15.035 18.1448 15.1998 18.1609 15.3588 18.1291C15.5178 18.0973 15.6638 18.0191 15.7783 17.9043C15.8927 17.7895 15.9706 17.6433 16.002 17.4843C16.0334 17.3252 16.0168 17.1604 15.9545 17.0108C15.8922 16.8611 15.7868 16.7333 15.6518 16.6435C15.5168 16.5537 15.3582 16.5061 15.1961 16.5065C15.0886 16.5065 14.9821 16.5277 14.8829 16.5689C14.7836 16.6101 14.6934 16.6705 14.6175 16.7466C14.5416 16.8227 14.4814 16.913 14.4405 17.0124C14.3996 17.1118 14.3786 17.2183 14.3789 17.3258V17.3258Z" fill="#E6E6E6"/>
<path d="M58.1326 18.234C58.1613 18.2354 58.19 18.231 58.2169 18.221C58.2438 18.211 58.2684 18.1956 58.2892 18.1758C58.31 18.156 58.3265 18.1322 58.3378 18.1058C58.3491 18.0794 58.3549 18.051 58.3549 18.0223V17.5459C58.3549 17.5172 58.3491 17.4888 58.3378 17.4624C58.3265 17.436 58.31 17.4122 58.2892 17.3924C58.2684 17.3726 58.2438 17.3572 58.2169 17.3472C58.19 17.3372 58.1613 17.3328 58.1326 17.3342C58.0765 17.3342 58.0226 17.3566 57.9829 17.3963C57.9432 17.436 57.9209 17.4898 57.9209 17.5459V18.0223C57.9209 18.0784 57.9432 18.1323 57.9829 18.172C58.0226 18.2117 58.0765 18.234 58.1326 18.234Z" fill="#E6E6E6"/>
<path d="M17.8294 18.234C17.8855 18.234 17.9394 18.2116 17.9791 18.1719C18.0188 18.1322 18.0411 18.0784 18.0411 18.0223V17.5459C18.0411 17.4898 18.0188 17.4359 17.9791 17.3962C17.9394 17.3565 17.8855 17.3342 17.8294 17.3342C17.7732 17.3342 17.7194 17.3565 17.6797 17.3962C17.64 17.4359 17.6177 17.4898 17.6177 17.5459V18.0223C17.6177 18.0784 17.64 18.1322 17.6797 18.1719C17.7194 18.2116 17.7732 18.234 17.8294 18.234Z" fill="#E6E6E6"/>
<path opacity="0.4" d="M15.4115 44.235L57.3218 44.235V17.3258L15.4115 17.3258V44.235Z" fill="#E0E0E0"/>
<path d="M54.6821 17.3257C54.6821 17.4878 54.7302 17.6462 54.8202 17.7809C54.9102 17.9156 55.0382 18.0207 55.1879 18.0827C55.3376 18.1447 55.5023 18.1609 55.6612 18.1293C55.8202 18.0977 55.9661 18.0196 56.0807 17.9051C56.1953 17.7905 56.2733 17.6445 56.3049 17.4856C56.3366 17.3267 56.3203 17.1619 56.2583 17.0122C56.1963 16.8625 56.0913 16.7346 55.9566 16.6445C55.8218 16.5545 55.6634 16.5065 55.5014 16.5065C55.2841 16.5065 55.0757 16.5928 54.9221 16.7464C54.7684 16.9001 54.6821 17.1085 54.6821 17.3257V17.3257Z" fill="#E6E6E6"/>
<path d="M79.8341 60.0384H79.6817C79.688 60.0098 79.6922 59.9808 79.6944 59.9516C79.6944 59.3165 78.9175 58.7979 77.9564 58.7958C78.016 58.667 78.0478 58.527 78.0495 58.3851C78.0495 57.75 77.4377 57.2271 76.6798 57.2271C76.4733 57.2279 76.2689 57.2696 76.0786 57.3498C76.0857 57.3092 76.0907 57.2682 76.0934 57.2271C76.0934 56.4014 75.3016 55.7303 74.3236 55.7303C73.5022 55.7303 72.8205 56.2046 72.6173 56.8439C72.3595 56.5757 72.0492 56.3635 71.7057 56.2207C71.3622 56.0779 70.9929 56.0076 70.621 56.014C70.1931 56.0027 69.769 56.0959 69.3854 56.2855C69.0017 56.4751 68.6701 56.7554 68.4193 57.1022C68.2815 56.9662 68.1181 56.8587 67.9386 56.7861C67.7592 56.7134 67.5671 56.6769 67.3735 56.6788C66.6177 56.6788 66.0059 57.1953 66.0059 57.8346C66.0063 57.9767 66.0381 58.117 66.099 58.2453C65.1379 58.2453 64.3589 58.764 64.3589 59.4033C64.3618 59.4627 64.3711 59.5216 64.3864 59.579H64.2191C62.9489 59.579 61.9243 60.0025 61.9243 60.5465C61.9243 61.0906 62.9511 61.5119 64.2191 61.5119C64.6871 61.5172 65.1532 61.4515 65.6015 61.3171C66.1223 62.0559 67.7461 62.5873 69.6683 62.5873C71.8869 62.5873 73.7075 61.8696 73.9023 60.9551C74.54 61.1789 75.2123 61.2879 75.888 61.2769C76.4476 61.2813 77.0052 61.21 77.5457 61.0652H77.5562C77.6452 61.5648 78.6338 61.9586 79.8426 61.9586C81.1128 61.9586 82.1395 61.5246 82.1395 60.9911C82.1395 60.4576 81.1022 60.0384 79.8341 60.0384Z" fill="#E6E6E6"/>
<path d="M83.1136 60.6227C83.5813 60.6227 84.0299 60.8085 84.3606 61.1392C84.6913 61.4699 84.8771 61.9184 84.8771 62.3861C84.8771 64.338 80.0376 65.9363 74.1227 65.9363H68.7836C62.8688 65.9363 58.0293 64.338 58.0293 62.3861C58.0293 61.9184 58.2151 61.4699 58.5458 61.1392C58.8765 60.8085 59.3251 60.6227 59.7928 60.6227H83.1136Z" fill="#F0F0F0"/>
<path d="M34.035 83.3105H43.3921V65.9363H34.035V83.3105Z" fill="#E6E6E6"/>
<path d="M35.811 83.3106H34.0327V81.6869H37.674L35.811 83.3106Z" fill="#F0F0F0"/>
<path d="M84.7942 83.3105H94.1514V65.9363H84.7942V83.3105Z" fill="#E6E6E6"/>
<path d="M34.0351 82.5928H86.3462V65.9383H34.0351V82.5928Z" fill="#F0F0F0"/>
<path d="M84.5675 83.3106H86.3437V81.6869H82.7046L84.5675 83.3106Z" fill="#F0F0F0"/>
<path d="M84.8619 67.4456V73.7966H35.5359V67.4456H84.8619ZM84.9742 67.3334H35.4131V73.9109H84.9657V67.3334H84.9742Z" fill="#FAFAFA"/>
<path d="M84.8619 74.7262V81.0772H35.5359V74.7262H84.8619ZM84.9742 74.614H35.4131V81.1958H84.9657V74.614H84.9742Z" fill="#FAFAFA"/>
<path d="M55.6265 67.9835H64.7508C64.8371 67.9835 64.9226 67.9664 65.0024 67.9333C65.0822 67.9002 65.1546 67.8517 65.2156 67.7905C65.2765 67.7293 65.3248 67.6567 65.3577 67.5769C65.3905 67.497 65.4073 67.4114 65.407 67.3251H54.9702C54.9699 67.4114 54.9867 67.497 55.0196 67.5769C55.0524 67.6567 55.1007 67.7293 55.1617 67.7905C55.2227 67.8517 55.2951 67.9002 55.3749 67.9333C55.4546 67.9664 55.5401 67.9835 55.6265 67.9835V67.9835Z" fill="#FAFAFA"/>
<path d="M55.6265 75.2703H64.7508C64.8369 75.2703 64.9223 75.2533 65.0019 75.2203C65.0815 75.1873 65.1539 75.139 65.2148 75.0781C65.2757 75.0171 65.3241 74.9448 65.3571 74.8652C65.39 74.7855 65.407 74.7002 65.407 74.614H54.9702C54.9702 74.7881 55.0394 74.955 55.1624 75.0781C55.2855 75.2011 55.4524 75.2703 55.6265 75.2703V75.2703Z" fill="#FAFAFA"/>
<path d="M53.5304 92.8711C76.1997 92.8711 94.5769 91.7982 94.5769 90.4747C94.5769 89.1512 76.1997 88.0782 53.5304 88.0782C30.861 88.0782 12.4839 89.1512 12.4839 90.4747C12.4839 91.7982 30.861 92.8711 53.5304 92.8711Z" fill="#F5F5F5"/>
<path d="M28.5312 41.8707L28.3428 41.7733C29.9874 38.5623 32.196 35.6732 34.8631 33.2439L35.0071 33.4006C32.3582 35.8129 30.1647 38.6819 28.5312 41.8707V41.8707Z" fill="#407BFF"/>
<path d="M25.8806 49.4282L25.6689 49.3859C25.9754 47.8889 26.3958 46.4175 26.9264 44.9846L27.1254 45.0587C26.599 46.4811 26.1829 47.9419 25.8806 49.4282V49.4282Z" fill="#407BFF"/>
<path opacity="0.9" d="M71.9445 72.3011C81.2941 62.9515 81.2941 47.7928 71.9445 38.4432C62.5949 29.0937 47.4363 29.0937 38.0867 38.4432C28.7371 47.7928 28.7371 62.9515 38.0867 72.3011C47.4363 81.6507 62.5949 81.6507 71.9445 72.3011Z" fill="#FAFAFA"/>
<g opacity="0.4">
<path opacity="0.4" d="M38.0749 68.7628H32.4458L33.5339 66.0912H36.9868L38.0749 68.7628Z" fill="#407BFF"/>
<path opacity="0.2" d="M38.0749 68.7628H32.4458L33.5339 66.0912H36.9868L38.0749 68.7628Z" fill="#FAFAFA"/>
<path opacity="0.4" d="M46.6293 68.7628H38.0745L36.9863 66.0912H45.5411L46.6293 68.7628Z" fill="#407BFF"/>
<path opacity="0.3" d="M46.6293 68.7628H38.0745L36.9863 66.0912H45.5411L46.6293 68.7628Z" fill="black"/>
<path opacity="0.4" d="M45.2596 68.7628H39.6284L40.7166 66.0912H44.1715L45.2596 68.7628Z" fill="#407BFF"/>
<path opacity="0.2" d="M45.2596 68.7628H39.6284L40.7166 66.0912H44.1715L45.2596 68.7628Z" fill="#FAFAFA"/>
<path opacity="0.4" d="M53.8122 68.7628H45.2595L44.1714 66.0912H52.7241L53.8122 68.7628Z" fill="#407BFF"/>
<path opacity="0.3" d="M53.8122 68.7628H45.2595L44.1714 66.0912H52.7241L53.8122 68.7628Z" fill="black"/>
<path opacity="0.4" d="M52.4426 68.7628H46.8135L47.9016 66.0912H51.3544L52.4426 68.7628Z" fill="#407BFF"/>
<path opacity="0.2" d="M52.4426 68.7628H46.8135L47.9016 66.0912H51.3544L52.4426 68.7628Z" fill="#FAFAFA"/>
<path opacity="0.4" d="M60.9953 68.7628H52.4426L51.3545 66.0912H59.9093L60.9953 68.7628Z" fill="#407BFF"/>
<path opacity="0.3" d="M60.9953 68.7628H52.4426L51.3545 66.0912H59.9093L60.9953 68.7628Z" fill="black"/>
<path opacity="0.4" d="M59.6257 68.7628H53.9966L55.0847 66.0912H58.5375L59.6257 68.7628Z" fill="#407BFF"/>
<path opacity="0.2" d="M59.6257 68.7628H53.9966L55.0847 66.0912H58.5375L59.6257 68.7628Z" fill="#FAFAFA"/>
<path opacity="0.4" d="M68.1805 68.7628H59.6257L58.5376 66.0912H67.0924L68.1805 68.7628Z" fill="#407BFF"/>
<path opacity="0.3" d="M68.1805 68.7628H59.6257L58.5376 66.0912H67.0924L68.1805 68.7628Z" fill="black"/>
<path opacity="0.4" d="M66.8109 68.7628H61.1797L62.2678 66.0912H65.7228L66.8109 68.7628Z" fill="#407BFF"/>
<path opacity="0.2" d="M66.8109 68.7628H61.1797L62.2678 66.0912H65.7228L66.8109 68.7628Z" fill="#FAFAFA"/>
<path opacity="0.4" d="M71.375 68.7628C71.6474 67.8779 71.8944 66.9874 72.116 66.0912H65.7227L66.8108 68.7628H71.375Z" fill="#407BFF"/>
<path opacity="0.3" d="M71.375 68.7628C71.6474 67.8779 71.8944 66.9874 72.116 66.0912H65.7227L66.8108 68.7628H71.375Z" fill="black"/>
<path opacity="0.4" d="M72.1161 66.0912H69.4529L68.3647 68.7628H71.3751C71.6489 67.8779 71.8959 66.9874 72.1161 66.0912Z" fill="#407BFF"/>
<path opacity="0.2" d="M72.1161 66.0912H69.4529L68.3647 68.7628H71.3751C71.6489 67.8779 71.8959 66.9874 72.1161 66.0912Z" fill="#FAFAFA"/>
<path opacity="0.4" d="M40.2699 66.0911H34.6387L35.7268 63.4174H39.1818L40.2699 66.0911Z" fill="#407BFF"/>
<path opacity="0.2" d="M40.2699 66.0911H34.6387L35.7268 63.4174H39.1818L40.2699 66.0911Z" fill="#FAFAFA"/>
<path opacity="0.4" d="M48.8225 66.0911H40.2698L39.1816 63.4174H47.7343L48.8225 66.0911Z" fill="#407BFF"/>
<path opacity="0.3" d="M48.8225 66.0911H40.2698L39.1816 63.4174H47.7343L48.8225 66.0911Z" fill="black"/>
<path opacity="0.4" d="M47.4528 66.0911H41.8237L42.9119 63.4174H46.3647L47.4528 66.0911Z" fill="#407BFF"/>
<path opacity="0.2" d="M47.4528 66.0911H41.8237L42.9119 63.4174H46.3647L47.4528 66.0911Z" fill="#FAFAFA"/>
<path opacity="0.4" d="M56.0056 66.0911H47.4529L46.3647 63.4174H54.9195L56.0056 66.0911Z" fill="#407BFF"/>
<path opacity="0.3" d="M56.0056 66.0911H47.4529L46.3647 63.4174H54.9195L56.0056 66.0911Z" fill="black"/>
<path opacity="0.4" d="M54.6359 66.0911H49.0068L50.095 63.4174H53.5478L54.6359 66.0911Z" fill="#407BFF"/>
<path opacity="0.2" d="M54.6359 66.0911H49.0068L50.095 63.4174H53.5478L54.6359 66.0911Z" fill="#FAFAFA"/>
<path opacity="0.4" d="M63.1908 66.0911H54.636L53.5479 63.4174H62.1026L63.1908 66.0911Z" fill="#407BFF"/>
<path opacity="0.3" d="M63.1908 66.0911H54.636L53.5479 63.4174H62.1026L63.1908 66.0911Z" fill="black"/>
<path opacity="0.4" d="M61.8212 66.0911H56.1899L57.2781 63.4174H60.733L61.8212 66.0911Z" fill="#407BFF"/>
<path opacity="0.2" d="M61.8212 66.0911H56.1899L57.2781 63.4174H60.733L61.8212 66.0911Z" fill="#FAFAFA"/>
<path opacity="0.4" d="M70.3737 66.0911H61.8211L60.7329 63.4174H69.2856L70.3737 66.0911Z" fill="#407BFF"/>
<path opacity="0.3" d="M70.3737 66.0911H61.8211L60.7329 63.4174H69.2856L70.3737 66.0911Z" fill="black"/>
<path opacity="0.4" d="M69.0041 66.0911H63.375L64.4631 63.4174H67.916L69.0041 66.0911Z" fill="#407BFF"/>
<path opacity="0.2" d="M69.0041 66.0911H63.375L64.4631 63.4174H67.916L69.0041 66.0911Z" fill="#FAFAFA"/>
<path opacity="0.4" d="M72.1158 66.0911C72.3275 65.2041 72.5286 64.315 72.6937 63.4174H67.9263L69.0144 66.0911H72.1158Z" fill="#407BFF"/>
<path opacity="0.3" d="M72.1158 66.0911C72.3275 65.2041 72.5286 64.315 72.6937 63.4174H67.9263L69.0144 66.0911H72.1158Z" fill="black"/>
<path opacity="0.4" d="M72.6942 63.4174H71.6462L70.5581 66.0911H72.1162C72.3343 65.2041 72.529 64.315 72.6942 63.4174Z" fill="#407BFF"/>
<path opacity="0.2" d="M72.6942 63.4174H71.6462L70.5581 66.0911H72.1162C72.3343 65.2041 72.529 64.315 72.6942 63.4174Z" fill="#FAFAFA"/>
<path opacity="0.4" d="M42.1501 63.4175H36.521L37.6091 60.7458H41.062L42.1501 63.4175Z" fill="#407BFF"/>
<path opacity="0.2" d="M42.1501 63.4175H36.521L37.6091 60.7458H41.062L42.1501 63.4175Z" fill="#FAFAFA"/>
<path opacity="0.4" d="M50.7045 63.4175H42.1497L41.0615 60.7458H49.6163L50.7045 63.4175Z" fill="#407BFF"/>
<path opacity="0.3" d="M50.7045 63.4175H42.1497L41.0615 60.7458H49.6163L50.7045 63.4175Z" fill="black"/>
<path opacity="0.4" d="M49.3348 63.4175H43.7036L44.7918 60.7458H48.2446L49.3348 63.4175Z" fill="#407BFF"/>
<path opacity="0.2" d="M49.3348 63.4175H43.7036L44.7918 60.7458H48.2446L49.3348 63.4175Z" fill="#FAFAFA"/>
<path opacity="0.4" d="M57.8876 63.4175H49.3349L48.2446 60.7458H56.7994L57.8876 63.4175Z" fill="#407BFF"/>
<path opacity="0.3" d="M57.8876 63.4175H49.3349L48.2446 60.7458H56.7994L57.8876 63.4175Z" fill="black"/>
<path opacity="0.4" d="M56.5178 63.4175H50.8887L51.9768 60.7458H55.4296L56.5178 63.4175Z" fill="#407BFF"/>
<path opacity="0.2" d="M56.5178 63.4175H50.8887L51.9768 60.7458H55.4296L56.5178 63.4175Z" fill="#FAFAFA"/>
<path opacity="0.4" d="M65.0705 63.4175H56.5178L55.4297 60.7458H63.9824L65.0705 63.4175Z" fill="#407BFF"/>
<path opacity="0.3" d="M65.0705 63.4175H56.5178L55.4297 60.7458H63.9824L65.0705 63.4175Z" fill="black"/>
<path opacity="0.4" d="M63.7009 63.4175H58.0718L59.1599 60.7458H62.6127L63.7009 63.4175Z" fill="#407BFF"/>
<path opacity="0.2" d="M63.7009 63.4175H58.0718L59.1599 60.7458H62.6127L63.7009 63.4175Z" fill="#FAFAFA"/>
<path opacity="0.4" d="M72.2557 63.4175H63.7009L62.6128 60.7458H71.1676L72.2557 63.4175Z" fill="#407BFF"/>
<path opacity="0.3" d="M72.2557 63.4175H63.7009L62.6128 60.7458H71.1676L72.2557 63.4175Z" fill="black"/>
<path opacity="0.4" d="M70.8861 63.4175H65.2549L66.343 60.7458H69.798L70.8861 63.4175Z" fill="#407BFF"/>
<path opacity="0.2" d="M70.8861 63.4175H65.2549L66.343 60.7458H69.798L70.8861 63.4175Z" fill="#FAFAFA"/>
<path opacity="0.4" d="M72.6939 63.4175C72.859 62.5326 73.0002 61.642 73.1173 60.7458H69.7979L70.8902 63.4175H72.6939Z" fill="#407BFF"/>
<path opacity="0.3" d="M72.6939 63.4175C72.859 62.5326 73.0002 61.642 73.1173 60.7458H69.7979L70.8902 63.4175H72.6939Z" fill="black"/>
<path opacity="0.4" d="M72.8824 62.3295L72.4399 63.4176H72.694C72.7617 63.0563 72.8245 62.6936 72.8824 62.3295Z" fill="#407BFF"/>
<path opacity="0.2" d="M72.8824 62.3295L72.4399 63.4176H72.694C72.7617 63.0563 72.8245 62.6936 72.8824 62.3295Z" fill="#FAFAFA"/>
<path opacity="0.4" d="M44.343 60.7457H38.7139L39.802 58.0741H43.2569L44.343 60.7457Z" fill="#407BFF"/>
<path opacity="0.2" d="M44.343 60.7457H38.7139L39.802 58.0741H43.2569L44.343 60.7457Z" fill="#FAFAFA"/>
<path opacity="0.4" d="M52.8981 60.7457H44.3433L43.2573 58.0741H51.81L52.8981 60.7457Z" fill="#407BFF"/>
<path opacity="0.3" d="M52.8981 60.7457H44.3433L43.2573 58.0741H51.81L52.8981 60.7457Z" fill="black"/>
<path opacity="0.4" d="M51.528 60.7457H45.8989L46.9871 58.0741H50.4399L51.528 60.7457Z" fill="#407BFF"/>
<path opacity="0.2" d="M51.528 60.7457H45.8989L46.9871 58.0741H50.4399L51.528 60.7457Z" fill="#FAFAFA"/>
<path opacity="0.4" d="M60.0808 60.7457H51.5281L50.4399 58.0741H58.9947L60.0808 60.7457Z" fill="#407BFF"/>
<path opacity="0.3" d="M60.0808 60.7457H51.5281L50.4399 58.0741H58.9947L60.0808 60.7457Z" fill="black"/>
<path opacity="0.4" d="M58.7111 60.7457H53.082L54.1702 58.0741H57.623L58.7111 60.7457Z" fill="#407BFF"/>
<path opacity="0.2" d="M58.7111 60.7457H53.082L54.1702 58.0741H57.623L58.7111 60.7457Z" fill="#FAFAFA"/>
<path opacity="0.4" d="M67.266 60.7457H58.7112L57.623 58.0741H66.1778L67.266 60.7457Z" fill="#407BFF"/>
<path opacity="0.3" d="M67.266 60.7457H58.7112L57.623 58.0741H66.1778L67.266 60.7457Z" fill="black"/>
<path opacity="0.4" d="M65.8964 60.7457H60.2651L61.3533 58.0741H64.8082L65.8964 60.7457Z" fill="#407BFF"/>
<path opacity="0.2" d="M65.8964 60.7457H60.2651L61.3533 58.0741H64.8082L65.8964 60.7457Z" fill="#FAFAFA"/>
<path opacity="0.4" d="M73.1089 60.7457C73.2189 59.858 73.3001 58.9675 73.3523 58.0741H64.8081L65.8962 60.7457H73.1089Z" fill="#407BFF"/>
<path opacity="0.3" d="M73.1089 60.7457C73.2189 59.858 73.3001 58.9675 73.3523 58.0741H64.8081L65.8962 60.7457H73.1089Z" fill="black"/>
<path opacity="0.4" d="M73.0793 60.7457H67.4502L68.5383 58.0741H71.9912L73.0793 60.7457Z" fill="#407BFF"/>
<path opacity="0.2" d="M73.0793 60.7457H67.4502L68.5383 58.0741H71.9912L73.0793 60.7457Z" fill="#FAFAFA"/>
<path opacity="0.4" d="M73.109 60.7457C73.2191 59.858 73.3002 58.9675 73.3524 58.0741H71.9912L73.0793 60.7457H73.109Z" fill="#407BFF"/>
<path opacity="0.3" d="M73.109 60.7457C73.2191 59.858 73.3002 58.9675 73.3524 58.0741H71.9912L73.0793 60.7457H73.109Z" fill="black"/>
<path opacity="0.4" d="M43.096 79.4517H45.0183L43.9301 76.78H39.6665C40.8769 77.5807 42.0236 78.4739 43.096 79.4517Z" fill="#407BFF"/>
<path opacity="0.3" d="M43.096 79.4517H45.0183L43.9301 76.78H39.6665C40.8769 77.5807 42.0236 78.4739 43.096 79.4517Z" fill="black"/>
<path opacity="0.4" d="M43.096 79.4517H43.6486L42.5604 76.78H39.6665C40.8769 77.5807 42.0236 78.4739 43.096 79.4517Z" fill="#407BFF"/>
<path opacity="0.2" d="M43.096 79.4517H43.6486L42.5604 76.78H39.6665C40.8769 77.5807 42.0236 78.4739 43.096 79.4517Z" fill="#FAFAFA"/>
<path opacity="0.4" d="M52.2014 79.4517H43.6487L42.5605 76.78H51.1132L52.2014 79.4517Z" fill="#407BFF"/>
<path opacity="0.3" d="M52.2014 79.4517H43.6487L42.5605 76.78H51.1132L52.2014 79.4517Z" fill="black"/>
<path opacity="0.4" d="M50.8317 79.4517H45.2026L46.2908 76.78H49.7436L50.8317 79.4517Z" fill="#407BFF"/>
<path opacity="0.2" d="M50.8317 79.4517H45.2026L46.2908 76.78H49.7436L50.8317 79.4517Z" fill="#FAFAFA"/>
<path opacity="0.4" d="M59.3845 79.4517H50.8318L49.7437 76.78H58.2963L59.3845 79.4517Z" fill="#407BFF"/>
<path opacity="0.3" d="M59.3845 79.4517H50.8318L49.7437 76.78H58.2963L59.3845 79.4517Z" fill="black"/>
<path opacity="0.4" d="M58.0148 79.4517H52.3857L53.4739 76.78H56.9267L58.0148 79.4517Z" fill="#407BFF"/>
<path opacity="0.2" d="M58.0148 79.4517H52.3857L53.4739 76.78H56.9267L58.0148 79.4517Z" fill="#FAFAFA"/>
<path opacity="0.4" d="M66.5228 79.3374L65.4812 76.78H56.918L58.0061 79.4517H66.3958C66.4445 79.4157 66.4826 79.3755 66.5228 79.3374Z" fill="#407BFF"/>
<path opacity="0.3" d="M66.5228 79.3374L65.4812 76.78H56.918L58.0061 79.4517H66.3958C66.4445 79.4157 66.4826 79.3755 66.5228 79.3374Z" fill="black"/>
<path opacity="0.4" d="M65.1996 79.4517H59.5684L60.6565 76.78H64.1114L65.1996 79.4517Z" fill="#407BFF"/>
<path opacity="0.2" d="M65.1996 79.4517H59.5684L60.6565 76.78H64.1114L65.1996 79.4517Z" fill="#FAFAFA"/>
<path opacity="0.4" d="M66.4042 79.4517C67.1924 78.6747 67.8456 77.7718 68.337 76.78H64.1157L65.2039 79.4517H66.4042Z" fill="#407BFF"/>
<path opacity="0.3" d="M66.4042 79.4517C67.1924 78.6747 67.8456 77.7718 68.337 76.78H64.1157L65.2039 79.4517H66.4042Z" fill="black"/>
<path opacity="0.4" d="M68.3373 76.78H67.8419L67.0205 78.7954C67.5303 78.1727 67.9717 77.497 68.3373 76.78V76.78Z" fill="#407BFF"/>
<path opacity="0.2" d="M68.3373 76.78H67.8419L67.0205 78.7954C67.5303 78.1727 67.9717 77.497 68.3373 76.78V76.78Z" fill="#FAFAFA"/>
<path opacity="0.4" d="M36.451 74.4068C37.4693 75.2684 38.568 76.0199 39.6667 76.7799H40.0288L38.9406 74.1083H36.106C36.2203 74.2078 36.3346 74.3094 36.451 74.4068Z" fill="#407BFF"/>
<path opacity="0.3" d="M36.451 74.4068C37.4693 75.2684 38.568 76.0199 39.6667 76.7799H40.0288L38.9406 74.1083H36.106C36.2203 74.2078 36.3346 74.3094 36.451 74.4068Z" fill="black"/>
<path opacity="0.4" d="M36.451 74.4068C37.0311 74.898 37.6387 75.3531 38.2568 75.7935L37.5709 74.0999H36.106C36.2203 74.2078 36.3346 74.3094 36.451 74.4068Z" fill="#407BFF"/>
<path opacity="0.2" d="M36.451 74.4068C37.0311 74.898 37.6387 75.3531 38.2568 75.7935L37.5709 74.0999H36.106C36.2203 74.2078 36.3346 74.3094 36.451 74.4068Z" fill="#FAFAFA"/>
<path opacity="0.4" d="M39.6668 76.7799H47.2118L46.1215 74.1083H37.5688L38.2548 75.8019C38.7226 76.1279 39.1968 76.4518 39.6668 76.7799Z" fill="#407BFF"/>
<path opacity="0.3" d="M39.6668 76.7799H47.2118L46.1215 74.1083H37.5688L38.2548 75.8019C38.7226 76.1279 39.1968 76.4518 39.6668 76.7799Z" fill="black"/>
<path opacity="0.4" d="M45.842 76.7799H40.2129L41.301 74.1083H44.7539L45.842 76.7799Z" fill="#407BFF"/>
<path opacity="0.2" d="M45.842 76.7799H40.2129L41.301 74.1083H44.7539L45.842 76.7799Z" fill="#FAFAFA"/>
<path opacity="0.4" d="M54.3968 76.7799H45.842L44.7539 74.1083H53.3087L54.3968 76.7799Z" fill="#407BFF"/>
<path opacity="0.3" d="M54.3968 76.7799H45.842L44.7539 74.1083H53.3087L54.3968 76.7799Z" fill="black"/>
<path opacity="0.4" d="M53.0251 76.7799H47.396L48.4841 74.1083H51.937L53.0251 76.7799Z" fill="#407BFF"/>
<path opacity="0.2" d="M53.0251 76.7799H47.396L48.4841 74.1083H51.937L53.0251 76.7799Z" fill="#FAFAFA"/>
<path opacity="0.4" d="M61.5799 76.7799H53.0251L51.937 74.1083H60.4918L61.5799 76.7799Z" fill="#407BFF"/>
<path opacity="0.3" d="M61.5799 76.7799H53.0251L51.937 74.1083H60.4918L61.5799 76.7799Z" fill="black"/>
<path opacity="0.4" d="M60.2102 76.7799H54.5811L55.6692 74.1083H59.122L60.2102 76.7799Z" fill="#407BFF"/>
<path opacity="0.2" d="M60.2102 76.7799H54.5811L55.6692 74.1083H59.122L60.2102 76.7799Z" fill="#FAFAFA"/>
<path opacity="0.4" d="M68.5724 76.3142L67.6747 74.1083H59.1221L60.2102 76.7799H68.3374C68.4199 76.6254 68.4961 76.4709 68.5724 76.3142Z" fill="#407BFF"/>
<path opacity="0.3" d="M68.5724 76.3142L67.6747 74.1083H59.1221L60.2102 76.7799H68.3374C68.4199 76.6254 68.4961 76.4709 68.5724 76.3142Z" fill="black"/>
<path opacity="0.4" d="M67.3928 76.7799H61.7637L62.8518 74.1083H66.3046L67.3928 76.7799Z" fill="#407BFF"/>
<path opacity="0.2" d="M67.3928 76.7799H61.7637L62.8518 74.1083H66.3046L67.3928 76.7799Z" fill="#FAFAFA"/>
<path opacity="0.4" d="M68.337 76.7799C68.7799 75.9137 69.1701 75.0215 69.5056 74.1083H66.3047L67.3928 76.7799H68.337Z" fill="#407BFF"/>
<path opacity="0.3" d="M68.337 76.7799C68.7799 75.9137 69.1701 75.0215 69.5056 74.1083H66.3047L67.3928 76.7799H68.337Z" fill="black"/>
<path opacity="0.4" d="M36.1058 74.1081H41.9085L40.8289 71.4343H33.54C34.3209 72.3941 35.179 73.2884 36.1058 74.1081V74.1081Z" fill="#407BFF"/>
<path opacity="0.3" d="M36.1058 74.1081H41.9085L40.8289 71.4343H33.54C34.3209 72.3941 35.179 73.2884 36.1058 74.1081V74.1081Z" fill="black"/>
<path opacity="0.4" d="M36.1058 74.1081H40.5388L39.4506 71.4343H35.9978L35.2378 73.2994C35.5186 73.5774 35.808 73.847 36.1058 74.1081Z" fill="#407BFF"/>
<path opacity="0.2" d="M36.1058 74.1081H40.5388L39.4506 71.4343H35.9978L35.2378 73.2994C35.5186 73.5774 35.808 73.847 36.1058 74.1081Z" fill="#FAFAFA"/>
<path opacity="0.4" d="M49.0936 74.1081H40.5388L39.4507 71.4343H48.0055L49.0936 74.1081Z" fill="#407BFF"/>
<path opacity="0.3" d="M49.0936 74.1081H40.5388L39.4507 71.4343H48.0055L49.0936 74.1081Z" fill="black"/>
<path opacity="0.4" d="M47.7219 74.1081H42.0928L43.1809 71.4343H46.6359L47.7219 74.1081Z" fill="#407BFF"/>
<path opacity="0.2" d="M47.7219 74.1081H42.0928L43.1809 71.4343H46.6359L47.7219 74.1081Z" fill="#FAFAFA"/>
<path opacity="0.4" d="M56.2766 74.1081H47.7218L46.6357 71.4343H55.1884L56.2766 74.1081Z" fill="#407BFF"/>
<path opacity="0.3" d="M56.2766 74.1081H47.7218L46.6357 71.4343H55.1884L56.2766 74.1081Z" fill="black"/>
<path opacity="0.4" d="M54.9069 74.1081H49.2778L50.366 71.4343H53.8188L54.9069 74.1081Z" fill="#407BFF"/>
<path opacity="0.2" d="M54.9069 74.1081H49.2778L50.366 71.4343H53.8188L54.9069 74.1081Z" fill="#FAFAFA"/>
<path opacity="0.4" d="M63.4597 74.1081H54.907L53.8188 71.4343H62.3715L63.4597 74.1081Z" fill="#407BFF"/>
<path opacity="0.3" d="M63.4597 74.1081H54.907L53.8188 71.4343H62.3715L63.4597 74.1081Z" fill="black"/>
<path opacity="0.4" d="M62.09 74.1081H56.4609L57.5491 71.4343H61.0019L62.09 74.1081Z" fill="#407BFF"/>
<path opacity="0.2" d="M62.09 74.1081H56.4609L57.5491 71.4343H61.0019L62.09 74.1081Z" fill="#FAFAFA"/>
<path opacity="0.4" d="M70.0437 72.6283L69.5589 71.4343H61.002L62.0901 74.1081H69.4996C69.6965 73.6043 69.8722 73.1068 70.0437 72.6283Z" fill="#407BFF"/>
<path opacity="0.3" d="M70.0437 72.6283L69.5589 71.4343H61.002L62.0901 74.1081H69.4996C69.6965 73.6043 69.8722 73.1068 70.0437 72.6283Z" fill="black"/>
<path opacity="0.4" d="M69.2748 74.1081H63.6436L64.7317 71.4343H68.1866L69.2748 74.1081Z" fill="#407BFF"/>
<path opacity="0.2" d="M69.2748 74.1081H63.6436L64.7317 71.4343H68.1866L69.2748 74.1081Z" fill="#FAFAFA"/>
<path opacity="0.4" d="M69.5059 74.1081C69.8552 73.183 70.1601 72.279 70.4564 71.4788C70.4604 71.4637 70.4654 71.4488 70.4712 71.4343H68.187L69.2751 74.1081H69.5059Z" fill="#407BFF"/>
<path opacity="0.3" d="M69.5059 74.1081C69.8552 73.183 70.1601 72.279 70.4564 71.4788C70.4604 71.4637 70.4654 71.4488 70.4712 71.4343H68.187L69.2751 74.1081H69.5059Z" fill="black"/>
<path opacity="0.4" d="M33.5401 71.4346H35.5491L34.4609 68.7629H31.6538C32.2199 69.6961 32.8501 70.5888 33.5401 71.4346V71.4346Z" fill="#407BFF"/>
<path opacity="0.2" d="M33.5401 71.4346H35.5491L34.4609 68.7629H31.6538C32.2199 69.6961 32.8501 70.5888 33.5401 71.4346V71.4346Z" fill="#FAFAFA"/>
<path opacity="0.4" d="M44.1039 71.4346H35.5491L34.4609 68.7629H43.0157L44.1039 71.4346Z" fill="#407BFF"/>
<path opacity="0.3" d="M44.1039 71.4346H35.5491L34.4609 68.7629H43.0157L44.1039 71.4346Z" fill="black"/>
<path opacity="0.4" d="M42.7342 71.4346H37.103L38.1912 68.7629H41.6461L42.7342 71.4346Z" fill="#407BFF"/>
<path opacity="0.2" d="M42.7342 71.4346H37.103L38.1912 68.7629H41.6461L42.7342 71.4346Z" fill="#FAFAFA"/>
<path opacity="0.4" d="M51.2868 71.4346H42.7341L41.646 68.7629H50.1987L51.2868 71.4346Z" fill="#407BFF"/>
<path opacity="0.3" d="M51.2868 71.4346H42.7341L41.646 68.7629H50.1987L51.2868 71.4346Z" fill="black"/>
<path opacity="0.4" d="M49.9172 71.4346H44.2881L45.3762 68.7629H48.829L49.9172 71.4346Z" fill="#407BFF"/>
<path opacity="0.2" d="M49.9172 71.4346H44.2881L45.3762 68.7629H48.829L49.9172 71.4346Z" fill="#FAFAFA"/>
<path opacity="0.4" d="M58.4699 71.4346H49.9172L48.8291 68.7629H57.3818L58.4699 71.4346Z" fill="#407BFF"/>
<path opacity="0.3" d="M58.4699 71.4346H49.9172L48.8291 68.7629H57.3818L58.4699 71.4346Z" fill="black"/>
<path opacity="0.4" d="M57.1003 71.4346H51.4712L52.5593 68.7629H56.0122L57.1003 71.4346Z" fill="#407BFF"/>
<path opacity="0.2" d="M57.1003 71.4346H51.4712L52.5593 68.7629H56.0122L57.1003 71.4346Z" fill="#FAFAFA"/>
<path opacity="0.4" d="M65.6551 71.4346H57.1003L56.0122 68.7629H64.567L65.6551 71.4346Z" fill="#407BFF"/>
<path opacity="0.3" d="M65.6551 71.4346H57.1003L56.0122 68.7629H64.567L65.6551 71.4346Z" fill="black"/>
<path opacity="0.4" d="M64.285 71.4346H58.6538L59.7419 68.7629H63.1969L64.285 71.4346Z" fill="#407BFF"/>
<path opacity="0.2" d="M64.285 71.4346H58.6538L59.7419 68.7629H63.1969L64.285 71.4346Z" fill="#FAFAFA"/>
<path opacity="0.4" d="M70.467 71.4346C70.7931 70.5511 71.0944 69.6605 71.371 68.7629H63.1973L64.2854 71.4346H70.467Z" fill="#407BFF"/>
<path opacity="0.3" d="M70.467 71.4346C70.7931 70.5511 71.0944 69.6605 71.371 68.7629H63.1973L64.2854 71.4346H70.467Z" fill="black"/>
<path opacity="0.4" d="M70.9324 70.1221L70.3798 68.7629H66.927L65.8389 71.4346H70.4666C70.6318 71.0006 70.7842 70.5624 70.9324 70.1221Z" fill="#407BFF"/>
<path opacity="0.2" d="M70.9324 70.1221L70.3798 68.7629H66.927L65.8389 71.4346H70.4666C70.6318 71.0006 70.7842 70.5624 70.9324 70.1221Z" fill="#FAFAFA"/>
<path opacity="0.4" d="M71.3749 68.7629H70.3799L70.9324 70.1221C71.0877 69.6718 71.2352 69.2188 71.3749 68.7629Z" fill="#407BFF"/>
<path opacity="0.3" d="M71.3749 68.7629H70.3799L70.9324 70.1221C71.0877 69.6718 71.2352 69.2188 71.3749 68.7629Z" fill="black"/>
</g>
<path d="M55.0507 26.1538C49.2672 26.1538 43.6135 27.8688 38.8047 31.082C33.9958 34.2952 30.2478 38.8621 28.0345 44.2054C25.8213 49.5487 25.2422 55.4284 26.3705 61.1008C27.4988 66.7732 30.2838 71.9836 34.3734 76.0732C38.463 80.1628 43.6735 82.9478 49.3459 84.0761C55.0183 85.2045 60.8979 84.6254 66.2412 82.4121C71.5845 80.1988 76.1515 76.4508 79.3646 71.642C82.5778 66.8331 84.2928 61.1795 84.2928 55.3959C84.2928 47.6404 81.212 40.2026 75.728 34.7186C70.2441 29.2347 62.8062 26.1538 55.0507 26.1538V26.1538ZM55.0126 79.3138C50.2776 79.3133 45.649 77.9089 41.7122 75.2779C37.7754 72.647 34.7071 68.9077 32.8954 64.533C31.0837 60.1583 30.6099 55.3446 31.5339 50.7006C32.4579 46.0567 34.7382 41.791 38.0865 38.4429C41.4348 35.0949 45.7008 32.815 50.3448 31.8914C54.9889 30.9678 59.8025 31.442 64.1771 33.2541C68.5516 35.0662 72.2906 38.1348 74.9212 42.0719C77.5518 46.0089 78.9559 50.6376 78.9559 55.3726C78.9559 58.5168 78.3365 61.6302 77.1333 64.535C75.93 67.4398 74.1663 70.0792 71.9429 72.3023C69.7196 74.5255 67.0801 76.2889 64.1751 77.492C61.2702 78.695 58.1568 79.314 55.0126 79.3138Z" fill="#407BFF"/>
<path opacity="0.4" d="M55.0506 83.133C70.3438 83.133 82.7832 70.6893 82.7832 55.4003C82.7832 40.1113 70.3395 27.6676 55.0506 27.6676C39.7616 27.6676 27.3179 40.1092 27.3179 55.4003C27.3179 70.6914 39.7552 83.133 55.0506 83.133ZM55.0506 27.8793C62.3467 27.8888 69.3412 30.7914 74.5003 35.9505C79.6594 41.1097 82.562 48.1042 82.5715 55.4003C82.5715 70.5771 70.2231 82.9213 55.0506 82.9213C39.878 82.9213 27.5296 70.5728 27.5296 55.4003C27.5296 40.2278 39.8717 27.8708 55.0506 27.8708V27.8793Z" fill="#FAFAFA"/>
<path d="M47.6409 36.2284C48.8392 36.5121 50.067 36.7958 51.2801 37.0541C52.4931 37.3123 53.7125 37.5473 54.9065 37.7082L55.3489 37.759L55.4569 37.7696H55.44C55.44 37.7696 55.4505 37.7696 55.4738 37.7696C55.6647 37.721 55.8458 37.6401 56.0094 37.5304C56.4847 37.2181 56.9311 36.8638 57.3431 36.4719C58.2238 35.6569 59.0833 34.7338 59.9111 33.8151L60.8785 34.4862C60.2448 35.6351 59.5041 36.7217 58.6663 37.7315C58.2236 38.274 57.7232 38.7666 57.1738 39.2007C56.8317 39.4755 56.4421 39.685 56.0242 39.8189C55.8862 39.8608 55.7444 39.8891 55.6008 39.9036C55.5163 39.909 55.4314 39.909 55.3468 39.9036H55.2177L54.7138 39.8781C53.411 39.7816 52.1148 39.6113 50.8313 39.368C49.5611 39.1351 48.3163 38.8599 47.0566 38.5212L47.6409 36.2284Z" fill="#7F3E3B"/>
<path d="M45.8247 38.3793C46.6715 39.603 51.7523 40.0729 51.7523 40.0729L52.0635 36.817C50.7698 36.3638 49.4387 36.0252 48.0857 35.8051C44.4974 35.2928 44.9017 37.0372 45.8247 38.3793Z" fill="#407BFF"/>
<path opacity="0.2" d="M45.8247 38.3793C46.6715 39.603 51.7523 40.0729 51.7523 40.0729L52.0635 36.817C50.7698 36.3638 49.4387 36.0252 48.0857 35.8051C44.4974 35.2928 44.9017 37.0372 45.8247 38.3793Z" fill="white"/>
<path d="M59.7124 34.2215L60.1167 32.7227L61.5119 33.3218C61.5119 33.3218 60.9233 34.937 60.392 34.8566L59.7124 34.2215Z" fill="#7F3E3B"/>
<path d="M61.2683 31.7955L62.4221 31.7235L61.5118 33.3218L60.1167 32.7227L61.2683 31.7955Z" fill="#7F3E3B"/>
<path d="M49.2375 36.1669C49.2375 36.1669 51.2529 40.9068 49.8007 49.7326H41.4046C41.303 48.4434 41.8937 42.158 40.4414 36.0864C41.3648 35.9066 42.299 35.7878 43.238 35.7308C44.4268 35.663 45.6184 35.663 46.8072 35.7308C47.6273 35.814 48.4397 35.9598 49.2375 36.1669V36.1669Z" fill="#407BFF"/>
<path opacity="0.2" d="M49.2375 36.1669C49.2375 36.1669 51.2529 40.9068 49.8007 49.7326H41.4046C41.303 48.4434 41.8937 42.158 40.4414 36.0864C41.3648 35.9066 42.299 35.7878 43.238 35.7308C44.4268 35.663 45.6184 35.663 46.8072 35.7308C47.6273 35.814 48.4397 35.9598 49.2375 36.1669Z" fill="white"/>
<path opacity="0.3" d="M40.7036 37.3015C41.0964 39.3792 41.3285 41.4841 41.398 43.5975C41.7056 42.3593 41.9137 41.0985 42.0204 39.8271C42.1093 38.4193 41.5631 37.528 40.7036 37.3015Z" fill="black"/>
<path d="M46.733 42.8906C45.9879 42.0714 44.7071 40.4392 44.3091 38.9721L46.3075 37.9136L48.1684 38.8662C48.1493 40.1131 47.4846 41.8025 47.0083 42.8314C46.9469 42.9563 46.8198 42.988 46.733 42.8906Z" fill="#FAFAFA"/>
<path d="M43.4539 31.7129C43.7185 32.8624 44.0149 34.9646 43.2422 35.7352C43.2422 35.7352 43.5788 36.6857 45.7127 36.6857C48.0584 36.6857 46.8114 35.7352 46.8114 35.7352C45.5201 35.4303 45.5201 34.4798 45.7127 33.5886L43.4539 31.7129Z" fill="#7F3E3B"/>
<path opacity="0.2" d="M44.3725 32.4772L45.7084 33.5822C45.6603 33.7909 45.6305 34.0035 45.6195 34.2173C45.1283 34.1475 44.4382 33.6098 44.3683 33.0975C44.3309 32.8922 44.3324 32.6819 44.3725 32.4772Z" fill="black"/>
<path d="M46.9042 31.0565C47.2514 30.7601 47.4081 28.9882 46.7243 28.1393C46.0405 27.2904 45.4541 29.3481 45.4541 29.3481C45.4541 29.3481 45.7674 32.0303 46.9042 31.0565Z" fill="#263238"/>
<path d="M42.9454 30.5126C43.4239 31.9945 43.6271 32.89 44.5924 33.4975C44.9039 33.6977 45.2641 33.8089 45.6341 33.8191C46.0042 33.8293 46.37 33.7381 46.692 33.5555C47.014 33.3728 47.2799 33.1055 47.4609 32.7826C47.642 32.4597 47.7313 32.0935 47.7192 31.7235C47.7002 30.2987 46.9211 28.1055 45.2805 27.8324C44.927 27.7637 44.5616 27.7891 44.2211 27.9062C43.8805 28.0232 43.5767 28.2277 43.3402 28.4992C43.1036 28.7707 42.9426 29.0997 42.8733 29.4531C42.804 29.8064 42.8289 30.1718 42.9454 30.5126Z" fill="#7F3E3B"/>
<path d="M46.9425 27.4512C46.9918 27.3612 47.016 27.2595 47.0124 27.157C47.0115 27.0336 46.9714 26.9138 46.8979 26.8147C46.8244 26.7156 46.7214 26.6424 46.6036 26.6057C46.4859 26.5689 46.3595 26.5705 46.2427 26.6103C46.1259 26.65 46.0248 26.7258 45.9539 26.8267C45.8338 26.6892 45.6848 26.5799 45.5176 26.5067C45.3503 26.4335 45.1689 26.3982 44.9864 26.4033C44.7944 26.4098 44.6066 26.4612 44.4381 26.5536C44.3292 26.4609 44.1894 26.4125 44.0465 26.4181C43.9076 26.4231 43.7751 26.4774 43.6727 26.5713C43.5702 26.6652 43.5046 26.7925 43.4876 26.9304C43.4281 26.9209 43.3679 26.9166 43.3076 26.9177C43.0585 26.9266 42.823 27.0338 42.6528 27.216C42.4825 27.3981 42.3915 27.6403 42.3995 27.8894C42.3995 27.8894 42.3995 27.8894 42.3995 27.9022C42.3635 27.9 42.3274 27.9 42.2915 27.9022C42.1911 27.9057 42.0924 27.929 42.001 27.9707C41.9097 28.0125 41.8274 28.0718 41.759 28.1453C41.6906 28.2188 41.6373 28.3051 41.6023 28.3993C41.5672 28.4934 41.5511 28.5935 41.5548 28.6939V28.7066C41.4592 28.7585 41.3801 28.8363 41.3265 28.931C41.273 29.0257 41.2472 29.1335 41.252 29.2422C41.2564 29.3579 41.2947 29.4697 41.362 29.5637C41.4294 29.6578 41.5229 29.7301 41.631 29.7715C41.6455 29.9508 41.7233 30.1191 41.8505 30.2463C41.9777 30.3735 42.146 30.4513 42.3254 30.4658C42.4079 31.2068 42.6747 32.3542 43.5405 31.7614C43.8708 31.5349 44.1756 30.161 43.8475 29.2083C43.8729 29.2083 43.9004 29.2083 43.9279 29.2083C44.0709 29.2031 44.2107 29.165 44.3366 29.0971C44.4625 29.0292 44.5711 28.9332 44.6541 28.8167C44.8351 28.8763 45.0275 28.8933 45.2162 28.8665C45.4049 28.8397 45.5849 28.7698 45.7422 28.6622C45.8102 28.6859 45.8819 28.6974 45.9539 28.696C46.0526 28.6915 46.1487 28.6624 46.2333 28.6113C46.3536 28.6931 46.4965 28.7353 46.6419 28.732C46.7931 28.7274 46.9385 28.6729 47.0555 28.577C47.1725 28.4811 47.2546 28.3493 47.2889 28.2019C47.3232 28.0546 47.3078 27.9001 47.2452 27.7624C47.1825 27.6247 47.0761 27.5116 46.9425 27.4406V27.4512Z" fill="#263238"/>
<path d="M42.6893 32.3205C42.9732 32.5964 43.352 32.7532 43.7478 32.7587C44.2707 32.7587 44.3829 32.2633 44.1014 31.8484C43.8516 31.4779 43.28 31.0291 42.8185 31.2281C42.357 31.4271 42.3422 31.9796 42.6893 32.3205Z" fill="#7F3E3B"/>
<path d="M45.3631 30.4277C45.3927 30.5505 45.4838 30.6394 45.5748 30.6182C45.6658 30.597 45.6955 30.4848 45.6637 30.3621C45.6319 30.2393 45.5409 30.1504 45.452 30.1736C45.3631 30.1969 45.3313 30.3007 45.3631 30.4277Z" fill="#263238"/>
<path d="M46.7563 30.1208C46.7881 30.2436 46.8791 30.3325 46.968 30.3113C47.0569 30.2902 47.0887 30.1801 47.0569 30.0573C47.0252 29.9345 46.9341 29.8456 46.8452 29.8668C46.7563 29.8879 46.7288 29.998 46.7563 30.1208Z" fill="#263238"/>
<path d="M46.333 30.2798C46.578 30.6231 46.8669 30.9327 47.1925 31.2007C47.1218 31.2792 47.0347 31.3414 46.9375 31.3827C46.8402 31.424 46.735 31.4436 46.6294 31.4399L46.333 30.2798Z" fill="#630F0F"/>
<path d="M46.0934 31.8865C45.8355 31.8891 45.5854 31.7989 45.3884 31.6325C45.3817 31.6257 45.3779 31.6166 45.3779 31.6071C45.3779 31.5975 45.3817 31.5884 45.3884 31.5817C45.3918 31.578 45.3959 31.5751 45.4004 31.5731C45.405 31.5711 45.4099 31.5701 45.4149 31.5701C45.4199 31.5701 45.4248 31.5711 45.4293 31.5731C45.4339 31.5751 45.438 31.578 45.4413 31.5817C45.5653 31.6824 45.7104 31.7537 45.8659 31.7904C46.0213 31.8271 46.1831 31.8281 46.339 31.7934C46.3485 31.7914 46.3584 31.7932 46.3667 31.7983C46.3749 31.8034 46.3809 31.8115 46.3834 31.8209C46.3847 31.8258 46.3849 31.8309 46.384 31.8358C46.3832 31.8408 46.3813 31.8455 46.3785 31.8497C46.3757 31.8539 46.372 31.8574 46.3678 31.8601C46.3635 31.8628 46.3588 31.8646 46.3538 31.8653C46.2681 31.8824 46.1807 31.8895 46.0934 31.8865V31.8865Z" fill="#263238"/>
<path d="M44.8085 30.0743C44.7987 30.0763 44.7886 30.0763 44.7789 30.0743C44.7698 30.0706 44.7616 30.0651 44.7547 30.0581C44.7478 30.0512 44.7424 30.0429 44.7388 30.0338C44.7353 30.0247 44.7336 30.0149 44.7339 30.0051C44.7343 29.9953 44.7366 29.9857 44.7407 29.9769C44.7859 29.8696 44.8566 29.775 44.9466 29.7012C45.0366 29.6274 45.1433 29.5767 45.2573 29.5535C45.2768 29.5516 45.2963 29.557 45.312 29.5688C45.3277 29.5805 45.3384 29.5977 45.342 29.617C45.3444 29.6366 45.3392 29.6564 45.3273 29.6722C45.3155 29.6879 45.298 29.6985 45.2785 29.7017C45.1889 29.7219 45.1056 29.7634 45.0355 29.8227C44.9655 29.8821 44.9108 29.9575 44.8762 30.0425C44.8688 30.0533 44.8586 30.062 44.8467 30.0676C44.8348 30.0731 44.8216 30.0755 44.8085 30.0743V30.0743Z" fill="#263238"/>
<path d="M47.2324 29.5134C47.2214 29.5135 47.2105 29.5111 47.2006 29.5063C47.1907 29.5015 47.182 29.4946 47.1752 29.4859C47.1157 29.4118 47.0402 29.3521 46.9545 29.3111C46.8687 29.27 46.7749 29.2487 46.6798 29.2488C46.6602 29.2505 46.6407 29.2443 46.6256 29.2316C46.6105 29.2189 46.6011 29.2007 46.5994 29.1811C46.5977 29.1614 46.6039 29.1419 46.6166 29.1268C46.6293 29.1117 46.6475 29.1023 46.6671 29.1006C46.7861 29.0982 46.9041 29.1231 47.012 29.1734C47.1199 29.2236 47.2148 29.298 47.2895 29.3907C47.3019 29.4062 47.3077 29.426 47.3058 29.4457C47.3038 29.4655 47.2942 29.4837 47.279 29.4965C47.2658 29.5073 47.2494 29.5133 47.2324 29.5134V29.5134Z" fill="#263238"/>
<path d="M42.0988 38.3454L41.7939 39.0038C41.6923 39.2303 41.5928 39.4589 41.4954 39.6876C41.3007 40.1448 41.1165 40.6084 40.9387 41.07C40.7608 41.5315 40.6042 41.9972 40.4539 42.4629C40.3036 42.9287 40.1871 43.3923 40.0898 43.8538V43.894V43.8813C40.0907 43.8701 40.0907 43.8587 40.0898 43.8475C40.0869 43.824 40.0805 43.8012 40.0707 43.7797C40.0538 43.7395 40.0347 43.731 40.0432 43.7543C40.1203 43.8626 40.2199 43.9529 40.3353 44.0189C40.7152 44.2506 41.12 44.4388 41.542 44.5799C42.4869 44.9045 43.4496 45.1745 44.4254 45.3886L44.328 46.5636C43.2359 46.5987 42.1433 46.5135 41.0699 46.3095C40.4804 46.2028 39.9074 46.0192 39.3657 45.7633C39.014 45.5959 38.6977 45.3623 38.4343 45.0753C38.2544 44.8703 38.1189 44.6303 38.0363 44.3704C37.9914 44.2231 37.9644 44.071 37.9558 43.9173C37.9516 43.8412 37.9516 43.7648 37.9558 43.6887L37.9664 43.5786V43.5214C38.1073 42.4192 38.3591 41.3341 38.7179 40.2824C38.8901 39.7659 39.0799 39.2571 39.2874 38.7561C39.3933 38.5063 39.4991 38.2586 39.6155 38.0109C39.732 37.7632 39.8442 37.5261 39.9818 37.2615L42.0988 38.3454Z" fill="#7F3E3B"/>
<path d="M40.4412 36.0866C38.9593 36.2983 37.4414 41.7412 37.4414 41.7412L41.0128 43.1003C41.0128 43.1003 41.9104 40.761 42.5243 38.9446C43.1679 37.0414 42.0247 35.8538 40.4412 36.0866Z" fill="#407BFF"/>
<path opacity="0.2" d="M40.4412 36.0866C38.9593 36.2983 37.4414 41.7412 37.4414 41.7412L41.0128 43.1003C41.0128 43.1003 41.9104 40.761 42.5243 38.9446C43.1679 37.0414 42.0247 35.8538 40.4412 36.0866Z" fill="white"/>
<path d="M42.6938 89.655H44.2647L44.4679 86.0201H42.8992L42.6938 89.655Z" fill="#7F3E3B"/>
<path opacity="0.2" d="M42.8969 86.0201H44.4677L44.3618 87.8937H42.791L42.8969 86.0201Z" fill="black"/>
<path d="M44.3471 89.4731H42.5836C42.569 89.4722 42.5543 89.4743 42.5405 89.4792C42.5267 89.4841 42.514 89.4917 42.5031 89.5015C42.4923 89.5114 42.4835 89.5233 42.4773 89.5366C42.4712 89.5499 42.4677 89.5643 42.4672 89.5789L42.3804 90.974C42.3801 91.0105 42.387 91.0466 42.4007 91.0803C42.4144 91.1141 42.4346 91.1448 42.4601 91.1708C42.4857 91.1967 42.5161 91.2174 42.5496 91.2316C42.5832 91.2458 42.6192 91.2532 42.6556 91.2535C43.2695 91.2429 43.5638 91.2069 44.3492 91.2069C44.8255 91.2069 46.8536 91.2577 47.512 91.2577C48.1704 91.2577 48.1471 90.6057 47.874 90.5464C46.6207 90.2818 45.0711 89.9113 44.6265 89.5683C44.5468 89.506 44.4483 89.4724 44.3471 89.4731V89.4731Z" fill="#263238"/>
<path d="M44.9015 89.7439C45.0065 89.754 45.1114 89.7245 45.1958 89.6613C45.2203 89.6356 45.2373 89.6037 45.2452 89.569C45.253 89.5344 45.2513 89.4982 45.2402 89.4645C45.2364 89.4419 45.2267 89.4206 45.2123 89.4028C45.1978 89.385 45.179 89.3712 45.1577 89.3628C44.965 89.2866 44.5226 89.5894 44.4718 89.6254C44.4663 89.6295 44.462 89.635 44.4594 89.6413C44.4568 89.6476 44.456 89.6546 44.4569 89.6613C44.4588 89.6679 44.4623 89.6738 44.4672 89.6787C44.472 89.6835 44.4779 89.687 44.4845 89.6889C44.6212 89.7217 44.761 89.7402 44.9015 89.7439V89.7439ZM45.0836 89.42C45.0997 89.4168 45.1162 89.4168 45.1323 89.42C45.1427 89.4244 45.1518 89.4314 45.1588 89.4403C45.1659 89.4492 45.1706 89.4597 45.1725 89.4708C45.1799 89.4934 45.1815 89.5175 45.1771 89.5408C45.1726 89.5641 45.1623 89.5859 45.1471 89.6042C45.073 89.6762 44.8634 89.6846 44.5818 89.6296C44.732 89.5243 44.9032 89.4528 45.0836 89.42V89.42Z" fill="#407BFF"/>
<path d="M44.4931 89.689H44.5101C44.6667 89.5958 44.8996 89.2656 44.8636 89.0983C44.857 89.068 44.8406 89.0408 44.8168 89.0208C44.7931 89.0009 44.7633 88.9894 44.7324 88.9883C44.7044 88.9846 44.6761 88.9873 44.6493 88.9961C44.6226 89.0049 44.5981 89.0196 44.5778 89.0391C44.4212 89.1915 44.455 89.6424 44.4571 89.6615C44.4577 89.6673 44.4597 89.6729 44.463 89.6777C44.4664 89.6826 44.4709 89.6864 44.4762 89.689C44.4816 89.6911 44.4877 89.6911 44.4931 89.689ZM44.7048 89.0539H44.7218C44.7768 89.0539 44.7874 89.0878 44.7937 89.1089C44.8191 89.2275 44.6519 89.4773 44.5228 89.5874C44.5013 89.4135 44.5369 89.2374 44.6244 89.0856C44.6353 89.0751 44.6483 89.0669 44.6625 89.0614C44.6766 89.056 44.6918 89.0534 44.7069 89.0539H44.7048Z" fill="#407BFF"/>
<path d="M56.6405 85.7769L58.1859 85.508L57.7646 81.8922L56.2192 82.1611L56.6405 85.7769Z" fill="#7F3E3B"/>
<path opacity="0.2" d="M56.2192 82.1632L57.7668 81.8943L57.9827 83.7573L56.4352 84.0261L56.2192 82.1632Z" fill="black"/>
<path d="M58.1882 85.3194L56.4459 85.0527C56.4167 85.0471 56.3865 85.0533 56.3619 85.07C56.3373 85.0866 56.3203 85.1124 56.3147 85.1416L56.0183 86.507C56.0073 86.5797 56.0253 86.6537 56.0685 86.7131C56.1117 86.7726 56.1766 86.8126 56.249 86.8246C56.8566 86.9071 57.153 86.9156 57.9194 87.0363C58.3914 87.1083 60.3878 87.4597 61.0398 87.5613C61.6918 87.6629 61.7702 87.0151 61.5034 86.9135C60.3052 86.4647 58.8275 85.8698 58.4401 85.4591C58.3751 85.3845 58.2859 85.3351 58.1882 85.3194V85.3194Z" fill="#263238"/>
<path d="M49.8007 49.7328C49.8007 49.7328 54.6698 61.1159 55.6542 65.5065C56.736 70.3142 58.5693 83.1962 58.5693 83.1962L55.7368 83.6895C55.7368 83.6895 53.1286 71.6564 51.6255 67.0181C49.9933 61.986 43.4751 49.7328 43.4751 49.7328H49.8007Z" fill="#263238"/>
<path opacity="0.3" d="M45.7867 52.2478L45.6724 53.9689C46.407 55.417 47.2538 57.1063 48.0815 58.8211C48.4499 57.1233 47.5099 53.0438 45.7867 52.2478Z" fill="black"/>
<path d="M46.9911 49.7328C46.9911 49.7328 46.9635 61.7256 46.7095 66.22C46.4301 71.1399 45.035 87.4429 45.035 87.4429H42.1601C42.1601 87.4429 42.2469 71.5379 42.0733 66.6667C41.8849 61.3742 41.3979 49.7307 41.3979 49.7307L46.9911 49.7328Z" fill="#263238"/>
<path d="M42.0458 87.4681H45.1515L45.3229 86.3778L41.8955 86.5472L42.0458 87.4681Z" fill="#407BFF"/>
<path opacity="0.3" d="M42.0458 87.4681H45.1515L45.3229 86.3778L41.8955 86.5472L42.0458 87.4681Z" fill="black"/>
<path d="M55.6222 83.7085L58.6813 83.1771L58.6644 82.072L55.3174 82.8278L55.6222 83.7085Z" fill="#407BFF"/>
<path opacity="0.3" d="M55.6222 83.7085L58.6813 83.1771L58.6644 82.072L55.3174 82.8278L55.6222 83.7085Z" fill="black"/>
<path d="M58.7044 85.6708C58.8063 85.6968 58.9142 85.684 59.0071 85.6349C59.0346 85.6124 59.056 85.5833 59.0693 85.5504C59.0826 85.5175 59.0874 85.4817 59.0833 85.4464C59.0824 85.4233 59.0757 85.4007 59.0639 85.3807C59.0521 85.3608 59.0355 85.3441 59.0156 85.3321C58.8377 85.2284 58.353 85.4613 58.2979 85.4888C58.292 85.4917 58.287 85.4962 58.2837 85.5018C58.2803 85.5075 58.2786 85.514 58.2789 85.5205C58.2785 85.5274 58.2803 85.5342 58.2841 85.5399C58.288 85.5457 58.2935 85.55 58.3 85.5523C58.4299 85.607 58.5655 85.6468 58.7044 85.6708V85.6708ZM58.933 85.3787C58.9495 85.3798 58.9655 85.3849 58.9796 85.3935C58.9901 85.3986 58.9988 85.4069 59.0044 85.4171C59.0101 85.4273 59.0125 85.439 59.0113 85.4507C59.0156 85.4739 59.0138 85.4978 59.006 85.5201C58.9982 85.5424 58.9847 85.5622 58.9669 85.5777C58.8822 85.6391 58.6747 85.6158 58.4038 85.5163C58.5681 85.4326 58.7487 85.3856 58.933 85.3787V85.3787Z" fill="#407BFF"/>
<path d="M58.3085 85.5545C58.3147 85.5566 58.3214 85.5566 58.3276 85.5545C58.4948 85.4868 58.7764 85.1989 58.7658 85.0253C58.7639 84.9941 58.7517 84.9644 58.7309 84.941C58.7102 84.9176 58.6822 84.9018 58.6515 84.8961C58.6247 84.8884 58.5964 84.8869 58.5689 84.8916C58.5414 84.8964 58.5154 84.9073 58.4927 84.9237C58.3128 85.0507 58.281 85.5016 58.281 85.5207C58.2802 85.5265 58.2813 85.5325 58.2839 85.5377C58.2865 85.543 58.2907 85.5474 58.2958 85.5503C58.2994 85.5532 58.3039 85.5547 58.3085 85.5545V85.5545ZM58.6155 84.9575H58.6324C58.6854 84.9724 58.6938 84.9999 58.6959 85.0232C58.6959 85.1438 58.5012 85.364 58.3551 85.4466C58.3609 85.2714 58.4233 85.1028 58.5329 84.966C58.557 84.9534 58.585 84.9504 58.6113 84.9575H58.6155Z" fill="#407BFF"/>
<path d="M44.1905 45.3759L45.4776 45.0223L45.6555 46.6503C45.6555 46.6503 44.3853 47.0314 44.0698 46.3645L44.1905 45.3759Z" fill="#7F3E3B"/>
<path d="M46.6461 45.2467L46.5678 46.7138L45.6554 46.6503L45.4775 45.0223L46.6461 45.2467Z" fill="#7F3E3B"/>
<path d="M68.1124 83.6896C61.3507 82.6713 56.2148 70.0328 56.2148 55.3959C56.2148 40.759 61.3507 28.1205 68.1124 27.1022L74.4147 26.1538V84.638L68.1124 83.6896Z" fill="#407BFF"/>
<path opacity="0.3" d="M68.1124 83.6896C61.3507 82.6713 56.2148 70.0328 56.2148 55.3959C56.2148 40.759 61.3507 28.1205 68.1124 27.1022L74.4147 26.1538V84.638L68.1124 83.6896Z" fill="black"/>
<path d="M74.4145 84.638C80.5141 84.638 85.4589 71.5459 85.4589 55.3959C85.4589 39.2459 80.5141 26.1538 74.4145 26.1538C68.3149 26.1538 63.3701 39.2459 63.3701 55.3959C63.3701 71.5459 68.3149 84.638 74.4145 84.638Z" fill="#407BFF"/>
<path opacity="0.2" d="M76.4598 40.886C73.0726 40.886 70.3438 47.3831 70.3438 55.398C70.3438 63.413 73.081 69.9079 76.4598 69.9079C79.8385 69.9079 82.5758 63.413 82.5758 55.398C82.5758 47.3831 79.8385 40.886 76.4598 40.886ZM81.3289 55.398C81.3289 57.7034 80.9563 59.7993 80.3466 61.3722L78.581 55.2816L80.3127 49.318C80.9478 50.8994 81.3373 53.0376 81.3373 55.3959L81.3289 55.398ZM77.6051 46.568C78.3524 46.568 79.0446 47.0888 79.6268 47.9843L78.0454 53.4694L76.2205 47.2031C76.583 46.8158 77.0835 46.5869 77.6135 46.5659L77.6051 46.568ZM73.8855 55.398C73.8855 52.413 74.51 49.7774 75.4648 48.179L77.531 55.2816L75.4351 62.5471C74.5015 60.9467 73.894 58.3406 73.894 55.3959L73.8855 55.398ZM77.6051 64.228C77.334 64.2132 77.0686 64.1445 76.8243 64.026C76.5801 63.9075 76.3619 63.7416 76.1824 63.5379L78.0539 57.0874L79.6861 62.7271C79.0933 63.6776 78.382 64.2259 77.6135 64.2259L77.6051 64.228Z" fill="#FAFAFA"/>
<path opacity="0.4" d="M74.7129 83.897C69.738 83.897 64.4116 72.444 64.4116 55.3958C64.4116 38.3476 69.738 26.8947 74.7129 26.8947C79.6879 26.8947 85.0164 38.3476 85.0164 55.3958C85.0164 72.444 79.69 83.897 74.7129 83.897ZM74.7129 27.1064C69.8438 27.1064 64.6233 38.4725 64.6233 55.3958C64.6233 72.3191 69.8311 83.6853 74.7129 83.6853C79.5947 83.6853 84.8047 72.317 84.8047 55.3958C84.8047 38.4746 79.5863 27.1064 74.7129 27.1064V27.1064Z" fill="#FAFAFA"/>
</svg>
