<svg width="34" height="34" viewBox="0 0 34 34" fill="none" xmlns="http://www.w3.org/2000/svg">
<circle cx="17" cy="17" r="17" fill="white"/>
<path d="M11.2525 23.75L12.0975 20.645C11.5407 19.6905 11.2482 18.605 11.25 17.5C11.25 14.0481 14.0481 11.25 17.5 11.25C20.9519 11.25 23.75 14.0481 23.75 17.5C23.75 20.9519 20.9519 23.75 17.5 23.75C16.3955 23.7518 15.3104 23.4595 14.3563 22.9031L11.2525 23.75ZM15.2444 14.5675C15.1637 14.5725 15.0848 14.5938 15.0125 14.63C14.9447 14.6684 14.8828 14.7164 14.8288 14.7725C14.7538 14.8431 14.7113 14.9044 14.6656 14.9637C14.4346 15.2644 14.3104 15.6334 14.3125 16.0125C14.3138 16.3187 14.3938 16.6169 14.5188 16.8956C14.7744 17.4594 15.195 18.0562 15.7506 18.6094C15.8844 18.7425 16.015 18.8762 16.1556 19.0006C16.8453 19.6078 17.667 20.0456 18.5556 20.2794L18.9113 20.3337C19.0269 20.34 19.1425 20.3313 19.2588 20.3256C19.4408 20.3162 19.6185 20.2669 19.7794 20.1813C19.8612 20.1391 19.9411 20.0932 20.0188 20.0437C20.0188 20.0437 20.0456 20.0262 20.0969 19.9875C20.1813 19.925 20.2331 19.8806 20.3031 19.8075C20.355 19.7537 20.4 19.6906 20.4344 19.6188C20.4831 19.5169 20.5319 19.3225 20.5519 19.1606C20.5669 19.0369 20.5625 18.9694 20.5606 18.9275C20.5581 18.8606 20.5025 18.7913 20.4419 18.7619L20.0781 18.5988C20.0781 18.5988 19.5344 18.3619 19.2025 18.2106C19.1675 18.1954 19.13 18.1867 19.0919 18.185C19.0491 18.1806 19.0059 18.1854 18.9652 18.1991C18.9244 18.2128 18.8871 18.2351 18.8556 18.2644V18.2631C18.8525 18.2631 18.8106 18.2988 18.3588 18.8463C18.3328 18.8811 18.2971 18.9074 18.2561 18.9219C18.2152 18.9364 18.1708 18.9383 18.1288 18.9275C18.088 18.9166 18.0481 18.9028 18.0094 18.8863C17.9319 18.8538 17.905 18.8412 17.8519 18.8181L17.8488 18.8169C17.4912 18.6608 17.1601 18.4499 16.8675 18.1919C16.7888 18.1231 16.7156 18.0481 16.6406 17.9756C16.3947 17.7401 16.1805 17.4738 16.0031 17.1831L15.9663 17.1237C15.9398 17.0839 15.9184 17.0408 15.9025 16.9956C15.8788 16.9037 15.9406 16.83 15.9406 16.83C15.9406 16.83 16.0925 16.6637 16.1631 16.5737C16.2219 16.499 16.2768 16.4211 16.3275 16.3406C16.4013 16.2219 16.4244 16.1 16.3856 16.0056C16.2106 15.5781 16.0294 15.1525 15.8431 14.73C15.8063 14.6463 15.6969 14.5862 15.5975 14.5744C15.5638 14.5706 15.53 14.5669 15.4963 14.5644C15.4123 14.5602 15.3282 14.561 15.2444 14.5669V14.5675Z" fill="black"/>
</svg>
