<svg width="62" height="62" viewBox="0 0 62 62" fill="none" xmlns="http://www.w3.org/2000/svg">
<g filter="url(#filter0_d_398_501)">
<circle cx="31" cy="27" r="17" fill="white"/>
</g>
<path d="M25.2525 33.75L26.0975 30.645C25.5407 29.6905 25.2482 28.605 25.25 27.5C25.25 24.0481 28.0481 21.25 31.5 21.25C34.9519 21.25 37.75 24.0481 37.75 27.5C37.75 30.9519 34.9519 33.75 31.5 33.75C30.3955 33.7518 29.3104 33.4595 28.3563 32.9031L25.2525 33.75ZM29.2444 24.5675C29.1637 24.5725 29.0848 24.5938 29.0125 24.63C28.9447 24.6684 28.8828 24.7164 28.8288 24.7725C28.7538 24.8431 28.7113 24.9044 28.6656 24.9637C28.4346 25.2644 28.3104 25.6334 28.3125 26.0125C28.3138 26.3187 28.3938 26.6169 28.5188 26.8956C28.7744 27.4594 29.195 28.0562 29.7506 28.6094C29.8844 28.7425 30.015 28.8763 30.1556 29.0006C30.8453 29.6078 31.667 30.0456 32.5556 30.2794L32.9113 30.3338C33.0269 30.34 33.1425 30.3312 33.2588 30.3256C33.4408 30.3162 33.6185 30.2669 33.7794 30.1813C33.8612 30.1391 33.9411 30.0932 34.0188 30.0437C34.0188 30.0437 34.0456 30.0262 34.0969 29.9875C34.1813 29.925 34.2331 29.8806 34.3031 29.8075C34.355 29.7538 34.4 29.6906 34.4344 29.6188C34.4831 29.5169 34.5319 29.3225 34.5519 29.1606C34.5669 29.0369 34.5625 28.9694 34.5606 28.9275C34.5581 28.8606 34.5025 28.7913 34.4419 28.7619L34.0781 28.5988C34.0781 28.5988 33.5344 28.3619 33.2025 28.2106C33.1675 28.1954 33.13 28.1867 33.0919 28.185C33.0491 28.1806 33.0059 28.1854 32.9652 28.1991C32.9244 28.2128 32.8871 28.2351 32.8556 28.2644V28.2631C32.8525 28.2631 32.8106 28.2988 32.3588 28.8463C32.3328 28.8811 32.2971 28.9074 32.2561 28.9219C32.2152 28.9364 32.1708 28.9383 32.1288 28.9275C32.088 28.9166 32.0481 28.9028 32.0094 28.8863C31.9319 28.8538 31.905 28.8413 31.8519 28.8181L31.8488 28.8169C31.4912 28.6608 31.1601 28.4499 30.8675 28.1919C30.7888 28.1231 30.7156 28.0481 30.6406 27.9756C30.3947 27.7401 30.1805 27.4738 30.0031 27.1831L29.9663 27.1237C29.9398 27.0839 29.9184 27.0408 29.9025 26.9956C29.8788 26.9037 29.9406 26.83 29.9406 26.83C29.9406 26.83 30.0925 26.6637 30.1631 26.5737C30.2219 26.499 30.2768 26.4211 30.3275 26.3406C30.4013 26.2219 30.4244 26.1 30.3856 26.0056C30.2106 25.5781 30.0294 25.1525 29.8431 24.73C29.8063 24.6462 29.6969 24.5862 29.5975 24.5744C29.5638 24.5706 29.53 24.5669 29.4963 24.5644C29.4123 24.5602 29.3282 24.561 29.2444 24.5669V24.5675Z" fill="black"/>
<defs>
<filter id="filter0_d_398_501" x="0" y="0" width="62" height="62" filterUnits="userSpaceOnUse" color-interpolation-filters="sRGB">
<feFlood flood-opacity="0" result="BackgroundImageFix"/>
<feColorMatrix in="SourceAlpha" type="matrix" values="0 0 0 0 0 0 0 0 0 0 0 0 0 0 0 0 0 0 127 0" result="hardAlpha"/>
<feOffset dy="4"/>
<feGaussianBlur stdDeviation="7"/>
<feColorMatrix type="matrix" values="0 0 0 0 0 0 0 0 0 0 0 0 0 0 0 0 0 0 0.15 0"/>
<feBlend mode="normal" in2="BackgroundImageFix" result="effect1_dropShadow_398_501"/>
<feBlend mode="normal" in="SourceGraphic" in2="effect1_dropShadow_398_501" result="shape"/>
</filter>
</defs>
</svg>
