<svg width="16" height="16" viewBox="0 0 16 16" fill="none" xmlns="http://www.w3.org/2000/svg">
<g clip-path="url(#clip0_735_2331)">
<path d="M3.65401 1.32829C3.59498 1.25236 3.52046 1.18985 3.43542 1.14492C3.35037 1.09999 3.25673 1.07368 3.16073 1.06772C3.06473 1.06176 2.96856 1.07629 2.87861 1.11036C2.78866 1.14442 2.70698 1.19724 2.63901 1.26529L1.60501 2.30029C1.12201 2.78429 0.944013 3.4693 1.15501 4.0703C2.03075 6.55788 3.45531 8.81639 5.32301 10.6783C7.18494 12.546 9.44344 13.9705 11.931 14.8463C12.532 15.0573 13.217 14.8793 13.701 14.3963L14.735 13.3623C14.8031 13.2943 14.8559 13.2127 14.8899 13.1227C14.924 13.0327 14.9386 12.9366 14.9326 12.8406C14.9266 12.7446 14.9003 12.6509 14.8554 12.5659C14.8105 12.4808 14.748 12.4063 14.672 12.3473L12.365 10.5533C12.2839 10.4904 12.1895 10.4467 12.0891 10.4256C11.9886 10.4044 11.8846 10.4064 11.785 10.4313L9.59501 10.9783C9.30269 11.0514 8.99644 11.0475 8.70606 10.967C8.41568 10.8866 8.15108 10.7324 7.93801 10.5193L5.48201 8.06229C5.26878 7.84933 5.11434 7.58478 5.03373 7.29439C4.95311 7.00401 4.94908 6.6977 5.02201 6.4053L5.57001 4.2153C5.59492 4.11569 5.59688 4.01173 5.57575 3.91126C5.55461 3.81079 5.51094 3.71642 5.44801 3.63529L3.65401 1.32829ZM1.88401 0.511295C2.05901 0.336244 2.26924 0.200425 2.50075 0.112856C2.73226 0.0252871 2.97976 -0.0120282 3.22679 0.00338804C3.47383 0.0188043 3.71477 0.0865995 3.93359 0.202272C4.15242 0.317944 4.34414 0.478847 4.49601 0.674295L6.29001 2.98029C6.61901 3.40329 6.73501 3.9543 6.60501 4.4743L6.05801 6.6643C6.02973 6.77772 6.03126 6.89654 6.06245 7.0092C6.09364 7.12187 6.15343 7.22456 6.23601 7.3073L8.69301 9.76429C8.77585 9.84705 8.87871 9.90694 8.99156 9.93813C9.10442 9.96933 9.22344 9.97076 9.33701 9.9423L11.526 9.3953C11.7826 9.33113 12.0505 9.32615 12.3093 9.38072C12.5681 9.43529 12.8111 9.54799 13.02 9.71029L15.326 11.5043C16.155 12.1493 16.231 13.3743 15.489 14.1153L14.455 15.1493C13.715 15.8893 12.609 16.2143 11.578 15.8513C8.9392 14.9228 6.54329 13.4121 4.56801 11.4313C2.5873 9.45631 1.07662 7.06075 0.148013 4.4223C-0.213987 3.3923 0.111013 2.28529 0.851013 1.54529L1.88501 0.511295H1.88401Z" fill="#454545"/>
</g>
<defs>
<clipPath id="clip0_735_2331">
<rect width="16" height="16" fill="white"/>
</clipPath>
</defs>
</svg>
