<svg width="63" height="62" viewBox="0 0 63 62" fill="none" xmlns="http://www.w3.org/2000/svg">
<g filter="url(#filter0_d_262_1544)">
<circle cx="31.5" cy="27" r="17" fill="white"/>
</g>
<path d="M38.7101 24.2288C38.7025 23.6608 38.5962 23.0984 38.3958 22.5668C38.2221 22.1185 37.9567 21.7112 37.6167 21.3712C37.2767 21.0312 36.8694 20.7658 36.4211 20.5921C35.8963 20.3951 35.3419 20.2886 34.7816 20.2771C34.0601 20.2448 33.8313 20.2358 31.9998 20.2358C30.1683 20.2358 29.9336 20.2358 29.2173 20.2771C28.6572 20.2887 28.1031 20.3952 27.5786 20.5921C27.1301 20.7657 26.7228 21.031 26.3828 21.3711C26.0427 21.7111 25.7774 22.1184 25.6038 22.5668C25.4064 23.0912 25.3002 23.6454 25.2896 24.2056C25.2573 24.9278 25.2476 25.1566 25.2476 26.9881C25.2476 28.8196 25.2476 29.0536 25.2896 29.7706C25.3008 30.3316 25.4066 30.8851 25.6038 31.4108C25.7777 31.8592 26.0432 32.2663 26.3834 32.6062C26.7235 32.9461 27.1309 33.2113 27.5793 33.3848C28.1024 33.5897 28.6566 33.7039 29.2181 33.7223C29.9403 33.7546 30.1691 33.7643 32.0006 33.7643C33.8321 33.7643 34.0668 33.7643 34.7831 33.7223C35.3434 33.7113 35.8978 33.605 36.4226 33.4081C36.8708 33.2341 37.2779 32.9687 37.6179 32.6287C37.9579 32.2887 38.2234 31.8816 38.3973 31.4333C38.5946 30.9083 38.7003 30.3548 38.7116 29.7931C38.7438 29.0716 38.7536 28.8428 38.7536 27.0106C38.7521 25.1791 38.7521 24.9466 38.7101 24.2288V24.2288ZM31.9953 30.4516C30.0798 30.4516 28.5281 28.8998 28.5281 26.9843C28.5281 25.0688 30.0798 23.5171 31.9953 23.5171C32.9149 23.5171 33.7968 23.8824 34.447 24.5326C35.0973 25.1829 35.4626 26.0648 35.4626 26.9843C35.4626 27.9039 35.0973 28.7858 34.447 29.4361C33.7968 30.0863 32.9149 30.4516 31.9953 30.4516V30.4516ZM35.6006 24.1973C35.4944 24.1974 35.3892 24.1766 35.291 24.136C35.1929 24.0954 35.1037 24.0359 35.0286 23.9608C34.9535 23.8857 34.894 23.7965 34.8534 23.6984C34.8128 23.6002 34.792 23.495 34.7921 23.3888C34.7921 23.2827 34.813 23.1776 34.8536 23.0796C34.8942 22.9815 34.9537 22.8925 35.0288 22.8174C35.1038 22.7424 35.1929 22.6828 35.2909 22.6422C35.389 22.6016 35.4941 22.5807 35.6002 22.5807C35.7063 22.5807 35.8114 22.6016 35.9094 22.6422C36.0075 22.6828 36.0966 22.7424 36.1716 22.8174C36.2467 22.8925 36.3062 22.9815 36.3468 23.0796C36.3874 23.1776 36.4083 23.2827 36.4083 23.3888C36.4083 23.8358 36.0468 24.1973 35.6006 24.1973Z" fill="black"/>
<path d="M31.9954 29.2364C33.2393 29.2364 34.2477 28.2281 34.2477 26.9842C34.2477 25.7403 33.2393 24.7319 31.9954 24.7319C30.7515 24.7319 29.7432 25.7403 29.7432 26.9842C29.7432 28.2281 30.7515 29.2364 31.9954 29.2364Z" fill="black"/>
<defs>
<filter id="filter0_d_262_1544" x="0.5" y="0" width="62" height="62" filterUnits="userSpaceOnUse" color-interpolation-filters="sRGB">
<feFlood flood-opacity="0" result="BackgroundImageFix"/>
<feColorMatrix in="SourceAlpha" type="matrix" values="0 0 0 0 0 0 0 0 0 0 0 0 0 0 0 0 0 0 127 0" result="hardAlpha"/>
<feOffset dy="4"/>
<feGaussianBlur stdDeviation="7"/>
<feColorMatrix type="matrix" values="0 0 0 0 0 0 0 0 0 0 0 0 0 0 0 0 0 0 0.15 0"/>
<feBlend mode="normal" in2="BackgroundImageFix" result="effect1_dropShadow_262_1544"/>
<feBlend mode="normal" in="SourceGraphic" in2="effect1_dropShadow_262_1544" result="shape"/>
</filter>
</defs>
</svg>
