<svg width="96" height="14" viewBox="0 0 96 14" fill="none" xmlns="http://www.w3.org/2000/svg">
<path d="M4.76 9.598V1.48H0.26V13H2.024V13.018H15.236V9.598H4.76ZM29.6329 4.18V6.934C28.7509 5.08 26.3569 3.91 22.9729 3.91C19.0849 3.91 16.2589 5.494 16.2589 8.59C16.2589 11.542 19.0849 13.252 22.9729 13.252C26.3749 13.252 28.7689 12.082 29.6329 10.228C29.6689 11.956 29.8849 13 29.8849 13H33.9529V4.18H29.6329ZM24.5929 10.516C22.1449 10.516 20.7409 9.868 20.7409 8.59C20.7409 7.294 22.1449 6.664 24.5929 6.664C27.3289 6.664 29.6329 7.06 29.6329 8.59C29.6329 10.102 27.3289 10.516 24.5929 10.516ZM47.0157 3.91C43.6137 3.91 41.2197 5.08 40.3557 6.934V0.598H36.0357V13H40.1037C40.1037 13 40.3017 11.956 40.3377 10.228C41.2017 12.082 43.5957 13.252 47.0157 13.252C50.9037 13.252 53.7297 11.542 53.7297 8.59C53.7297 5.494 50.8857 3.91 47.0157 3.91ZM45.3957 10.516C42.6417 10.516 40.3557 10.102 40.3557 8.59C40.3557 7.06 42.6417 6.664 45.3957 6.664C47.8437 6.664 49.2477 7.294 49.2477 8.59C49.2477 9.868 47.8437 10.516 45.3957 10.516Z" fill="#0044D2"/>
<path d="M68.5735 1.48H55.6135V13H68.5735C74.6935 13 76.7095 10.264 76.7095 7.24C76.7095 4.216 75.0535 1.48 68.5735 1.48ZM68.3935 9.4H60.1135V5.08H68.3935C71.0935 5.08 72.0295 5.8 72.0295 7.24C72.0295 8.68 71.0935 9.4 68.3935 9.4ZM95.2452 13L89.0172 8.41L94.8852 4.18H89.5932L86.5512 6.592L83.2572 4.18H77.9652L83.9052 8.608L77.9652 13H83.2572L86.3892 10.426L89.9532 13H95.2452Z" fill="#EB5757"/>
</svg>
