<svg width="198" height="86" viewBox="0 0 198 86" fill="none" xmlns="http://www.w3.org/2000/svg">
<path d="M45.8058 84.9179C45.9616 84.9003 46.1724 84.8527 46.3238 84.8713C53.8658 85.6164 61.2524 85.128 68.6108 84.4522C72.031 84.1376 75.4096 83.7442 78.7882 83.3509C79.0495 83.3095 79.3107 83.268 79.5899 83.0816C78.9798 83.0433 78.3742 82.9687 77.7641 82.9303C64.8279 81.8887 52.2409 79.6758 40.1563 75.464C39.5686 75.2444 38.9169 75.1274 38.2609 75.0466C30.8274 73.8365 23.5529 72.1676 16.7241 69.376C13.0685 67.8586 9.70546 66.046 6.8636 63.7456C1.52422 59.2609 -0.478068 54.3041 0.810736 48.8328C1.58375 45.469 3.44026 42.4595 5.78358 39.6571C7.40519 37.7226 9.31621 35.9341 11.3697 34.2368C11.7127 33.9479 12.1106 33.6289 12.3067 33.2851C15.3516 27.6989 20.2205 23.1102 26.2425 19.1419C33.2668 14.5243 41.3817 11.0346 50.1228 8.28447C63.656 4.06393 77.9797 1.74389 92.9458 0.864483C101.717 0.362719 110.578 0.387076 119.417 0.997615C131.61 1.83724 143.581 3.64312 155.268 6.92273C164.081 9.40678 172.397 12.6023 179.846 17.0157C184.529 19.7636 188.598 22.9143 191.83 26.6242C195.282 30.619 197.37 34.8871 197.623 39.4813C197.741 41.8509 197.355 44.1583 196.367 46.3549C195.101 49.1428 193.583 51.8996 191.436 54.3582C188.279 57.9434 184.133 60.8182 179.427 63.2558C173.297 66.438 166.549 68.8083 159.406 70.6513C149.192 73.2937 138.633 75.4151 128.041 77.3853C116.45 79.5637 104.744 81.4334 92.9258 82.9582C83.1892 84.2242 73.4244 85.3028 63.4832 85.734C58.0725 85.9874 52.5966 85.9384 47.1505 85.2307C46.6963 85.1748 46.2926 85.1251 45.8384 85.0691C45.7924 85.0266 45.8013 84.9541 45.8058 84.9179ZM67.247 74.312C70.4444 74.5586 75.8756 74.9701 81.3663 75.3153C83.247 75.4366 85.1916 75.4554 87.0486 75.353C92.78 74.9919 98.3913 74.3584 103.97 73.5737C115.861 71.8739 127.382 69.4294 138.234 65.7617C145.934 63.1409 153.133 60.0168 159.43 55.8983C163.443 53.2649 166.988 50.2793 169.425 46.7157C171.488 43.6948 172.605 40.4471 172.171 36.8978C171.705 33.1974 169.657 29.8542 166.442 26.8454C163.23 23.8003 159.278 21.3632 154.869 19.3113C147.409 15.8165 139.326 13.6432 130.906 12.1275C122.334 10.5932 113.756 9.94123 105.11 9.833C93.6999 9.71528 82.5725 10.626 71.7283 12.5651C59.6282 14.7175 48.2061 18.0206 37.876 22.8565C32.0058 25.5924 26.6965 28.7653 22.3162 32.715C18.3012 36.1946 15.4113 40.1072 14.528 44.7821C13.7576 48.9558 14.7984 52.9845 17.9158 56.7908C20.232 59.6152 23.3856 61.8803 26.9327 63.8628C31.9223 66.6117 37.4689 68.5829 43.2753 70.1078C50.3716 71.9755 57.6033 73.1608 67.247 74.312ZM118.325 9.0322C118.316 9.1047 118.362 9.14716 118.353 9.21966C119.312 9.33778 120.271 9.45591 121.23 9.57403C127.194 10.2351 133.067 11.2163 138.832 12.6624C145.446 14.2867 151.787 16.4661 157.625 19.3933C162.159 21.6813 166.186 24.3484 169.256 27.7072C173.771 32.6424 175.082 37.8084 173.183 43.2413C171.938 46.6941 169.623 49.6839 166.674 52.4117C162.861 55.9161 158.252 58.8074 153.225 61.3528C146.508 64.7203 139.221 67.3184 131.578 69.4679C122.346 72.0472 112.744 73.8818 102.902 75.1716C102.434 75.2244 101.962 75.3135 101.495 75.3663C101.835 75.5185 102.087 75.5496 102.399 75.5144C107.447 75.29 112.537 75.1443 117.549 74.8049C129.745 73.9522 141.668 72.4036 153.17 69.6992C161.611 67.7216 169.614 65.1381 176.825 61.5002C181.358 59.2252 185.426 56.5617 188.786 53.4062C191.511 50.8348 193.056 47.8605 193.513 44.5682C194.154 40.1946 192.613 36.0674 189.404 32.1763C186.378 28.455 182.245 25.4068 177.549 22.7676C169.784 18.4256 161.125 15.5191 151.955 13.4327C144.58 11.7514 137.147 10.5413 129.591 9.90491C125.843 9.55359 122.082 9.31102 118.325 9.0322ZM195.296 37.5755C195.347 37.5817 195.402 37.5517 195.402 37.5517C195.369 37.4005 195.387 37.2555 195.35 37.1405C194.84 34.2075 193.496 31.3925 191.52 28.7204C188.351 24.503 184.069 20.995 178.964 17.9374C173.238 14.509 166.96 11.8221 160.262 9.63543C146.617 5.19472 132.498 2.94027 118.063 2.00834C110.54 1.52319 103.115 1.49167 95.6456 1.82263C80.7523 2.52702 66.4509 4.66582 52.94 8.70511C43.8457 11.4118 35.4695 14.9429 28.129 19.6319C23.571 22.5294 19.6332 25.7977 16.5963 29.6554C16.4181 29.8542 16.2859 30.0955 16.1033 30.3306C16.4106 30.3316 16.5754 30.2415 16.7402 30.1514C23.5402 25.6902 31.1638 22.0296 39.4686 19.0785C63.9567 10.3566 90.4248 6.77277 118.541 7.69725C128.796 8.04067 138.954 9.18155 148.999 11.2286C156.746 12.8085 164.219 14.9434 171.287 17.8748C176.747 20.1297 181.746 22.8062 186.091 26.2117C190.156 29.3987 193.304 32.9512 194.946 37.0908C195.126 37.2969 195.213 37.4181 195.296 37.5755ZM10.239 37.5933C9.7727 38.051 9.42971 38.34 9.13272 38.6714C5.96094 41.9604 3.42737 45.4753 2.56059 49.6003C1.69381 53.7253 2.89931 57.664 6.4473 61.3024C8.90463 63.813 12.0479 65.7458 15.5847 67.3958C20.2331 69.5875 25.2737 71.0916 30.4598 72.2457C31.3088 72.4238 32.1074 72.5958 32.9564 72.774C15.2251 64.0765 6.7901 52.6972 10.239 37.5933ZM48.2995 76.32C48.295 76.3562 48.2356 76.4225 48.2311 76.4588C48.4285 76.5199 48.6719 76.6235 48.8693 76.6846C53.0832 77.8292 57.3238 78.7564 61.6328 79.5448C69.3007 80.931 77.0727 81.8884 84.8568 82.3321C85.6687 82.3954 86.4896 82.3861 87.2734 82.2619C99.5262 80.533 111.663 78.4956 123.671 76.2583C123.933 76.2169 124.203 76.103 124.464 76.0615C123.914 75.9569 123.4 75.9672 122.882 76.0138C113.515 76.7734 104.142 77.1643 94.6214 77.0954C89.5032 77.0537 84.3895 76.9757 79.2905 77.1939C70.7343 77.6118 62.1441 77.4735 53.5199 76.7791C51.804 76.5677 50.0288 76.4226 48.2995 76.32ZM32.8615 23.6371C32.8659 23.6008 32.8199 23.5584 32.8244 23.5221C31.7941 23.984 30.7637 24.4458 29.7839 24.9139C24.1794 27.5721 18.9384 30.6062 14.3044 34.12C13.8516 34.4689 13.3853 34.9267 13.1758 35.3792C11.7097 38.5472 10.9456 41.8385 11.1864 45.2904C11.6278 52.5204 15.3501 58.9034 22.2982 64.4694C26.8184 68.1173 32.2208 70.8435 38.0849 73.1482C39.7932 73.837 41.5877 74.242 43.455 74.4721C51.2819 75.3995 59.1669 75.8556 66.9956 75.9369C68.1742 75.9349 69.3529 75.9329 70.5359 75.8946C58.2678 74.4202 56.405 74.1539 48.0113 72.4207C42.5179 71.2656 37.225 69.7304 32.155 67.634C26.9885 65.4888 22.2883 62.8859 18.6215 59.38C14.8627 55.7891 12.8408 51.8234 12.7116 47.4654C12.5896 43.8809 13.7664 40.5669 15.8426 37.4373C18.5486 33.3549 22.4952 30.0141 27.0622 27.0441C28.9983 25.8842 30.9254 24.7969 32.8615 23.6371Z" fill="#0044D2"/>
</svg>
