<svg width="63" height="62" viewBox="0 0 63 62" fill="none" xmlns="http://www.w3.org/2000/svg">
<g filter="url(#filter0_d_262_1551)">
<circle cx="31.5" cy="27" r="17" fill="white"/>
</g>
<g clip-path="url(#clip0_262_1551)">
<path d="M37.5 23.4692C37.0166 23.6812 36.5014 23.8218 35.9644 23.8901C36.5169 23.5602 36.9386 23.0418 37.1368 22.417C36.6217 22.7241 36.0529 22.9411 35.4468 23.0621C34.9577 22.5413 34.2606 22.2188 33.5001 22.2188C32.0246 22.2188 30.8367 23.4164 30.8367 24.8846C30.8367 25.0958 30.8546 25.2989 30.8984 25.4923C28.6827 25.3842 26.7222 24.3223 25.4051 22.7046C25.1752 23.1036 25.0403 23.5602 25.0403 24.0518C25.0403 24.9748 25.5156 25.7929 26.2241 26.2666C25.7959 26.2585 25.3759 26.1342 25.02 25.9384C25.02 25.9465 25.02 25.9571 25.02 25.9676C25.02 27.2627 25.9438 28.3385 27.1552 28.5863C26.9383 28.6456 26.7019 28.6741 26.4565 28.6741C26.2859 28.6741 26.1136 28.6643 25.9519 28.6286C26.2972 29.684 27.2771 30.4599 28.4423 30.4851C27.5355 31.1944 26.3842 31.6218 25.1378 31.6218C24.9192 31.6218 24.7096 31.6121 24.5 31.5852C25.6806 32.3466 27.0797 32.7812 28.5885 32.7812C33.4927 32.7812 36.174 28.7188 36.174 25.1974C36.174 25.0796 36.1699 24.9658 36.1642 24.8529C36.6932 24.4775 37.1376 24.0087 37.5 23.4692Z" fill="black"/>
</g>
<defs>
<filter id="filter0_d_262_1551" x="0.5" y="0" width="62" height="62" filterUnits="userSpaceOnUse" color-interpolation-filters="sRGB">
<feFlood flood-opacity="0" result="BackgroundImageFix"/>
<feColorMatrix in="SourceAlpha" type="matrix" values="0 0 0 0 0 0 0 0 0 0 0 0 0 0 0 0 0 0 127 0" result="hardAlpha"/>
<feOffset dy="4"/>
<feGaussianBlur stdDeviation="7"/>
<feColorMatrix type="matrix" values="0 0 0 0 0 0 0 0 0 0 0 0 0 0 0 0 0 0 0.15 0"/>
<feBlend mode="normal" in2="BackgroundImageFix" result="effect1_dropShadow_262_1551"/>
<feBlend mode="normal" in="SourceGraphic" in2="effect1_dropShadow_262_1551" result="shape"/>
</filter>
<clipPath id="clip0_262_1551">
<rect width="13" height="13" fill="white" transform="translate(24.5 21)"/>
</clipPath>
</defs>
</svg>
